<svg xmlns="http://www.w3.org/2000/svg" id="Layer_2" data-name="Layer 2" viewBox="0 0 200 200"><defs><style>      .cls-1 {        fill: #fff;      }      .cls-2 {        fill: #473204;      }      .cls-3 {        fill: #76c04e;      }    </style></defs><g id="Layer_1-2" data-name="Layer 1"><g><g><circle class="cls-3" cx="100" cy="100" r="100"></circle><g><path class="cls-2" d="m185.66,183.37c-1.11,0-2.17-.48-2.9-1.32-6.11-6.97-13.51-10.51-22.01-10.51s-15.08,3.18-18.44,4.71c-1.5.68-2.26,1.03-3.28,1.03-.85,0-1.68-.29-2.35-.8-11.27-8.69-25.31-13.09-41.73-13.09-34.45,0-67.54,19.25-67.87,19.44-.59.35-1.27.54-1.96.54-1.36,0-2.64-.73-3.32-1.9-.52-.89-.67-1.92-.42-2.92.26-1,.89-1.83,1.77-2.36,1.43-.84,35.45-20.71,71.51-20.71,17.33,0,32.44,4.56,44.91,13.55,7.69-3.43,14.92-5.16,21.53-5.16,10.6,0,19.84,4.41,27.46,13.1,1.4,1.6,1.24,4.04-.36,5.44-.7.62-1.61.96-2.54.96Z"></path><path class="cls-1" d="m94.65,156.48c15.29,0,30.99,3.57,44.8,13.7.02-.01.05-.02.07-.03,7.74-3.52,14.95-5.28,21.58-5.28,10.32,0,19.25,4.26,26.7,12.76,1.04,1.19.92,2.99-.27,4.03-.54.47-1.21.71-1.88.71-.8,0-1.59-.33-2.15-.97-7.31-8.35-15.48-10.85-22.76-10.85-8.29,0-15.44,3.25-18.86,4.8-1.46.66-2.06.94-2.87.94-.63,0-1.24-.21-1.74-.59-12.76-9.83-27.68-13.3-42.35-13.3-34.63,0-67.9,19.3-68.38,19.58-.46.27-.96.4-1.45.4-.98,0-1.93-.5-2.46-1.4-.8-1.36-.35-3.11,1.01-3.91,2-1.18,35.39-20.57,71.01-20.57m0-2c-36.33,0-70.58,19.99-72.02,20.85-1.12.66-1.91,1.71-2.23,2.97-.32,1.26-.14,2.56.52,3.68.87,1.47,2.47,2.39,4.18,2.39.86,0,1.72-.23,2.47-.67.33-.19,33.21-19.3,67.36-19.3,16.19,0,30.03,4.33,41.12,12.88.84.65,1.9,1.01,2.96,1.01,1.24,0,2.11-.4,3.7-1.12,3.3-1.5,10.17-4.62,18.03-4.62,8.19,0,15.35,3.42,21.26,10.17.92,1.05,2.25,1.66,3.65,1.66,1.18,0,2.31-.43,3.2-1.2.98-.85,1.56-2.04,1.65-3.33.09-1.29-.34-2.54-1.19-3.52-7.82-8.92-17.31-13.44-28.21-13.44-6.61,0-13.81,1.69-21.41,5.02-12.56-8.89-27.7-13.4-45.03-13.4h0Z"></path></g></g><g><path class="cls-2" d="m50.75,157.78c-.85,0-1.64-.46-2.05-1.21L8.85,84.49c-.46-.83-.35-2.2.54-2.84l3.51-2.55c-1.43-3.12-2.85-6.25-4.27-9.37-.51-1.13-.16-2.29.91-3.03l3.56-2.44c-.27-.69-.56-1.49-.72-2.3-.51-2.51,1.69-3.59,2.63-4.05,1.14-.56,2.28-1.1,3.43-1.63l1.26-.59c-.11-2.06.99-3.97,3.14-5.44l.05-.18.31-.06c.37-.23.75-.44,1.13-.63,5.3-2.56,11.7-2.96,17.28-3.13,1.01-.03,2.01-.05,3.02-.05,6.57,0,13.2.66,19.7,1.96,7.02,1.4,12.37,3.24,16.75,5.77.46-.96,1.2-1.83,1.87-2.61.24-.28.48-.56.68-.82,2.29-2.93,5.03-6.37,8.05-9.63,2.26-2.44,4.86-4.63,7.38-6.74.7-.59,1.4-1.18,2.1-1.77,4.51-3.87,8.8-7.09,13.12-9.86.48-.31.97-.63,1.47-.95,2.35-1.54,4.78-3.13,7.32-4.1.4-.16.81-.23,1.21-.23.92,0,1.81.41,2.64,1.21,2.38,2.31,3.9,5.77,5.24,8.81.3.68.59,1.35.89,1.98,1.79,3.85,3.52,7.8,5.2,11.61,1.02,2.32,2.04,4.63,3.07,6.94.22.5.76,1.68.76,1.68,2.56-.76,4.94-1.39,7.23-1.9.49-.11,1.01-.24,1.53-.37,1.74-.44,3.53-.88,5.27-.88.14,0,.28,0,.42,0,2.58.12,3.44,2.23,4.14,3.93l.09.21c1.07,2.61,2.13,5.22,3.19,7.83v.02s4.98-.53,4.98-.53c.11-.01.23-.02.34-.02,1.02,0,1.83.48,2.16,1.27,7.55,18.31,13.31,37.36,17.14,56.63.12.63-.02,1.33-.4,1.86-.34.49-.83.8-1.39.89-.57.09-1.16.17-1.85.23.98,3.39,1.62,6.93,1.9,10.54.04.54-.17,1.11-.59,1.56-.36.39-.84.66-1.32.74.22,1.38.29,2.78.21,4.19-.07,1.22-1.08,2.22-2.27,2.22h-.13c-5.15-.31-10.14-1.71-14.96-3.06l-.25-.07c-5.2-1.46-10.4-2.75-15.45-3.85-10.45-2.27-21.29-3.91-32.22-4.88-.4-.04-.77-.16-1.08-.37-1.96.49-3.99,1.44-5.96,2.36-.64.3-1.27.6-1.9.88-21.2,9.44-41.79,19.78-59.13,28.65-.32.17-.69.25-1.05.25Z"></path><path class="cls-1" d="m124.29,17.93c.78,0,1.49.39,2.11,1,2.79,2.71,4.37,7.13,5.97,10.58,2.85,6.14,5.5,12.37,8.27,18.55.34.76.69,1.52,1.04,2.28,2.58-.78,5.18-1.49,7.81-2.08,2.07-.46,4.47-1.24,6.64-1.24.13,0,.26,0,.39,0,2.18.1,2.85,1.94,3.56,3.68,1.07,2.61,2.13,5.21,3.19,7.83.08.19.15.38.23.56.06-.01.12-.03.19-.04,1.78-.19,3.56-.38,5.34-.57.09,0,.18-.01.27-.01.59,0,1.22.21,1.46.81,7.51,18.23,13.25,37.15,17.09,56.49.15.78-.32,1.73-1.17,1.87-.9.14-1.81.24-2.72.31,1.14,3.67,1.84,7.42,2.14,11.26.06.75-.74,1.52-1.49,1.52-.04,0-.08,0-.12,0-.16-.02-.31-.03-.47-.05.34,1.62.46,3.25.37,4.93-.04.79-.7,1.51-1.52,1.51-.03,0-.06,0-.08,0-5.16-.31-10.11-1.72-15.06-3.1-5.13-1.44-10.29-2.73-15.49-3.86-10.66-2.31-21.45-3.93-32.31-4.89-.41-.04-.73-.2-.97-.44-2.79.62-5.64,2.16-8.34,3.36-20.01,8.91-39.68,18.7-59.17,28.67-.23.12-.47.17-.71.17-.56,0-1.11-.31-1.4-.83-13.28-24.03-26.57-48.05-39.85-72.08-.31-.55-.21-1.48.33-1.87,1.33-.97,2.67-1.94,4-2.91-1.51-3.31-3.02-6.62-4.52-9.93-.38-.84-.07-1.6.66-2.1,1.35-.93,2.71-1.86,4.06-2.79-.39-.91-.73-1.83-.91-2.73-.35-1.72.87-2.56,2.23-3.23,1.7-.83,3.42-1.62,5.12-2.43.01,0,.02,0,.04-.01-.37-2.33,1.05-4.18,2.98-5.42h0s.01,0,.01,0c.38-.24.77-.47,1.17-.66,5.14-2.48,11.37-2.88,16.98-3.06,1-.03,2-.05,3-.05,6.56,0,13.13.66,19.56,1.94,5.94,1.18,12.07,2.94,17.29,6.14.38-1.53,1.85-2.92,2.75-4.07,2.55-3.28,5.18-6.53,8.01-9.58,2.85-3.08,6.23-5.73,9.41-8.46,4.13-3.54,8.45-6.86,13.04-9.8,2.7-1.73,5.64-3.84,8.65-4.99.33-.13.64-.18.94-.18m-15.31,12.99l11.63-7.74c-.64.37-1.28.72-1.91,1.1-3.36,2.02-6.59,4.26-9.72,6.65M16.6,62.28l2.1-1.86c-.53.25-1.07.51-1.6.76-.1.05-.49.3-.76.41.02.09.05.19.1.29.06.13.11.27.16.4M124.29,16.43h0c-.49,0-.99.1-1.48.28-2.62,1.01-5.08,2.62-7.47,4.18-.49.32-.98.64-1.46.95-4.35,2.79-8.67,6.04-13.21,9.93-.69.59-1.39,1.18-2.09,1.77-2.53,2.13-5.16,4.34-7.45,6.81-3.04,3.28-5.8,6.73-8.09,9.68-.2.25-.42.52-.66.79-.52.61-1.11,1.3-1.59,2.07-4.33-2.38-9.57-4.13-16.31-5.48-6.55-1.31-13.23-1.97-19.85-1.97-1.01,0-2.04.02-3.05.05-5.66.18-12.15.58-17.58,3.21-.37.18-.74.38-1.1.6l-.69.15-.08.36c-2.04,1.48-3.14,3.35-3.2,5.4-.28.13-.55.26-.83.39-1.15.54-2.29,1.08-3.43,1.64-1,.49-3.67,1.79-3.04,4.87.13.65.33,1.29.55,1.87l-1.04.72-2.03,1.39c-1.38.94-1.84,2.5-1.17,3.96,1.34,2.94,2.67,5.88,4.01,8.82l-1.01.73-2,1.45c-1.22.89-1.38,2.69-.76,3.81l37.85,68.46,2,3.62c.55.99,1.58,1.6,2.71,1.6.48,0,.96-.12,1.39-.34,17.34-8.87,37.92-19.2,59.1-28.63.63-.28,1.27-.58,1.91-.88,1.84-.86,3.73-1.74,5.53-2.24.34.17.72.28,1.12.31,10.89.97,21.7,2.6,32.13,4.86,5.04,1.09,10.22,2.38,15.4,3.83l.24.07c4.86,1.36,9.89,2.77,15.13,3.09.06,0,.12,0,.17,0,1.57,0,2.93-1.31,3.02-2.93.07-1.25.03-2.49-.13-3.71.38-.17.74-.43,1.04-.75.56-.6.85-1.38.79-2.12-.26-3.36-.82-6.66-1.69-9.83.35-.04.68-.09,1.01-.14.76-.12,1.43-.55,1.88-1.2.49-.7.68-1.61.52-2.44-3.83-19.31-9.61-38.41-17.18-56.77-.45-1.09-1.51-1.74-2.85-1.74-.14,0-.29,0-.42.02l-2.33.25-2.08.22c-.99-2.45-1.99-4.89-2.99-7.33l-.08-.21c-.74-1.8-1.74-4.26-4.8-4.4-.15,0-.3-.01-.45-.01-1.83,0-3.75.48-5.45.91-.52.13-1.03.26-1.51.37-2.13.48-4.32,1.05-6.66,1.73-.16-.36-.33-.72-.49-1.09-1.04-2.31-2.05-4.62-3.07-6.94-1.68-3.82-3.42-7.77-5.21-11.62-.29-.63-.58-1.29-.88-1.97-1.37-3.11-2.92-6.64-5.4-9.05-.97-.95-2.03-1.42-3.16-1.42h0Z"></path></g><g><polygon class="cls-1" points="49.35 156.2 115.9 122.87 181.28 135.51 184.58 127.61 182.26 117.84 185.97 114.61 169.02 58.5 160.51 59.98 156.95 48.89 141.93 51.99 126.4 18.93 120.89 22.99 97.1 38.83 83.18 56.1 58.1 48.89 38.01 47.4 23.48 50.7 22.24 56.46 18.71 60.42 14.24 64.38 11.41 70.07 14.33 78.98 12.26 82.68 49.35 156.2"></polygon><g><path class="cls-2" d="m109.15,108.3c1.89,3.72,4.27,7.28,6.76,10.62,1.44,1.93,3.3,4.57,5.47,2.06,3.06-3.54,5.99-7.18,9.22-10.57,4.58-4.81,9.64-9.08,14.99-13,3.33-2.44,7.24-4.52,10.29-7.32,2.05-1.88.95-5.05.2-7.31-1.68-5.13-4.03-10.06-6.3-14.95-3.05-6.59-6.18-13.15-9.15-19.77-2.77-6.18-5.42-12.41-8.27-18.55-1.6-3.45-3.18-7.86-5.97-10.58-.87-.85-1.88-1.27-3.06-.82-3.01,1.15-5.95,3.26-8.65,4.99-4.59,2.94-8.91,6.26-13.04,9.8-3.18,2.73-6.56,5.38-9.41,8.46-2.82,3.05-5.45,6.3-8.01,9.58-1.13,1.45-3.2,3.29-2.79,5.33.39,1.96,1.52,3.91,2.39,5.68,7.18,14.48,15.74,28.26,23.33,42.53.68,1.27,1.34,2.54,1.98,3.83.9,1.8,3.65.35,2.76-1.45-6.67-13.34-14.51-26.1-21.59-39.22-1.43-2.65-2.85-5.31-4.16-8.03-.45-.94-.9-1.88-1.29-2.84-.18-.44-.14-.38-.27-.75-.04-.13-.05-.28-.11-.4-.15-.3.07-.02-.02,0,.2-.05-.5.69.06.11.37-.38.65-.92.97-1.35,1.03-1.39,2.11-2.74,3.19-4.09,2.27-2.82,4.56-5.76,7.21-8.23,7.02-6.55,14.55-12.83,22.79-17.79,1.33-.8,2.67-1.57,4.03-2.31.17-.09,2.01-1.07,2.01-1.07,0,0-.68.2-.65.05-.06.39-.14-.47.06.11.27.78,1.48,2.03,1.98,2.91,2.49,4.41,4.48,9.12,6.54,13.75,5.31,11.98,10.92,23.82,16.3,35.77,1.8,4,3.86,8.14,4.79,12.46.11.53.15,1.02.19,1.55.03.35.1.08-.1.26-1.01.93-2.24,1.66-3.36,2.44-9.24,6.39-17.88,13.17-25.35,21.61-1.48,1.67-2.92,3.38-4.35,5.1-.16.2-2.21,2.3-2.14,2.5.07.23,1.54-.32,1.55-.2,0-.1-.41-.42-.49-.51-.52-.6-1.01-1.23-1.49-1.87-1.25-1.67-2.4-3.42-3.52-5.18-.98-1.56-1.94-3.14-2.78-4.78-.91-1.79-3.66-.34-2.76,1.45Z"></path><path class="cls-2" d="m83.18,56.1c-5.55-3.91-12.39-5.91-18.97-7.22-7.4-1.48-15.01-2.13-22.56-1.9-5.61.17-11.84.58-16.98,3.06-2.7,1.31-5,3.69-3.99,6.86,3.7,11.55,8.69,22.86,13.58,33.94,3.78,8.57,7.79,17.05,12.21,25.3,2.15,4.02,4.41,7.98,6.83,11.84.75,1.2,1.85,3.93,3.28,4.38.72.23,1.49-.11,2.16-.35,8.51-3.04,16.75-6.52,25.62-8.48,10.28-2.26,21.15-2.37,31.54-.67.52.08,1.03.17,1.54.28.71.15.86.47.18-.2-.12-.5-.23-1-.35-1.5-.03.07-.05.14-.08.2.38-.36.76-.71,1.14-1.07.3.12.61.24.91.36.06.63.12,1.25.17,1.88.03-.05.06-.1.09-.15,1.07-1.69-1.57-3.35-2.64-1.65-.03.05-.06.1-.09.15-.33.52-.33,1.44.17,1.88,1.16,1.02,2.73.81,3.3-.71.18-.48.01-1.14-.35-1.5-.51-.51-1.22-.61-1.9-.74-1.51-.3-3.04-.52-4.56-.71-4.76-.6-9.58-.85-14.38-.74-10.88.25-21.36,2.95-31.53,6.67-3.2,1.17-6.33,2.5-9.53,3.66-.23.08-.74.15-.93.31-.04,0-.08.02-.12.03-.52.09-.14.22,1.14.39.05-.12-.73-1.11-.82-1.25-1.17-1.81-2.3-3.64-3.4-5.49-4.57-7.71-8.62-15.72-12.43-23.82-6.08-12.93-11.6-26.16-16.53-39.57-.44-1.2-.96-2.4-1.3-3.64-.22-.79-.15-1.11.34-1.68,1.12-1.3,3.07-1.94,4.65-2.41,2.62-.78,5.36-1.2,8.07-1.46,7.86-.76,15.93-.33,23.71.94,7.28,1.19,15,3.11,21.12,7.41,1.64,1.15,3.28-1.49,1.65-2.64h0Z"></path><path class="cls-2" d="m20.46,56.14c-1.71.81-3.43,1.6-5.12,2.43-1.36.67-2.58,1.51-2.23,3.23.4,1.96,1.55,4.01,2.28,5.87,1.8,4.59,3.62,9.18,5.47,13.75,4.15,10.24,8.42,20.44,13.06,30.46,3.65,7.88,7.38,16.02,12.51,23.07,1.34,1.84,2.98,4.01,5.2,4.84,1.57.58,3.4.87,5.06,1.07,1.02.12,1.66-.03,2.61-.46,1.95-.89,3.88-1.82,5.84-2.7,16.53-7.44,34.29-13.61,52.66-12.88,2,.08,2.1-3.03.09-3.11-15.12-.6-29.9,3.37-43.87,8.86-3.59,1.41-7.14,2.93-10.66,4.52-1.62.73-3.29,1.42-4.87,2.25-1.07.56-1.68.43-2.88.2-1.16-.23-2.77-.52-3.4-.92-.74-.46-1.41-1.18-2.07-1.96-4.87-5.69-8.13-13.04-11.35-19.74-4.55-9.46-8.68-19.13-12.68-28.84-2.12-5.13-4.19-10.28-6.23-15.44-.89-2.25-1.77-4.5-2.65-6.75-.18-.45-.35-.91-.53-1.36-.08-.21-.16-.45-.26-.66-.15-.33-.11-.72-.28-.44-.32.55.77-.18.94-.26l1.6-.76c1.07-.51,2.14-1.01,3.2-1.52,1.81-.86.36-3.61-1.45-2.76h0Z"></path><path class="cls-2" d="m14.24,64.38c-1.42.98-2.85,1.96-4.27,2.93-.73.5-1.04,1.26-.66,2.1,8.99,19.78,17.99,39.59,28.49,58.62,2.59,4.7,5.27,9.35,8.07,13.93,2.05,3.37,4.24,8.94,9.11,6.82,4.87-2.12,9.52-4.85,14.35-7.07,4.79-2.2,9.65-4.25,14.56-6.16,11.27-4.39,22.83-7.98,34.58-10.82,1.95-.47,1.25-3.5-.7-3.03-19.69,4.76-38.86,11.68-57.03,20.66-2.15,1.06-4.24,2.24-6.4,3.27-1.64.78-2.29.38-3.22-1.07-.73-1.13-1.42-2.28-2.12-3.42-2.8-4.58-5.49-9.22-8.09-13.92-4.97-8.97-9.6-18.12-14.05-27.35-5.09-10.56-9.94-21.24-14.79-31.91-.22.7-.44,1.4-.66,2.1,1.42-.98,2.85-1.96,4.27-2.93,1.63-1.12.2-3.89-1.45-2.76h0Z"></path><path class="cls-2" d="m14.33,78.98c-1.5,1.09-3,2.18-4.51,3.27-.54.39-.63,1.32-.33,1.87,13.28,24.03,26.57,48.05,39.85,72.08.41.74,1.34,1.05,2.1.66,19.49-9.97,39.17-19.76,59.17-28.67,2.75-1.22,5.66-2.8,8.49-3.4,1.96-.41,1.26-3.45-.7-3.03-2.52.53-5,1.82-7.34,2.84-4.43,1.93-8.81,3.97-13.18,6.03-11.06,5.2-22.04,10.56-32.99,15.99-4.98,2.47-9.95,4.95-14.9,7.48.7.22,1.4.44,2.1.66-13.28-24.03-26.57-48.05-39.85-72.08-.11.62-.22,1.25-.33,1.87,1.5-1.09,3-2.18,4.51-3.27,1.62-1.18-.5-3.46-2.11-2.29h0Z"></path><path class="cls-2" d="m141.86,53.52c4.12-1.27,8.31-2.31,12.56-3.08.84-.15,1.67-.51,2.22.08.57.62.95,2.3,1.26,3.06.87,2.13,1.74,4.27,2.61,6.4,3.46,8.54,6.86,17.12,10.19,25.71,1.67,4.3,3.32,8.6,4.95,12.91.36.96.73,1.92,1.09,2.87.27.7,1.14,2.15,1.01,2.87-.32,1.78-5.05,1.9-6.44,2.17-8.55,1.64-17.09,3.34-25.55,5.4-9.28,2.26-18.43,5-27.34,8.44-1.87.72-.4,3.47,1.45,2.76,18.13-6.99,37.17-10.57,56.15-14.33,1.66-.33,3.44-.83,4.36-2.39.96-1.62.25-3.33-.35-4.93-1.8-4.8-3.63-9.58-5.47-14.36-3.69-9.56-7.45-19.08-11.3-28.58-1.06-2.61-2.12-5.22-3.19-7.83-.72-1.74-1.38-3.58-3.56-3.68-2.27-.1-4.83.74-7.02,1.23-2.81.63-5.58,1.38-8.33,2.23-1.91.59-1.22,3.62.7,3.03h0Z"></path><path class="cls-2" d="m164.38,62.09c1.78-.19,3.56-.38,5.34-.57-.58-.26-1.15-.53-1.73-.79,7.41,17.99,13.03,36.66,16.82,55.74.39-.62.78-1.24,1.17-1.87-5.49.87-11.22.21-16.76.28-5.54.06-11.08.33-16.6.78-10.93.91-21.78,2.57-32.48,4.98-1.96.44-1.26,3.47.7,3.03,10.93-2.45,22.03-4.16,33.2-5.02,5.52-.42,11.07-.65,16.61-.68,5.33-.03,10.75.49,16.04-.34.85-.13,1.32-1.09,1.17-1.87-3.84-19.34-9.58-38.26-17.09-56.49-.28-.69-1.08-.86-1.73-.79l-5.34.57c-1.99.21-1.27,3.24.7,3.03h0Z"></path><path class="cls-2" d="m121.54,124.79c21.01,1.64,42,3.62,62.95,5.93.78.09,1.66-.72,1.6-1.51-.31-4.04-1.05-7.98-2.3-11.84-.62-1.89-3.65-1.21-3.03.7,1.17,3.59,1.94,7.27,2.23,11.04.53-.5,1.07-1.01,1.6-1.51-20.95-2.31-41.94-4.29-62.95-5.93-2-.16-2.09,2.96-.09,3.11h0Z"></path><path class="cls-2" d="m119.93,125.26c10.86.97,21.65,2.58,32.31,4.89,5.2,1.13,10.37,2.42,15.49,3.86,4.95,1.39,9.9,2.79,15.06,3.1.85.05,1.56-.69,1.6-1.51.13-2.28-.14-4.48-.82-6.66-.6-1.9-3.63-1.22-3.03.7.61,1.94.85,3.84.74,5.87.53-.5,1.07-1.01,1.6-1.51-5.38-.32-10.5-1.94-15.67-3.37-5.14-1.42-10.32-2.68-15.54-3.78-10.45-2.2-21.02-3.77-31.65-4.71-2-.18-2.09,2.93-.09,3.11h0Z"></path><path class="cls-2" d="m92.47,59.97c7.57-9.83,17.14-18.01,28.02-23.98.88-.48.16-1.86-.72-1.38-11.13,6.1-20.87,14.47-28.61,24.53-.61.79.71,1.61,1.32.83h0Z"></path><path class="cls-2" d="m95.35,67.16c8.4-9.34,18.25-17.27,29.17-23.48.87-.49.15-1.87-.72-1.38-11.03,6.27-21.01,14.28-29.5,23.71-.67.74.38,1.89,1.05,1.15h0Z"></path><path class="cls-2" d="m99.76,74.5c7.65-8.71,16.36-16.45,25.93-22.99.82-.56.1-1.94-.72-1.38-9.69,6.61-18.52,14.4-26.26,23.22-.65.75.39,1.9,1.05,1.15h0Z"></path><path class="cls-2" d="m105.26,84.53c6.98-9.34,15.61-17.39,25.42-23.69.84-.54.12-1.92-.72-1.38-10.06,6.46-18.87,14.67-26.02,24.24-.6.8.72,1.62,1.32.83h0Z"></path><path class="cls-2" d="m111.39,92.39c7.54-8.1,15.91-15.39,24.99-21.71.81-.57.1-1.95-.72-1.38-9.2,6.4-17.69,13.74-25.32,21.94-.68.73.37,1.88,1.05,1.15h0Z"></path><path class="cls-2" d="m116.59,102.36c7.78-7.83,16.15-15.05,25.05-21.59.81-.59-.25-1.73-1.05-1.15-8.9,6.54-17.27,13.75-25.05,21.59-.7.71.35,1.86,1.05,1.15h0Z"></path><path class="cls-2" d="m40.72,66.06c12.6-4.02,26.08-4.44,38.9-1.17.97.25,1.42-1.24.44-1.49-13.07-3.33-26.84-2.95-39.7,1.14-.95.3-.61,1.82.35,1.52h0Z"></path><path class="cls-2" d="m46.05,77.34c11.82-4.91,24.72-6.64,37.41-5.06.99.12,1.04-1.43.05-1.56-12.97-1.61-26.12.22-38.18,5.24-.93.39-.2,1.76.72,1.38h0Z"></path><path class="cls-2" d="m51.16,89.38c11.43-6.16,24.56-8.48,37.42-6.65.99.14,1.03-1.42.05-1.56-13.1-1.86-26.54.55-38.19,6.83-.88.48-.16,1.85.72,1.38h0Z"></path><path class="cls-2" d="m59.01,99.34c11.46-3.69,23.59-7.51,35.72-5.03.97.2,1.43-1.29.44-1.49-12.43-2.55-24.76,1.21-36.51,5-.95.31-.61,1.82.35,1.52h0Z"></path><path class="cls-2" d="m61.02,110.94c11.75-5.73,24.8-8.28,37.85-7.42,1,.07,1.05-1.49.05-1.56-13.31-.88-26.63,1.75-38.62,7.6-.9.44-.18,1.82.72,1.38h0Z"></path><path class="cls-2" d="m152.88,60.68c-2.09.2-4.1.83-5.89,1.92-.36.22-.53.66-.33,1.05.19.35.69.55,1.05.33,1.56-.95,3.31-1.57,5.12-1.75.42-.04.79-.3.8-.75.01-.38-.33-.84-.75-.8h0Z"></path><path class="cls-2" d="m156,66.98c-2.09.71-4.18,1.42-6.27,2.13-.4.13-.68.49-.58.93.09.38.53.72.93.58,2.09-.71,4.18-1.42,6.27-2.13.4-.13.68-.49.58-.93-.09-.38-.53-.72-.93-.58h0Z"></path><path class="cls-2" d="m152.29,77.25c1.58-.52,3.16-1.04,4.74-1.57.39-.13.7-.5.58-.93-.1-.38-.52-.72-.93-.58-1.58.52-3.16,1.04-4.74,1.57-.39.13-.7.5-.58.93.1.38.52.72.93.58h0Z"></path><path class="cls-2" d="m155.59,84.58c1.47-.49,2.94-.97,4.41-1.46.39-.13.7-.5.58-.93-.1-.38-.52-.72-.93-.58-1.47.49-2.94.97-4.41,1.46-.39.13-.7.5-.58.93.1.38.52.72.93.58h0Z"></path><path class="cls-2" d="m131.16,108.75c8.89-5.34,18.64-9.04,28.84-10.93.99-.18.63-1.7-.35-1.52-10.32,1.92-20.22,5.67-29.21,11.07-.86.51-.14,1.89.72,1.38h0Z"></path></g></g></g></g></svg>