<svg xmlns="http://www.w3.org/2000/svg" id="Layer_2" data-name="Layer 2" viewBox="0 0 167.8 129.14"><defs><style>      .cls-1, .cls-2 {        fill: #009245;      }      .cls-2 {        fill-rule: evenodd;      }    </style></defs><g id="Layer_1-2" data-name="Layer 1"><path class="cls-2" d="m155.01,4.72c-.54.99-3.92,10.67-3.81,11.43.6.66,5.65,1.57,6.75,1.81,3.08.68,2.6,1.33,3.61,1.74.87-1.86,1.9-5.2,2.63-7.38,1.03-3.09,2.02-4.62-.98-5.74-1.59-.59-7.46-1.8-8.2-1.86"></path><path class="cls-1" d="m111.96,86.67c-.75,3.83-.83,7.8-.22,11.65.62,3.86,2.02,7.58,4.05,10.91,2.11,3.27,4.83,6.2,8.19,8.21,1.62,1.09,3.46,1.77,5.32,2.37,1.87.58,3.79.98,5.74,1.19,1.95.23,3.91.16,5.85-.06l1.45-.22c.48-.07.95-.23,1.42-.33.96-.2,1.86-.58,2.79-.89.9-.37,1.78-.81,2.65-1.25.84-.5,1.69-.99,2.47-1.58,1.58-1.14,3.04-2.47,4.29-3.98,5.11-5.98,7.21-14.26,6.06-22.03l.49-.07c1.21,7.89-.87,16.35-6.07,22.5-1.27,1.55-2.76,2.93-4.38,4.11-.8.62-1.66,1.12-2.53,1.64-.89.46-1.79.92-2.72,1.3-.95.33-1.88.73-2.86.94-.49.11-.97.27-1.47.35l-1.49.24c-1.99.23-4.02.31-6.02.09-2-.2-3.97-.6-5.89-1.19-1.9-.6-3.83-1.3-5.52-2.43-3.48-2.06-6.31-5.08-8.5-8.44-2.11-3.42-3.58-7.25-4.23-11.22-.65-3.97-.58-8.05.17-12l.98.19Z"></path><path class="cls-1" d="m111.65,97.62c.57,4.04.24,8.16-.87,12.05-.55,1.95-1.34,3.83-2.34,5.6-.96,1.79-2.2,3.41-3.55,4.91-.7.73-1.39,1.47-2.18,2.11-.74.69-1.58,1.27-2.4,1.86-1.69,1.11-3.47,2.08-5.36,2.8-3.77,1.42-7.81,2.13-11.85,1.93l.03-.51c3.94.16,7.92-.58,11.59-2.01,1.84-.72,3.57-1.69,5.2-2.79.79-.59,1.6-1.15,2.31-1.83.76-.62,1.42-1.36,2.1-2.07,1.3-1.47,2.48-3.06,3.39-4.8.95-1.72,1.7-3.55,2.21-5.44,1.04-3.78,1.32-7.8.73-11.65l.99-.16Z"></path><g><path class="cls-1" d="m112.47,41.37c-1.94,1.56-3.43,2.94-4.46,4.16-1.04,1.22-1.42,2.59-1.15,4.11.29,1.66,1.74,2.19,4.35,1.59,1.83-.54,3.64-1.64,5.41-3.31,1.78-1.67,3.42-3.99,4.93-6.97,1.51-2.98,2.85-6.64,4.01-10.99,1.16-4.34,2.08-9.47,2.75-15.37.33-2.2.21-3.25-.34-3.15-.56.1-1.24,2.08-2.06,5.93-.76,3.78-1.67,7.15-2.71,10.12-1.06,2.9-2.63,5.53-4.71,7.9-2.08,2.37-4.09,4.36-6.02,5.99Z"></path><path class="cls-1" d="m136.57,37.21c-1.18,1.42-2.33,2.8-3.45,4.14-1.12,1.34-2.28,2.69-3.46,4.04-1.39,1.82-2.04,3.14-1.92,3.98.11.84.76,1.15,1.94.94.76-.13,1.73-.52,2.9-1.15,2.83-1.36,5.16-3.34,6.99-5.94,1.83-2.61,3.26-5.39,4.31-8.36,1.05-2.97,1.78-5.9,2.2-8.8.42-2.89.61-5.26.57-7.12-.67-7.88-3.76-12.62-9.25-14.22-.54-.19-2.21,4.89-5.03,15.24,1.15.44,2.23,1,3.24,1.68,1.01.68,1.91,1.4,2.68,2.15.77.76,1.41,1.54,1.91,2.34.5.81.8,1.52.91,2.14.26,1.1.17,2.18-.28,3.26-.48.94-1.9,2.83-4.25,5.67Z"></path><path class="cls-1" d="m167.6,52.98c-.18-.83-.5-1.5-.95-2.03-.45-.53-.97-1.02-1.55-1.49-.76-.65-1.9-.98-3.44-1-1.54-.01-3.14,0-4.81.04-1.67.04-3.26-.07-4.77-.34-1.2-.21-2.16-.72-2.89-1.49,1.22-1.88,2.62-3.59,4.25-5.12,2.32-2.19,4.79-4.41,7.39-6.66,1.91-1.69,3.12-3.15,3.62-4.39,1.22-2.79,1.74-4.73,1.54-5.84-.1-.55-.38-.81-.83-.76-.46.04-.83.24-1.13.57-9.28,6.92-16.07,15.36-20.38,25.33-3.75,7.87-5.3,13.68-4.64,17.42.34,1.94.87,3.1,1.57,3.47.09.49-.02,1.2-.32,2.14-.3.95-1.33,2.5-3.09,4.67-.64.83-1.39,1.73-2.26,2.7-.86.97-1.79,1.92-2.77,2.84-.98.92-1.99,1.8-3.02,2.62-1.03.83-2.04,1.47-3.03,1.93.88-1.08,1.83-2.57,2.85-4.46,1.02-1.89,1.96-3.88,2.8-5.96.85-2.08,1.51-4.1,1.98-6.08.47-1.97.59-3.65.34-5.04-.2-1.11-.8-1.82-1.82-2.14-1.14-.36-2.27-.35-2.98-.22-4.12.73-8.54,4.94-8.54,4.94-6.54,5.62-9.11,14.22-9.46,15.87-.58-.04-1.55-.08-2.89-.2-2.06-.19-3.48.11-4.29,1.18-.81,1.07-1.53,2.48-2.15,4.23-.14.41-.28.78-.42,1.15-.26.62-.66,1.47-1.32,2.38-.55.76-2.73,3.78-5.15,3.55-1.03-.09-1.71-.73-2.02-.99-5.18-4.28-12.14-.31-16.39,2.46-9.98,6.51-16.6,11.15-28.93,15.18-7.33,2.39-13.33,3.95-22.12,3.28-21.66-1.64-28.14-17.52-14.8-34.78.71-.92.86-.92.86-1.6l-.41-.34c-1.26.92-1.77,1.26-2.95,2.37-1.55,1.92-4.06,6.58-4.93,8.59-4.89,11.33-5.29,24.64,4.41,32.32,12.47,9.88,33.15,5.14,45.97-1.32,13.39-6.76,24.25-18.5,32.79-18.06,3.94.2,6.04,4.36,8.34,4.09.46-.05,1.01-.17,1.82-.71,4.48-2.98,5.71-11.72,8.15-11.72.19,0,.5.05.88.31,0,0,0,0,0,0,.24.15.51.32.84.53,1.24.57,2.8.69,4.67.36,2.21-.39,4.58-.98,7.08-1.78,2.5-.8,4.95-1.78,7.35-2.96,2.4-1.17,4.7-2.51,6.9-4,2.2-1.49,4.07-3.13,5.62-4.9,1.77-2.1,3.44-4.09,5-5.97,1.56-1.88,3.04-3.53,4.43-4.96s2.71-2.55,3.96-3.37c1.25-.83,2.4-1.3,3.45-1.41,1.6-.21,3.01-.42,4.23-.64,1.21-.21,2.31-.37,3.29-.47,1.89-.19,3.34-2.09,4.35-5.69.54-1.81.84-3.32.91-4.55.07-1.23.01-2.25-.17-3.08Zm-43.34,26.97c-.97.78-1.78,1.33-2.44,1.66-2.91,1.73-6.6,2.7-9.06,2.92,3.89-11.61,11.27-13.68,12.29-13.77.64-.06,1.28-.01,1.28-.01.58.04,1.13.14,1.66.3.53.16,1.01.36,1.44.6.44.25.68.54.74.89.1.56-.17,1.28-.79,2.17-.63.9-1.4,1.8-2.31,2.71-.91.91-1.85,1.76-2.82,2.53Zm26.24-17.96c-1.36,1.17-2.78,1.88-4.23,2.14-2.49.44-3.92-.38-4.29-2.46-.09-.48,0-1.07.28-1.76s.63-1.36,1.09-2.01c.46-.65.96-1.22,1.52-1.71.56-.49,1.11-.78,1.67-.88,1.04-.18,2.21,0,3.52.56s2.07,1.4,2.27,2.54-.41,2.34-1.83,3.59Zm8.99-1.26c-3.39.6-5.22.13-5.49-1.39.6-2.68,1.42-4.11,2.45-4.29.69-.12,1.47-.17,2.33-.14.86.03,1.68.13,2.47.32.78.18,1.43.44,1.96.78.52.34.83.75.91,1.23.31,1.73-1.24,2.9-4.63,3.49Z"></path><path class="cls-1" d="m99.94,58.14c-.54.99-3.92,10.67-3.81,11.43.6.66,5.65,1.57,6.75,1.81,3.08.68,2.6,1.33,3.61,1.74.87-1.86,1.9-5.2,2.63-7.38,1.03-3.09,2.02-4.62-.98-5.74-1.59-.59-7.46-1.8-8.2-1.86Z"></path><path class="cls-1" d="m34.89,83.77c-.54.99-3.92,10.67-3.81,11.43.6.66,5.65,1.57,6.75,1.81,3.08.68,2.6,1.33,3.61,1.74.87-1.86,1.9-5.2,2.63-7.37,1.03-3.09,2.02-4.62-.98-5.74-1.59-.59-7.46-1.8-8.2-1.86Z"></path><path class="cls-1" d="m51.48,78.11c-.54.99-3.92,10.67-3.81,11.43.6.66,5.65,1.57,6.75,1.81,3.08.68,2.6,1.33,3.61,1.74.87-1.86,1.9-5.2,2.63-7.38,1.03-3.09,2.02-4.62-.98-5.74-1.59-.59-7.46-1.8-8.2-1.86Z"></path><path class="cls-1" d="m32.67,30.08c1.03-3.09,2.02-4.62-.98-5.74-1.59-.59-7.46-1.8-8.2-1.86-.54.99-3.92,10.67-3.81,11.43.6.66,5.65,1.57,6.75,1.81,3.08.68,2.6,1.33,3.61,1.74.87-1.86,1.9-5.2,2.63-7.38Z"></path><path class="cls-1" d="m49.09,25.27c1.03-3.09,2.02-4.62-.98-5.74-1.59-.59-7.46-1.8-8.2-1.86-.54.99-3.92,10.67-3.81,11.43.6.66,5.65,1.57,6.75,1.81,3.08.68,2.6,1.33,3.61,1.74.87-1.86,1.9-5.2,2.63-7.37Z"></path><path class="cls-1" d="m1.18,56.98c.02.08.04.15.06.23h0c1.22,3.35,3.28,6.39,6.38,8.84,12.47,9.88,33.15,5.14,45.97-1.32,13.39-6.76,24.25-18.5,32.79-18.06,3.94.2,4.89,3.7,8.13,3.94.92.05,1.61-.07,2.29-.54,3.59-2.45,5.07-8.41,8.24-13.84,1.22-1.82,2.38-3.47,3.45-4.94,2.24-3.07,4.14-5.46,5.7-7.16.6-.68,1.2-1.3,1.81-1.87.61-.57,1.22-1.16,1.83-1.77.86-.79,1.52-1.91,1.98-3.35.45-1.51.62-2.57.51-3.2-.1-.55-.46-.78-1.08-.67-.07.01-.47.17-1.2.48-.73.31-1.86.81-3.38,1.5-.61.18-2.59-.11-5.94-.88-1.81-.54-3.44-.88-4.89-1.01-1.45-.14-2.7-.11-3.74.07-1.73.31-3.25,1-4.56,2.09-2.79,2.42-5.18,6.45-7.19,12.08-.38,1.07-.56,1.67-.54,1.81.01.07.05.1.12.08.28-.05.82-.79,1.64-2.22.64-.83,1.19-1.53,1.66-2.11.47-.58.86-1.01,1.17-1.28,1.51-1.55,3.31-2.51,5.38-2.88,2.63-.46,6.17.16,10.61,1.88-1.42,2.89-2.73,5.55-4.25,7.77-.76,1.1-1.9,2.9-2.59,3.75h0c-.55.76-4.02,5.4-6.44,5.18-1.03-.09-1.94-.77-2.24-1.02-5.18-4.28-12.14-.31-16.39,2.46-9.98,6.51-16.6,11.15-28.93,15.18-7.33,2.39-13.33,3.95-22.12,3.28-10.41-.79-17.3-4.87-20.18-10.81-2.75-6.8,2.98-16.98,8.63-23.14,8.73-9.52,26.53-21.9,38.93-13.78,9.94,6.51,1.26,19.36-5.1,24.81-9.87,8.48-27.2,11.7-38.86-1.22l-1.05,2.43c7.8,10.1,20.84,9.51,29.62,6.59,20.19-6.7,30.55-30.46,12.06-36.05-10.27-3.1-22.12,2.88-30.24,9.56-6.68,5.49-7.92,7.81-12.73,14-.06-.13-.09-.26-.15-.39-.33-.83-.55-1.71-.65-2.62C4.27,15.64,26.89-4.25,57.18,2.74c10.28,2.38,14.94,5.49,17.72,7.5-1.03,2.6-3.55,9.94-3.45,10.59.6.66,5.65,1.57,6.75,1.81,3.08.68,2.6,1.33,3.61,1.74.87-1.86,1.9-5.2,2.63-7.38,1.03-3.09,2.02-4.62-.98-5.74-1.59-.59-7.46-1.8-8.2-1.86-.01.02-.03.07-.04.09C69.65,4.98,59.18,1.45,53.21.61c-14.84-2.08-30.75.96-41.66,11.67-5.01,4.91-8.13,11-7.91,15.94.08,1.77.22,2.97.39,3.83.28,1.41.63,1.86.85,2.33-3.76,5.33-6.11,14.73-3.7,22.61Z"></path></g><path class="cls-1" d="m125.2,118.21c.06-.13,1.27.62,3.01.82.51.06,3.19.36,4.76-1.3.48-.5.69-1.02.76-1.21.51-1.35.03-2.62-.2-3.1-.48-1.01-1.24-1.57-1.6-1.8.24.34,1.43,2.1.87,3.84-.06.18-.19.58-.53.97-.88,1.01-2.27.98-2.6.97-.33,0-1.82-.04-2.57-1.1-.11-.15-.41-.62-.4-1.97.01-2.69,1.05-3.65.53-4.97-.16-.42-.53-1.01-1.5-1.53.6-.36,2.81-1.6,5.57-1.03,2.84.58,5.15,2.83,6.02,5.82.64-.9,2.02-2.56,4.37-3.6.82-.36,2.45-1.06,4.64-.87,2.41.21,4.04,1.37,4.67,1.87-.33.04-.82.12-1.4.3-1.64.52-1.85,1.21-3.27,1.73-.53.19-1.88.7-3.3.17-.79-.29-1.31-.8-1.6-1.13-.59.31-1.37.79-2.1,1.57-1.56,1.64-1.97,3.54-2.1,4.37-.11.35-.82,2.49-2.85,3.29-.89.35-1.82.27-2.9.2-1.16-.08-2.05-.32-2.56-.47-1.05-.3-1.8-.64-2.18-.83-.68-.34-1.58-.87-1.53-.98Z"></path><path class="cls-1" d="m89.66,127.94c-.01-.23-2.29.26-4.92-1.07-.64-.32-2.43-1.23-3.73-3.14-.8-1.17-.84-1.88-1.9-2.84-.8-.72-1.6-1.07-2.24-1.34-2.18-.92-3.02-.37-4.05-1.23-1.28-1.06-1.16-2.85-1.39-2.82-.29.03-.75,2.86.21,5.63,1.64,4.75,6.58,6.74,7.49,7.09,5.38,2.04,10.54.06,10.53-.29Z"></path><path class="cls-1" d="m159.38,93.14c-.79-.12-3.2-.59-4.69-2.64-1.78-2.46-1.11-5.66-1-6.19.35-1.69,1-2.13.86-3.35-.19-1.64-1.58-2.83-2.67-3.56,1.15-.27,2.91-.54,5.01-.24,1.24.17,6.86.96,8.96,5.57,1.39,3.04.48,6.08.11,7.13-.18-1.98-1.53-3.56-3.26-3.92-1.26-.26-2.63.14-3.49,1.03-1.39,1.43-1.46,4.1.17,6.19Z"></path><circle class="cls-1" cx="161.97" cy="89.77" r="1.94"></circle><path class="cls-1" d="m117.6,127.4c-.04.08-.43-.08-1.11-.18-.86-.13-1.07,0-1.77-.1-.46-.07-.99-.15-1.44-.47-.94-.67-1.44-2.29-.95-3.39.27-.62.79-.95.74-1.64-.04-.44-.27-.58-.16-.77.24-.44,1.8-.22,2.93.46.23.14.54.33.84.68.63.73.71,1.55.75,1.92.11,1.21-.4,2.14-.61,2.48-.04-.33-.15-.78-.46-1.21-.33-.45-1.03-1.07-1.58-.87-.05.02-.24.09-.34.28-.19.37.12.95.45,1.28.49.49.88.32,1.88.9.38.22.88.56.83.66Z"></path><path class="cls-1" d="m5.44,72.71c.09-.04.22.42.6,1.08.47.82.72.88,1.11,1.55.25.44.54.95.58,1.59.09,1.34-.88,3.12-2.09,3.65-.68.3-1.29.14-1.82.77-.28.33-.26.73-.51.79-.31.07-.67-.43-.84-.66-.96-1.33-.82-2.86-.81-2.98.02-.23.1-.8.41-1.45.18-.37.41-.72.79-1.14.87-.97,1.9-1.68,2.63-2.13-.04.25-.07.5-.11.75-.27.21-.67.61-.85,1.22-.29.94.12,1.83.3,1.93.03.01.23.13.45.05.43-.15.68-.9.72-1.45.07-.82-.33-1-.54-2.32-.08-.5-.14-1.2-.03-1.25Z"></path><path class="cls-1" d="m94.31,83.37c-2.97,2.08-6.69,3.25-10.35,2.84-3.64-.37-7.08-2.06-9.67-4.61-2.6-2.53-4.28-6.05-4.43-9.69-.15-3.65,1.18-7.25,3.42-10.06.09-.12.27-.14.39-.04.12.09.14.27.05.38-2.13,2.75-3.32,6.23-3.13,9.69.17,3.45,1.79,6.76,4.28,9.14,2.47,2.4,5.77,3.98,9.19,4.29,3.42.35,6.89-.77,9.68-2.76.22-.16.54-.11.7.12.16.22.11.54-.12.7h0Z"></path><path class="cls-1" d="m33.35,118.23c-3.03.08-6.08-.72-8.64-2.32-2.57-1.58-4.65-3.96-5.77-6.76-1.15-2.78-1.32-5.92-.54-8.8.75-2.88,2.4-5.51,4.62-7.46l.13.14c-2.15,1.98-3.7,4.59-4.37,7.41-.69,2.82-.45,5.84.71,8.47,1.13,2.65,3.17,4.86,5.63,6.31,2.46,1.46,5.35,2.14,8.19,2l.04,1Z"></path><path class="cls-1" d="m19.33,70.68c-2.65-.27-5.36-.01-7.91.78-2.56.79-4.96,2.1-7.02,3.85l-.32-.37c2.05-1.85,4.48-3.29,7.11-4.19,2.63-.91,5.45-1.27,8.23-1.07l-.09,1Z"></path><path class="cls-1" d="m45.49,57.26c-3.11,1.14-6.68,1.09-9.69-.33-3.03-1.39-5.36-4.04-6.63-7.09l.22-.09c1.25,2.98,3.55,5.59,6.51,6.94,2.95,1.38,6.44,1.43,9.48.3l.1.27Z"></path><path class="cls-1" d="m71.5,64.69c1.91-1.89,3.69-2.57,4.89-2.85,1-.23,1.6-.19,5.3-.12,3.15.06,4.73.09,4.95.06,1.97-.28,4.63-1.81,7.41-7.65-1.45,1.65-2.85,2.34-3.84,2.67-2.28.75-3.67,0-8.53.29-1.52.09-2.28.13-2.84.27-1.64.4-4.64,1.74-7.34,7.33Z"></path><path class="cls-1" d="m81.29,85.66s-1.75-.87-4.14-.69c-1.36.1-2.33.51-2.54.6-1.32.56-2.12,1.36-3.51,2.72-1.42,1.4-1.41,1.7-2.28,2.17-1.06.58-1.6.41-2.46.98-.96.63-1.46,1.62-1.75,2.48-.25-.97-.63-3.07.31-5.23,1.88-4.33,7.35-4.93,8.15-5.01,4.6-.51,8.22,1.96,8.21,1.99Z"></path><path class="cls-1" d="m129.52,94.46s-.14.96.32,2.05c.26.62.6,1.02.68,1.1.47.53.97.79,1.83,1.23.88.45,1.02.4,1.38.73.44.41.44.69.84,1,.45.35.99.44,1.44.44-.42.27-1.35.77-2.51.67-2.33-.21-3.46-2.69-3.63-3.06-.95-2.09-.36-4.17-.34-4.17Z"></path><path class="cls-1" d="m63.96,74.51c-.05,0-.1-.04-.12-.09-.6-2.03-.72-4.19-.35-6.25.28-1.58.84-3.09,1.65-4.48.04-.06.11-.08.17-.04.06.03.08.11.04.17-.8,1.37-1.35,2.85-1.62,4.4-.36,2.02-.24,4.14.35,6.13.02.07-.02.14-.08.16-.01,0-.02,0-.04,0Z"></path><path class="cls-1" d="m80.14,79.05c-2.28,0-4.53-1.59-5.54-3.55-1.35-2.61-.24-5.32,0-5.83.03-.06.11-.09.17-.06.06.03.09.1.06.17-.23.5-1.3,3.11,0,5.61,1.22,2.37,4.31,4.18,6.97,3.1.39-.16.75-.37,1.08-.64-1.77-1-2.5-2.24-2.79-3.18-.23-.74-.64-2.59.5-3.75.57-.58,1.59-1.04,2.58-.73,1.61.49,1.91,2.71,1.96,3.14.17,1.63-.57,3.35-1.8,4.47.31.16.65.31,1.02.45,2.35.89,4.54.38,5.64,0,.07-.02.14.01.16.08.02.06-.01.14-.08.16-1.13.39-3.38.92-5.81,0-.42-.16-.79-.33-1.13-.51-.37.31-.79.56-1.23.74-.57.23-1.16.34-1.74.34Zm2.38-8.71c-.7,0-1.36.35-1.76.75-1.05,1.06-.65,2.8-.44,3.5.29.92,1,2.12,2.76,3.09,1.21-1.06,1.95-2.74,1.79-4.32-.04-.41-.33-2.49-1.78-2.93-.19-.06-.38-.08-.57-.08Z"></path><path class="cls-1" d="m83.51,121.67c-.06,0-.11-.04-.12-.11-.01-.07.04-.13.1-.14.9-.14,4.28-.78,6.88-2.68-1.64-.4-3.01-1.1-3.91-2.06-.96-1.02-1.27-2.04-1.36-2.72-.25-1.91.67-4.36,2.85-5.12,2.31-.81,4.67.66,5.53,2.48.78,1.66.16,3.35-.07,3.99-.5,1.37-1.4,2.45-2.47,3.31,4.3.88,10.24-.19,14.46-3.72,3.85-3.22,5.26-7.6,5.76-10.71.01-.07.07-.12.14-.1.07.01.12.08.1.14-.51,3.15-1.93,7.59-5.84,10.86-4.33,3.62-10.47,4.68-14.86,3.72-2.68,2.03-6.23,2.7-7.16,2.85,0,0-.01,0-.02,0Zm5.77-12.8c-.41,0-.83.07-1.25.21-2.31.8-2.87,3.4-2.68,4.85.08.64.37,1.61,1.29,2.58.91.97,2.31,1.66,3.98,2.04,1.1-.85,2.04-1.94,2.55-3.32.22-.61.82-2.23.08-3.8-.66-1.39-2.24-2.56-3.97-2.56Z"></path><path class="cls-1" d="m122.92,110.37s-.06,0-.08-.03c-1.54-1.33-2.86-2.89-3.92-4.62-1.11-1.81-1.91-3.77-2.39-5.84-.02-.07.03-.13.09-.15.07-.01.13.03.15.09.47,2.04,1.27,3.98,2.36,5.76,1.05,1.71,2.35,3.25,3.87,4.57.05.05.06.12.01.18-.03.03-.06.04-.09.04Z"></path><path class="cls-1" d="m149.62,118.14s-.08-.02-.1-.06c-.04-.06-.02-.14.04-.17,1.48-.96,8.87-6.2,9.06-14.68.12-4.96-1.46-8.81-4.44-10.83-2.85-1.93-7.56-2.6-10.22-.32-.41.35-1.77,1.67-1.93,3.7-.02.29-.03.65,0,1.05.89-2.12,2.2-3.51,3.74-3.79,1.87-.34,4.46.89,5.01,2.97.51,1.94-.79,4.21-2.84,4.98-1.85.69-3.66-.11-4.64-1-.75-.68-1.15-1.5-1.35-2.26-.62,1.83-.96,4.1-.91,6.6,0,.07-.05.13-.12.13h0c-.07,0-.12-.05-.12-.12-.05-2.69.34-5.13,1.06-7.05-.11-.64-.1-1.19-.07-1.53.17-2.07,1.47-3.39,2.02-3.87,2.74-2.36,7.6-1.68,10.52.31,3.05,2.07,4.67,6,4.55,11.05-.2,8.6-7.68,13.9-9.18,14.88-.02.01-.04.02-.07.02Zm-7.52-20.84c.16.82.53,1.74,1.37,2.5.93.84,2.64,1.6,4.39.95,1.94-.72,3.17-2.86,2.69-4.68-.56-2.12-3.18-3.07-4.72-2.79-1.56.28-2.87,1.78-3.72,4.03Z"></path><path class="cls-1" d="m109.82,55.48c-.07,0-.12-.05-.12-.12,0-.07.05-.13.12-.13,1.92-.09,3.77-.56,5.49-1.39,1.95-.95,3.69-2.36,5.02-4.09.04-.06.12-.07.17-.02.05.04.07.12.02.18-1.35,1.76-3.12,3.2-5.11,4.16-1.75.85-3.63,1.33-5.59,1.42h0Z"></path><path class="cls-1" d="m117.11,67.21s-.06,0-.08-.03c-.05-.04-.06-.12-.02-.18,1.96-2.35,5.33-5.45,10.22-6.87,1.22-.35,2.48-.59,3.76-.71.07-.01.13.04.14.11s-.04.13-.11.14c-1.26.11-2.51.35-3.71.7-4.83,1.41-8.16,4.47-10.1,6.79-.02.03-.06.04-.1.04Z"></path><path class="cls-1" d="m36.28,112.83c-.06,0-.11-.04-.12-.1-.01-.07.03-.13.1-.15,5.82-1.17,11.55-2.9,17.03-5.13,3.25-1.33,6.46-2.85,9.56-4.54.06-.03.14-.01.17.05.03.06.01.14-.05.17-3.1,1.69-6.33,3.23-9.58,4.56-5.49,2.24-11.24,3.97-17.08,5.15,0,0-.02,0-.02,0Z"></path><path class="cls-1" d="m59.61,39.89s-.05,0-.08-.02c-.34-.26-.66-.54-.96-.84-2.73-2.82-3.25-7.61-1.33-12.21.03-.06.1-.09.16-.07.06.03.09.1.07.16-1.88,4.5-1.38,9.19,1.28,11.94.28.29.59.57.93.81.05.04.07.12.02.18-.02.03-.06.05-.1.05Z"></path><path class="cls-1" d="m46.44,83.86s-.07-.01-.09-.04c-.88-1.01-2.39-2.38-4.62-3.24-3.08-1.18-5.88-.72-7.28-.35-.07.02-.13-.02-.15-.09-.02-.07.02-.13.09-.15,1.43-.38,4.29-.85,7.44.35,2.28.87,3.82,2.28,4.72,3.31.05.05.04.13-.01.18-.02.02-.05.03-.08.03Z"></path><path class="cls-1" d="m44.57,82.13s-.08-.02-.1-.05c-.66-.87-1.46-2.29-1.54-4.18,0-.06-.02-.62.11-1.42-.7-.39-1.36-.9-1.95-1.54-.05-.05-.04-.13,0-.18.05-.05.13-.04.18,0,.55.59,1.16,1.08,1.81,1.45.25-1.22.85-2.88,2.33-4.15,1.35-1.16,3.78-2.36,4.95-1.4.98.8.68,2.76.15,3.89-.77,1.67-2.35,2.32-3,2.52-1.34.42-2.86.23-4.26-.48-.12.73-.1,1.23-.1,1.29.08,1.83.86,3.21,1.49,4.04.04.05.03.13-.02.17-.02.02-.05.03-.08.03Zm-1.25-5.79c1.35.71,2.83.9,4.14.5.61-.19,2.11-.81,2.84-2.39.48-1.03.78-2.88-.08-3.59-1.04-.85-3.38.33-4.63,1.4-1.46,1.25-2.04,2.89-2.27,4.08Z"></path><path class="cls-1" d="m24.71,53.6h0c-2.47-.05-6.21-.58-9.99-2.82-2.12-1.25-3.98-2.87-5.52-4.82-.04-.05-.03-.13.02-.18.05-.04.13-.03.18.02,1.53,1.92,3.37,3.52,5.46,4.76,3.73,2.21,7.43,2.73,9.87,2.79.07,0,.12.06.12.13,0,.07-.06.12-.12.12Z"></path><path class="cls-1" d="m56.76,36.35c.36.93.73,2.3.58,3.93-.08.98-.18,2.08-.97,2.98-.84.95-1.84.96-1.81,1.28.05.48,2.27,1.28,3.8.23,1.05-.72,1.55-2.15,1.23-3.62.41.18,1.08.42,1.93.47.25.02,3.45.17,4.32-1.81.42-.95.11-1.96-.12-2.51-1.07.23-1.47.65-1.64.99-.43.85.23,1.89-.31,2.34-.23.19-.54.17-.66.16-.71-.06-.91-.76-1.65-1.27-.69-.47-1.12-.27-1.85-.53-.7-.24-1.61-.87-2.39-2.67-.15,0-.3.01-.45.02Z"></path><path class="cls-1" d="m17.82,105.44c-.16-1.31-.43-4.33.16-7.11.23-1.07.52-1.84,1.03-2.57.61-.87,1.33-1.41,1.81-1.71-.16-1.3.06-2.3.23-2.88.1-.33.74-2.37,2.65-3.74.96-.69,1.39-.6,2.26-1.4.78-.72,1.23-1.53,1.48-2.1.22.68.71,2.53,0,4.67-1.01,3.07-3.68,4.34-4.15,4.56,0,.48-.07,1.28-.45,2.14-.84,1.92-2.4,2.27-3.48,4.26-.5.93-.66,1.81-.73,2.39l-.82,3.49Z"></path><path class="cls-1" d="m95.09,36.94c-.56,0-1.1-.33-1.79-.74-.79-.48-1.78-1.07-3.27-1.52-1.19-.36-2.22-.38-2.65-.38-.32,0-1.13,0-2.16.17-1.71.29-3.58.97-5.43,1.97-.06.03-.14.01-.17-.05-.03-.06-.01-.14.05-.17,1.87-1.02,3.78-1.71,5.51-2,1.05-.18,1.88-.18,2.18-.18.47,0,1.51.03,2.74.39,1.52.45,2.52,1.06,3.33,1.54.87.52,1.44.87,2.08.63.25-.09.89-.42,1.52-.98.22-.19.42-.4.6-.62.04-.05.12-.06.18-.02s.06.12.02.18c-.19.23-.4.45-.63.65-.66.58-1.33.93-1.6,1.02-.17.07-.34.09-.51.09Z"></path><path class="cls-1" d="m122.22,116.24c1.32,1.02,2.41,2.36,2.99,3.95.29.79.41,1.66.4,2.48,0,.84-.18,1.7-.57,2.47-.76,1.54-2.27,2.62-3.92,2.95-1.67.32-3.36-.12-4.77-.96l.28-.45c1.3.76,2.9,1.14,4.37.83,1.47-.31,2.8-1.3,3.44-2.65.64-1.35.59-3,.08-4.41-.53-1.42-1.56-2.65-2.78-3.57l.47-.64Z"></path><path class="cls-1" d="m129.47,96.39c-.07,0-.12-.05-.12-.12-.02-.48,0-.97.04-1.46.2-2.14.98-3.81,1.59-4.84.7-1.16,1.59-2.18,2.65-3.03.05-.04.13-.03.18.02.04.05.03.13-.02.18-1.04.83-1.91,1.83-2.59,2.96-.6,1-1.37,2.64-1.56,4.73-.04.48-.06.96-.04,1.43,0,.07-.05.13-.12.13h0Z"></path></g></svg>