<?xml version="1.0" encoding="UTF-8"?>
<svg id="Layer_2" data-name="Layer 2" xmlns="http://www.w3.org/2000/svg" viewBox="0 0 200 200">
  <defs>
    <style>
      .cls-1 {
        fill: #fff;
      }

      .cls-2 {
        fill: #473204;
      }

      .cls-3 {
        fill: #76c04e;
      }

      .cls-4 {
        fill: #009355;
      }
    </style>
  </defs>
  <g id="Layer_1-2" data-name="Layer 1">
    <circle class="cls-3" cx="100" cy="100" r="100"/>
    <g>
      <g>
        <path class="cls-2" d="m96.47,171.74c-.16,0-.33-.04-.47-.12l-63.25-34.88c-.57-.32-.99-.86-1.13-1.5-.9-3.92-5.49-23.79-7.38-29.59-1.06-3.04-1.17-5.1-.34-6.26.73-1.03,1.93-1.03,2.5-1.03,9.52.25,12.16,12.48,13.16,17.08.11.53.21.96.29,1.28,2.14,8.33,14.11,12.6,19.86,14.66.46.16.88.31,1.26.45,4.69,1.62,6.69,2.04,7.54,2.08-.8-.88-3.35-2.62-4.4-3.33-.35-.24-.66-.45-.9-.62-8.61-6.07-8.23-15-7.91-17.6.06-.47.46-.83.93-.83.15,0,.3.04.43.11,3.61,1.87,29.71,15.44,33.04,17.16.17.09.27.1.3.1.01,0,.06,0,.13-.15.9-1.96-1.45-10.52-2.21-11.84-11.33-1.18-19.87-5.44-25.38-12.67-9.24-12.13-7.22-29.16-6.38-34.09.2-1.17,1.11-2.11,2.27-2.32,3.2-.6,6.3-.91,9.23-.91,14.56,0,21.44,7.37,23.7,9.79.26.27.44.47.55.57l.04.03.04.04c9.94,11.44,6.32,33.93,4.3,43.06-.61,2.75-.67,5.6-.2,8.49.54,3.28.99,7.8,1.21,10.21.09,1.03.14,2.09.14,3.14v28.52c0,.27-.11.52-.3.7-.18.18-.42.27-.68.27h0Z"/>
        <path class="cls-1" d="m67.66,67.52c16.18,0,22.77,9.34,23.88,10.22,9.63,11.08,6.33,32.74,4.16,42.54-.63,2.87-.68,5.82-.2,8.72.54,3.26.99,7.79,1.21,10.17.09,1.03.14,2.05.14,3.09v28.52c0,.22-.18.38-.38.38-.06,0-.12-.01-.18-.05l-63.25-34.88c-.43-.23-.73-.63-.84-1.1-.93-4.07-5.49-23.82-7.39-29.64-2.26-6.5.53-6.5,1.59-6.5,10.08.27,12.07,14.86,12.87,17.91,2.39,9.29,16.05,13.53,21.49,15.52,4.48,1.54,6.85,2.13,7.9,2.13,2.64,0-3.21-3.71-5.11-5.04-8.45-5.96-7.93-14.88-7.66-17.03.02-.18.17-.3.33-.3.05,0,.1.01.15.04,3.61,1.87,29.71,15.44,33.04,17.16.22.11.41.17.58.17,2.54,0-.9-12.55-1.77-13.17-36.62-3.65-32.79-38.34-31.47-46.09.16-.92.87-1.66,1.79-1.84,3.33-.63,6.36-.9,9.12-.9m0-1.2h0c-2.96,0-6.1.31-9.34.92-1.41.27-2.51,1.4-2.75,2.81-.85,4.99-2.9,22.24,6.49,34.56,5.56,7.3,14.13,11.63,25.47,12.87.92,1.9,2.51,8.66,2.16,10.66-4.11-2.13-27.28-14.17-32.24-16.75l-.53-.27c-.22-.11-.46-.17-.71-.17-.77,0-1.43.58-1.52,1.36-.33,2.68-.73,11.9,8.16,18.16.25.17.56.39.91.63.57.39,1.62,1.1,2.56,1.8-1.15-.3-2.8-.8-5.18-1.62-.36-.13-.79-.28-1.24-.45-5.65-2.02-17.42-6.22-19.48-14.24-.08-.31-.17-.74-.29-1.26-1.02-4.73-3.74-17.29-13.71-17.55h-.04c-.67,0-2.09.02-2.99,1.28-.96,1.35-.88,3.52.27,6.81,1.88,5.76,6.46,25.6,7.36,29.52.18.8.7,1.49,1.43,1.89l63.25,34.88c.23.13.5.2.76.2.87,0,1.58-.71,1.58-1.58v-28.52c0-1.07-.05-2.15-.14-3.2-.22-2.42-.67-6.96-1.22-10.25-.46-2.81-.4-5.59.19-8.26,2.04-9.23,5.69-31.94-4.43-43.59l-.07-.08-.08-.07c-.07-.06-.29-.3-.49-.51-2.31-2.47-9.32-9.98-24.14-9.98h0Z"/>
      </g>
      <g>
        <g>
          <path class="cls-4" d="m91.69,115.4c-.82,0-1.51-.07-2.02-.19-12.05-1.35-20.89-5.76-26.2-13.1-5.59-7.73-7.14-18.47-4.49-31.07.07-.32.11-.53.12-.62v-.51l.51-.05c2.98-.46,5.82-.69,8.45-.69,9.56,0,16.83,3.04,21.61,9.04,10.46,13.14,5.46,35.6,5.24,36.55l-.09.4-.41.06c-.05,0-1.35.18-2.71.18h0Z"/>
          <path class="cls-1" d="m68.06,69.76c36.58,0,26.26,44.86,26.26,44.86,0,0-1.3.18-2.63.18-.67,0-1.35-.04-1.88-.18-41.26-4.64-30.11-43.12-30.11-44.18,3.03-.47,5.81-.69,8.36-.69m0-1.2c-2.66,0-5.54.24-8.54.7l-1.02.16v.96c-.02.1-.06.28-.11.53-2.68,12.77-1.09,23.68,4.6,31.55,5.4,7.47,14.35,11.96,26.62,13.35.55.13,1.25.19,2.09.19,1.4,0,2.74-.18,2.8-.19l.82-.11.19-.81c.22-.96,5.29-23.7-5.35-37.06-4.9-6.15-12.33-9.27-22.08-9.27h0Z"/>
        </g>
        <g>
          <path class="cls-2" d="m91.72,116.9c-.91,0-1.68-.07-2.3-.21-12.45-1.42-21.62-6.03-27.17-13.71-5.84-8.08-7.48-19.23-4.75-32.26,0,0,.09-.42.1-.5.07-.92.8-1.71,1.77-1.86,3.05-.47,5.97-.71,8.67-.71,9.27,0,16.53,2.76,21.58,8.2,12.49,13.44,6.98,38.19,6.74,39.23-.19.85-.9,1.49-1.76,1.61-.24.03-1.51.2-2.89.2Zm-30.25-44.59c-2.28,11.52-.83,21.26,4.19,28.21,4.84,6.7,13.05,10.74,24.39,12.02.09,0,.19.03.28.05.2.05.61.11,1.36.11h0c.29,0,.58,0,.88-.02.84-4.81,3.42-23.82-6.01-33.96-4.23-4.54-10.46-6.85-18.52-6.85-2.06,0-4.26.15-6.56.45Z"/>
          <path class="cls-1" d="m68.05,68.26c9.1,0,16.19,2.68,21.14,8,12.28,13.21,6.83,37.66,6.59,38.69-.14.61-.64,1.07-1.26,1.15-.21.03-1.46.19-2.81.19-.74,0-1.52-.05-2.16-.2-12.35-1.41-21.37-5.94-26.81-13.47-5.74-7.94-7.34-18.93-4.65-31.78.05-.24.09-.42.11-.52.06-.69.58-1.25,1.27-1.36,3.03-.47,5.9-.7,8.58-.7m23.64,45.04c.46,0,.94-.02,1.38-.06.88-4.73,3.77-24.35-6.08-34.94-4.36-4.69-10.72-7.04-18.96-7.04-2.22,0-4.57.17-7.06.51-2.43,11.87-.98,21.92,4.21,29.1,4.94,6.84,13.29,10.96,24.81,12.26.07,0,.13.02.2.04.38.1.93.13,1.51.13m2.64,1.32h0,0m-26.27-47.56h0c-2.74,0-5.69.24-8.76.71-1.22.19-2.15,1.16-2.27,2.39-.01.07-.03.16-.06.27l-.03.16c-2.77,13.19-1.09,24.51,4.85,32.73,5.64,7.81,14.92,12.5,27.59,13.96.65.14,1.44.21,2.36.21,1.42,0,2.72-.17,2.97-.2,1.11-.15,2.02-.98,2.27-2.07.24-1.06,5.82-26.11-6.88-39.78-5.17-5.57-12.58-8.39-22.02-8.39h0Zm-6.08,5.79c2.12-.26,4.15-.39,6.05-.39,7.89,0,13.97,2.24,18.08,6.66,8.96,9.63,6.84,27.55,5.94,32.97-.13,0-.25,0-.37,0-.73,0-1.08-.06-1.22-.1-.11-.03-.24-.05-.36-.06-11.16-1.26-19.22-5.22-23.96-11.77-4.86-6.72-6.29-16.15-4.17-27.31h0Z"/>
        </g>
      </g>
      <g>
        <g>
          <path class="cls-4" d="m107.77,115.38c-6.72-15.94-5.72-33.63,2.6-46.17,5.9-8.88,18.12-19.47,42.9-19.47.57,0,1.15,0,1.73.02,1.26.03,2.3,1.03,2.38,2.29,1.19,19.59-3.21,34.9-13.08,45.5-12.64,13.58-30.34,14.78-32.73,14.88l-3.44,3.83-.37-.87Z"/>
          <path class="cls-1" d="m153.28,50.34c.57,0,1.14,0,1.72.02.94.02,1.73.78,1.79,1.72,3.61,59.23-45.49,59.75-45.49,59.75l-2.98,3.32c-11.96-28.37-.39-64.81,44.95-64.81m0-1.2v1.2-1.2h0c-25.04,0-37.43,10.74-43.4,19.74-8.43,12.71-9.45,30.61-2.66,46.73l.73,1.74,1.26-1.41,2.64-2.93c3.29-.15,20.32-1.55,32.9-15.06,9.99-10.73,14.44-26.18,13.23-45.94-.1-1.57-1.4-2.82-2.96-2.85-.59-.01-1.17-.02-1.74-.02h0Z"/>
        </g>
        <g>
          <path class="cls-2" d="m108.33,117.25c-.11,0-.23,0-.35-.03-.71-.12-1.31-.59-1.59-1.25-6.98-16.57-5.85-34.93,2.96-47.92,6.13-9.03,18.72-19.8,43.93-19.8.58,0,1.17,0,1.76.02,2.03.04,3.72,1.67,3.84,3.7,1.22,20.01-3.31,35.7-13.47,46.61-12.43,13.35-29.26,15.1-33.14,15.33l-2.39,2.66c-.4.44-.97.7-1.56.7Zm44.92-64.81c-23.34,0-34.86,9.77-40.42,17.96-7.51,11.07-8.9,26.25-3.78,40.79l.69-.77c.39-.44.95-.69,1.54-.7.18,0,18.4-.41,31.08-14.06,9.29-9.99,13.44-24.53,12.34-43.22-.49,0-.98-.01-1.46-.01Z"/>
          <path class="cls-1" d="m153.28,48.84c.58,0,1.16,0,1.75.02,1.72.04,3.15,1.41,3.26,3.13,1.21,19.84-3.27,35.38-13.31,46.16-12.5,13.43-29.36,14.98-32.98,15.15l-2.55,2.84c-.29.32-.69.5-1.12.5-.08,0-.17,0-.25-.02-.51-.08-.93-.42-1.13-.9-6.9-16.38-5.79-34.52,2.91-47.35,6.09-8.98,18.56-19.54,43.43-19.54m-44.46,63.5l1.36-1.52c.28-.31.68-.49,1.1-.5.18,0,18.64-.39,31.52-14.25,9.44-10.16,13.65-24.94,12.49-43.91-.01-.16-.16-.31-.32-.31-.58-.01-1.15-.02-1.72-.02-23.55,0-35.24,9.85-40.92,18.23-7.75,11.42-9.03,27.43-3.51,42.28m44.46-64.7v1.2-1.2h0c-25.47,0-38.22,10.91-44.43,20.07-8.92,13.16-10.08,31.74-3.02,48.49.36.86,1.13,1.46,2.04,1.61.15.02.3.04.45.04.76,0,1.5-.33,2.01-.9l2.22-2.47c4.36-.29,20.96-2.26,33.29-15.51,10.28-11.04,14.86-26.87,13.63-47.05-.14-2.34-2.09-4.21-4.43-4.26-.6-.01-1.19-.02-1.77-.02h0Zm-44,62.39c-4.58-13.9-3.08-28.79,4.04-39.29,5.48-8.07,16.85-17.7,39.92-17.7.29,0,.59,0,.89,0,.97,18.25-3.14,32.45-12.22,42.22-12.47,13.42-30.47,13.86-30.65,13.87-.75,0-1.47.34-1.98.9h0Z"/>
        </g>
      </g>
      <g>
        <path class="cls-2" d="m27.5,132.21c-.3,0-.56-.18-.66-.46-1.64-4.2-7.19-18.4-9.53-24.61-.93-2.53-1.37-6.02-.56-7.19.21-.3.51-.46.84-.46,2.98,0,7.43,17.31,10.64,31.82.05.22,0,.45-.14.62-.14.17-.36.28-.58.28Z"/>
        <path class="cls-1" d="m17.58,100.08c1.32,0,4.63,6.85,10.05,31.35.02.1-.06.17-.14.17-.04,0-.08-.02-.11-.08-1.81-4.62-7.23-18.52-9.53-24.61-1.15-3.12-1.25-6.84-.28-6.84m0-1.2h0c-.53,0-1.01.26-1.33.72-.95,1.37-.49,5.08.48,7.73,2.32,6.15,7.89,20.41,9.54,24.63.2.51.68.84,1.22.84.41,0,.79-.18,1.05-.5.26-.32.35-.73.26-1.13-7.14-32.29-10.11-32.29-11.22-32.29h0Z"/>
      </g>
      <g>
        <path class="cls-2" d="m171.4,133.72c-.23,0-.44-.1-.58-.28-.14-.17-.18-.4-.13-.62,1.29-5.15,7.74-29.62,8.91-33.28.13-.41.51-.68.95-.68.17,0,.34.04.49.12,3.68,1.89,5.55,5.78-8.98,34.33-.13.25-.38.41-.66.41Z"/>
        <path class="cls-1" d="m180.55,99.47c.07,0,.14.02.21.05,2.79,1.44,5.9,3.77-9.24,33.53-.03.05-.08.08-.13.08-.08,0-.15-.06-.13-.15,1.37-5.5,7.75-29.66,8.9-33.24.05-.17.21-.26.38-.26m0-1.2h0c-.7,0-1.31.44-1.52,1.1-1.17,3.67-7.63,28.17-8.92,33.32-.1.4-.01.81.24,1.13.25.32.64.51,1.05.51.51,0,.96-.28,1.19-.73,14.8-29.09,12.83-33.02,8.72-35.14-.23-.12-.5-.18-.76-.18h0Z"/>
      </g>
      <g>
        <path class="cls-2" d="m79.59,108.01c-.16,0-.32-.02-.47-.07-.19-.06-19.04-6.08-15.84-30,.11-.79.79-1.39,1.59-1.39.07,0,.13,0,.2.01.88.12,1.5.92,1.38,1.8-2.83,21.19,12.94,26.31,13.61,26.52.84.26,1.32,1.16,1.06,2-.21.68-.82,1.13-1.53,1.13Z"/>
        <path class="cls-1" d="m64.88,77.15s.08,0,.12,0c.55.07.93.58.86,1.12-2.9,21.67,13.34,26.96,14.03,27.17.53.16.82.72.66,1.25-.13.43-.53.71-.96.71-.1,0-.2-.01-.29-.04-.19-.06-18.55-5.96-15.42-29.35.07-.5.51-.87,1-.87m0-1.2h0c-1.1,0-2.04.82-2.19,1.91-3.26,24.42,16.07,30.6,16.26,30.65.2.06.42.1.64.1.97,0,1.82-.62,2.1-1.55.36-1.16-.3-2.39-1.45-2.75-.65-.2-15.96-5.17-13.19-25.86.08-.58-.08-1.16-.43-1.63s-.87-.77-1.46-.84c-.1-.01-.19-.02-.28-.02h0Z"/>
      </g>
      <g>
        <path class="cls-2" d="m118.54,105.77c-.81,0-1.49-.61-1.59-1.41-.1-.88.52-1.67,1.4-1.78,1.31-.16,32.15-4.28,29.64-41.15-.06-.88.61-1.65,1.49-1.71h0c.94,0,1.64.65,1.7,1.49,2.73,39.92-32.1,44.51-32.45,44.55-.06,0-.12.01-.19.01Z"/>
        <path class="cls-1" d="m149.58,60.32c.52,0,.97.4,1.01.93,2.69,39.37-31.58,43.87-31.92,43.91-.04,0-.08,0-.12,0-.5,0-.93-.37-.99-.88-.06-.55.33-1.05.87-1.11,1.34-.16,32.72-4.35,30.16-41.79-.04-.55.38-1.03.93-1.07.02,0,.04,0,.06,0m0-1.2s-.08,0-.13,0c-1.22.08-2.14,1.14-2.06,2.35,2.48,36.31-27.82,40.36-29.11,40.52-1.2.14-2.07,1.24-1.92,2.44.13,1.11,1.07,1.94,2.18,1.94.09,0,.18,0,.27-.02.35-.04,35.74-4.7,32.97-45.18-.08-1.15-1.05-2.05-2.2-2.05h0Z"/>
      </g>
      <g>
        <path class="cls-2" d="m103.98,171.76c-.53,0-.97-.43-.99-.96-.26-7.31-.37-13.59-.33-18.68.04-4.79.44-9.15,1.22-13.33,1.39-7.42,1.74-21.31,1.78-22.87.01-.43.3-.79.71-.89.92-.23,3.87-.99,5.41-1.48l.11-.42.42-.04c.19-.02.33-.02.43-.02.14,0,.25.02.34.04l.06-.02v.04c.28.11.37.33.39.48.08.48-.31.7-.76.87-2.37,9.03-2.07,12.64-1.76,13.9,10.19-8.03,28.85-15.57,32.56-17.02.12-.05.24-.07.36-.07.26,0,.52.11.7.3.18.19.28.45.27.72-.02.44-.04,1.14,0,2.03l-.02,2.45c-.31,6.3-1.4,7.38-2.36,8.32-.09.09-.18.18-.26.27-.77.82-6.58,6.37-8.65,8.33,4.5-1.62,13.72-4.99,18.69-7.43,6.99-2.3,9.64-14.01,10.64-18.43l.18-.81c1.61-7.94,10.96-8.63,12.82-8.68h0c.33,0,.61.13.79.37.18.23.25.53.18.82-.65,2.84-4.05,17.49-6.8,27.43-3.31,11.56-9.2,14.83-9.45,14.96l-56.24,29.7c-.14.07-.3.11-.45.11h0Z"/>
        <path class="cls-1" d="m175.97,98.97c.24,0,.42.22.37.45-.64,2.76-4.04,17.46-6.79,27.4-3.28,11.44-9.15,14.59-9.15,14.59l-56.24,29.7c-.06.03-.12.04-.17.04-.2,0-.38-.16-.39-.38-.3-8.4-.36-14.37-.33-18.65.03-4.44.39-8.86,1.21-13.22,1.39-7.4,1.74-20.91,1.79-22.96,0-.16.1-.29.26-.33.95-.24,4.31-1.1,5.76-1.59-3.49,13.16-1.52,15.35-1.48,15.35,0,0,0,0-.02-.03,10-8.19,29.52-16.06,33.02-17.43.05-.02.09-.03.14-.03.2,0,.38.17.37.39-.02.46-.04,1.19,0,2.09,0,.8-.01,1.62-.02,2.42-.33,6.72-1.55,7.2-2.46,8.18-.92.98-9.34,8.99-9.34,8.99-.26.25-.06.67.25.67.04,0,.09,0,.13-.02,4.02-1.42,14.33-5.14,19.7-7.78,7.69-2.52,10.22-15.65,11.14-19.63,1.51-7.42,10.11-8.15,12.25-8.22,0,0,0,0,.01,0m-63.23,14.7c.42,0,.15.14-.47.35.03-.11.06-.22.09-.33.16-.01.29-.02.38-.02m63.23-15.9h-.05c-5.61.18-12.07,2.68-13.39,9.18-.05.21-.11.48-.18.78-.98,4.32-3.57,15.8-10.16,17.96l-.08.03-.08.04c-4.09,2-11.07,4.65-15.94,6.42,2.55-2.43,6.01-5.75,6.6-6.38.08-.09.16-.17.25-.25,1.26-1.24,2.24-2.66,2.54-8.69v-1.2s.02-1.27.02-1.27v-.03s0-.03,0-.03c-.04-.87-.02-1.56,0-1.98.02-.43-.14-.85-.43-1.16-.29-.31-.71-.48-1.13-.48-.2,0-.39.04-.58.11-3.62,1.42-21.5,8.65-31.9,16.49-.15-1.7,0-5.3,1.83-12.37.5-.24.97-.65.85-1.4-.02-.09-.08-.38-.31-.63l.19-.72-.96.33c-.09-.01-.2-.02-.31-.02h0c-.12,0-.28,0-.49.03l-.83.08-.14.51c-1.58.48-4.21,1.16-5.07,1.37-.68.17-1.15.76-1.16,1.46-.04,1.55-.39,15.39-1.77,22.77-.79,4.22-1.19,8.61-1.23,13.43-.04,5.09.07,11.38.33,18.7.03.86.73,1.54,1.59,1.54.25,0,.51-.06.73-.18l56.24-29.7c.27-.14,6.37-3.53,9.75-15.32,2.76-9.94,6.16-24.62,6.81-27.46.11-.47,0-.95-.3-1.33-.3-.38-.75-.59-1.24-.59h0Z"/>
      </g>
      <g>
        <path class="cls-2" d="m111.31,113.93c-.13,0-.25-.01-.38-.03-1.14-.21-1.9-1.31-1.69-2.44,6.59-36.07,33.51-54.77,33.78-54.95.35-.24.76-.37,1.18-.37.69,0,1.34.34,1.73.92.65.95.41,2.26-.55,2.92-.26.18-25.76,17.99-32.02,52.24-.18,1-1.05,1.72-2.06,1.72Z"/>
        <path class="cls-1" d="m144.2,56.74c.48,0,.95.23,1.24.65.47.68.29,1.62-.39,2.08-.26.18-25.97,18.14-32.27,52.63-.13.72-.76,1.23-1.47,1.23-.09,0-.18,0-.27-.02-.81-.15-1.35-.93-1.21-1.75,6.54-35.76,33.26-54.38,33.53-54.56.26-.18.55-.26.84-.26m0-1.2c-.54,0-1.07.16-1.52.47-.27.18-27.39,19.03-34.03,55.34-.27,1.46.71,2.87,2.17,3.14.16.03.33.04.49.04,1.3,0,2.42-.93,2.65-2.21,6.2-33.9,31.52-51.68,31.77-51.85,1.23-.84,1.54-2.53.7-3.75-.5-.74-1.34-1.18-2.23-1.18h0Z"/>
      </g>
      <g>
        <path class="cls-2" d="m90.6,115.09c-1.04,0-1.94-.78-2.08-1.81-.02-.14-2.3-14.93-17.14-29.01-.84-.8-.87-2.13-.08-2.97.39-.42.95-.66,1.52-.66.54,0,1.05.21,1.45.58,16.01,15.2,18.32,30.82,18.41,31.48.16,1.15-.65,2.21-1.79,2.37-.1.01-.2.02-.29.02Z"/>
        <path class="cls-1" d="m72.83,81.25c.37,0,.74.14,1.03.41,15.85,15.05,18.14,30.48,18.23,31.13.11.82-.46,1.58-1.28,1.69-.07,0-.14.01-.21.01-.74,0-1.38-.54-1.48-1.29-.03-.21-2.31-15.12-17.32-29.37-.6-.57-.63-1.52-.06-2.12.3-.31.69-.47,1.09-.47m0-1.2c-.74,0-1.45.31-1.96.84-1.02,1.08-.98,2.79.1,3.82,14.64,13.9,16.94,28.52,16.96,28.67.18,1.32,1.33,2.32,2.67,2.32.12,0,.24,0,.36-.02,1.49-.21,2.52-1.57,2.32-3.05-.09-.67-2.43-16.5-18.59-31.84-.5-.48-1.16-.74-1.86-.74h0Z"/>
      </g>
    </g>
  </g>
</svg>