<svg xmlns="http://www.w3.org/2000/svg" id="Layer_2" data-name="Layer 2" viewBox="0 0 200 200"><defs><style>      .cls-1 {        fill: #fff;      }      .cls-2, .cls-3 {        fill: #473204;      }      .cls-3 {        stroke: #fff;        stroke-miterlimit: 10;        stroke-width: 3px;      }      .cls-4 {        fill: #76c04e;      }      .cls-5 {        fill: #009355;      }    </style></defs><g id="Layer_1-2" data-name="Layer 1"><g><circle class="cls-4" cx="100" cy="100" r="100"></circle><g><path class="cls-2" d="m118.92,154.57c-7.46-.98-24.13-4.77-24.3-4.81-.34-.08-.62-.33-.73-.67-.11-.33-.03-.7.2-.97.06-.08,6.81-8.25,4.92-33.18-.3-2.07-3.87-13.74-13.52-17.71,0,0-.07-.03-.15-.07-1.62-.74-7.44-1.13-12.04-1.33h0c-.75,0-7.18-.17-11.77-5.51-.17-.19-.28-.52-.27-.78.01-.26.04-.8,1.62-2.12.18-.15.41-.23.64-.23.09,0,.17.01.26.03.03,0,2.76.73,5.79.73,1.7,0,3.15-.22,4.33-.67.71-.42,2.44-.97,4.69-.97.92,0,1.83.09,2.73.27-3.81-3.86-9.72-11.47-10.31-25.02,0-.18.04-.37.12-.53.69-1.24,1.99-2.42,2.05-2.47.18-.17.42-.26.67-.26.05,0,.1,0,.15.01.29.04.55.21.71.47.09.14,8.58,14.04,14.76,18.91l.15.1c3.35,2.35,11.42,8.37,15.45,14.46.07.01.14.04.19.06.33-.37,1.1-1.49,2.71-4.92.99-1.98,6.74-11.76,23.62-11.76h.4c2.4-.05,5.43-2.85,5.81-3.89.32-.89.86-1.08,1.26-1.08.21,0,.75.07,1.1.73.29.54.6,1.9.15,2.59-2.08,3.18-5.91,4.97-9.96,6.86-7.92,3.7-16.86,7.87-15.98,23.88,2.06-2.43,5.6-6.4,9.41-6.4.99,0,1.94.27,2.81.81.41.25.58.77.4,1.22-.31.77-1.06,1.54-1.2,1.69-.1.1-.22.18-.35.23-.39.15-9.57,3.99-7.6,22.31h0c.65,2.79,3.25,20.82,2.21,29.11-.03.26-.17.5-.38.67-.18.14-.39.21-.61.21-.04,0-.09,0-.13,0Z"></path><path class="cls-1" d="m73.82,59.32s8.6,14.13,14.99,19.17c.86.61,11.31,7.74,15.73,14.87.09-.09.16-.12.23-.12.17,0,.3.19.52.19.46,0,1.29-.79,3.55-5.6.73-1.46,6.12-11.18,22.71-11.18.13,0,.26,0,.39,0,2.95-.06,6.27-3.2,6.76-4.55.11-.3.22-.42.32-.42.36,0,.61,1.47.42,1.77-5.99,9.16-28.66,6.3-25.93,33.43,0,.1,0,.15.05.15.58,0,5.41-7.7,10.19-7.7.77,0,1.54.2,2.29.66-.25.61-.98,1.35-.98,1.35,0,0-10.32,3.93-8.23,23.35.25.49,3.32,20.03,2.21,28.88-7.5-.98-24.21-4.79-24.21-4.79,0,0,7.13-8.11,5.16-33.92-.25-1.72-3.69-14.26-14.13-18.56-.37-.12-1.23-.98-12.53-1.47,0,0-.01,0-.04,0-.54,0-6.68-.11-11.02-5.16-.25-.25,1.23-1.47,1.23-1.47,0,0,2.84.76,6.04.76,1.6,0,3.29-.19,4.77-.76.41-.27,2-.87,4.25-.87,1.84,0,4.13.41,6.57,1.73.37-.86-12.29-7.62-13.15-27.53.61-1.11,1.84-2.21,1.84-2.21m0-2c-.49,0-.97.18-1.34.51-.15.14-1.5,1.37-2.25,2.73-.18.32-.27.69-.25,1.06.51,11.9,5.03,19.33,8.78,23.71-.07,0-.13,0-.2,0-2.23,0-4.14.53-5.11,1.06-1.05.38-2.36.58-3.9.58-2.88,0-5.5-.69-5.53-.7-.17-.05-.34-.07-.52-.07-.46,0-.92.16-1.28.46-1.59,1.33-1.94,2.09-1.97,2.84-.02.55.17,1.09.53,1.49,4.9,5.67,11.75,5.84,12.52,5.84,8.89.39,11.09,1,11.62,1.24.08.04.16.07.22.09,9.85,4.08,12.72,16.2,12.88,16.94,1.83,24.28-4.63,32.29-4.69,32.37-.45.53-.59,1.27-.37,1.93s.76,1.17,1.44,1.32c.69.16,16.89,3.84,24.39,4.83.09.01.17.02.26.02.44,0,.87-.15,1.22-.42.42-.33.7-.81.76-1.33,1.01-8.11-1.36-25.56-2.21-29.34h0c-1.88-17.45,6.62-21.13,6.98-21.27.25-.1.49-.26.68-.45.24-.24,1.06-1.1,1.43-2.02.36-.9.02-1.93-.81-2.44-1.03-.64-2.15-.96-3.34-.96-3.3,0-6.29,2.51-8.47,4.83.14-13.25,7.92-16.88,15.46-20.41,4.18-1.95,8.13-3.8,10.37-7.21.76-1.16.24-2.97-.11-3.62-.42-.78-1.17-1.25-1.98-1.25-.47,0-1.63.17-2.2,1.74-.32.73-2.87,3.17-4.9,3.23h-.37c-17.47,0-23.48,10.24-24.5,12.29-.89,1.89-1.5,3.04-1.92,3.74-4.1-5.61-11.01-10.9-14.99-13.69l-.14-.1c-6.03-4.79-14.4-18.47-14.48-18.61-.31-.51-.83-.85-1.42-.94-.1-.01-.19-.02-.29-.02h0Z"></path></g><g><path class="cls-3" d="m142.47,71.43c.11,0,.22-.02.33-.03.17.69.53,1.34,1.08,1.86,3.93,3.71,8.31,5.68,12.68,5.68s8.35-1.84,12.12-5.47c1.29-1.24,1.41-3.31.27-4.72-1.87-2.32-6.93-7.72-13.54-7.72-.91,0-1.8.13-2.68.33,3.68-6.76,5.13-16.31-3.3-27.8-.71-.97-1.87-1.55-3.09-1.55-.74,0-1.46.21-2.08.6-2.88,1.83-12.34,8.57-13.36,18.61-.66,6.47,2.25,12.88,8.62,19.04.78.75,1.82,1.17,2.92,1.17Z"></path><path class="cls-3" d="m114.67,37.45c.77-1.64.12-3.64-1.48-4.55-1.66-.94-6.03-3.13-10.81-3.13-3.03,0-7.88.97-11.3,6.3.81-5.2-.07-11.38-4.01-18.58-.68-1.24-2-2.02-3.45-2.02-.56,0-1.11.12-1.63.35-3.4,1.52-14.7,7.3-17.24,17.78-.66,2.73-.66,5.53-.06,8.39-2.74-2-6.1-3.25-10.14-3.25-3.5,0-7.35.94-11.44,2.78-1.95.88-2.87,3.13-2.09,5.13,3.9,10.04,11.51,15.57,21.44,15.57,2.65,0,5.48-.4,8.44-1.19,1.93-.52,3.1-2.44,2.66-4.38-.05-.21-.11-.43-.16-.64.35.09.7.14,1.07.14.85,0,1.67-.24,2.38-.68,3.27-2.05,8.31-5.89,11.51-11.6.22,1.27,1.08,2.41,2.37,2.92.91.36,1.8.64,2.7.89-.34-.03-.67-.05-1.02-.05-4.91,0-9.44,2.64-13.48,7.84-1.21,1.56-1,3.82.48,5.15,4.02,3.61,8.55,5.52,13.11,5.52s9.33-2.02,13.66-6.02c1.38-1.27,1.52-3.4.32-4.84-1.48-1.79-4.95-5.4-9.69-6.93.73.08,1.45.13,2.16.13,4.82,0,11.45-1.91,15.7-11.02Z"></path><path class="cls-3" d="m131.25,73.96c1.77-.22,3.11-1.81,3.05-3.62-.29-8.08-4.1-16.72-13.95-16.72-1.92,0-4.02.35-6.25,1.03-1.8.55-2.91,2.4-2.58,4.29,1.67,9.67,7.77,15.21,16.73,15.21.96,0,1.98-.06,3.01-.19Z"></path><path class="cls-3" d="m157.64,80.05c-1.58,0-3.31.28-5.13.85-1.71.53-2.76,2.27-2.45,4.06,1.38,7.97,6.42,12.54,13.84,12.54.79,0,1.61-.05,2.45-.16,1.71-.21,3-1.74,2.93-3.48-.23-6.37-3.41-13.82-11.65-13.82Z"></path><path class="cls-3" d="m63.66,96.34c-.55-.33-1.19-.51-1.84-.51-1.11,0-2.18.52-2.87,1.39-5.78,7.26-5.17,15.15,1.63,21.12.61.53,1.39.83,2.21.83.89,0,1.73-.34,2.37-.95,1.87-1.79,6.16-6.57,5.54-12.33-.41-3.75-2.78-6.96-7.04-9.54Z"></path><path class="cls-3" d="m59.41,88.96s.08.01.12.02c.09,0,.25.02.35.02,1.72,0,3.21-1.25,3.54-2.96.63-3.29,1.57-11.58-3.16-17.28-2.89-3.49-7.24-5.25-12.95-5.25-.74,0-1.51.03-2.3.09-1.95.15-3.49,1.76-3.6,3.76-.36,7.02,1.67,12.65,5.69,16.43-4.86.22-12.36,2.56-13.83,14.65-.23,1.9,1.02,3.69,2.91,4.17,2.14.55,4.15.81,6.14.81,8.28,0,14.3-4.76,16.95-13.42.1-.34.14-.69.13-1.04Z"></path><path class="cls-3" d="m139.56,88.99c-3.73,0-8.91,1.66-12.44,9.58-.25.56-.33,1.15-.29,1.74-1.08.23-2.01.94-2.48,1.97-3.35,7.39-1.15,13.95,5.9,17.57.46.23.97.36,1.49.36,1.13,0,2.21-.6,2.82-1.56,1.2-1.91,3.81-6.87,2.04-11.65-.05-.12-.11-.24-.16-.36,1.09.22,2.16.34,3.21.34,3.64,0,8.91-1.36,13.34-7.83,1.01-1.47.72-3.47-.66-4.66-1.93-1.66-7.04-5.51-12.75-5.51Z"></path></g><g><path class="cls-5" d="m54.56,41.59c-2.9,0-6.29.74-10.26,2.53-.56.25-.83.92-.61,1.49,1.3,3.35,5.92,13.74,18.78,13.74,2.29,0,4.85-.33,7.7-1.09.43-.11.71-.55.61-.99-.73-3.26-4.32-15.68-16.22-15.68Z"></path><path class="cls-1" d="m73.57,56.65c-1.95-8.66-7.97-17.91-19-17.91-3.5,0-7.35.94-11.44,2.78-1.95.88-2.87,3.13-2.09,5.13,3.9,10.04,11.51,15.57,21.44,15.57,2.65,0,5.48-.4,8.44-1.19,1.93-.52,3.1-2.44,2.66-4.38Zm-3.03,3c-2.83.76-5.55,1.14-8.07,1.14h0c-12.55,0-17.99-9.18-20.11-14.65-.5-1.29.09-2.75,1.35-3.31,3.91-1.76,7.56-2.65,10.85-2.65,10.19,0,15.78,8.68,17.61,16.8.27,1.19-.45,2.36-1.63,2.68Z"></path><path class="cls-2" d="m54.56,40.17c-3.3,0-6.95.89-10.85,2.65-1.26.57-1.85,2.02-1.35,3.31,2.13,5.47,7.57,14.65,20.11,14.65h0c2.52,0,5.23-.38,8.07-1.14,1.18-.32,1.9-1.5,1.63-2.68-1.83-8.12-7.42-16.8-17.61-16.8Zm15.61,18.1c-2.85.76-5.4,1.09-7.7,1.09-12.86,0-17.48-10.4-18.78-13.74-.22-.58.04-1.24.61-1.49,3.97-1.79,7.36-2.53,10.26-2.53,11.9,0,15.48,12.43,16.22,15.68.1.43-.18.87-.61.99Z"></path></g><g><path class="cls-5" d="m92.52,64.02c-4.03,0-8.08-1.72-11.7-4.98-.66-.59-.76-1.6-.22-2.29,3.61-4.66,7.59-7.02,11.81-7.02,6.26,0,11.12,5.27,12.46,6.89.48.58.43,1.44-.13,1.95-3.93,3.62-8.04,5.46-12.23,5.46h0Z"></path><path class="cls-2" d="m92.41,50.48c5.91,0,10.55,5.01,11.89,6.62.23.27.2.68-.06.92-4.27,3.94-8.27,5.26-11.72,5.26-5.54,0-9.66-3.4-11.2-4.79-.37-.33-.43-.89-.13-1.27,3.91-5.04,7.78-6.73,11.22-6.73m0-1.5c-4.47,0-8.64,2.46-12.41,7.31-.78,1-.64,2.45.31,3.31,3.76,3.38,7.98,5.17,12.2,5.17s8.67-1.9,12.74-5.66c.85-.78.93-2.09.2-2.98-1.39-1.68-6.46-7.16-13.04-7.16h0Z"></path></g><g><path class="cls-5" d="m142.47,69.32c-.55,0-1.07-.21-1.46-.58-5.89-5.69-8.58-11.52-7.99-17.32.92-9.1,9.72-15.35,12.39-17.05.28-.18.61-.27.94-.27.56,0,1.08.26,1.4.69,12.49,17.03,1.48,29.45-3.84,33.99-.4.34-.91.53-1.44.53h0Z"></path><path class="cls-2" d="m146.35,34.86c.31,0,.61.14.79.39,12.92,17.62.06,29.74-3.72,32.98-.27.23-.62.35-.95.35s-.68-.12-.94-.37c-18.05-17.44.14-30.56,4.28-33.19.17-.11.36-.16.54-.16m0-1.5c-.48,0-.95.14-1.35.39-2.75,1.75-11.78,8.17-12.73,17.61-.61,6.04,2.15,12.07,8.22,17.93.53.51,1.23.79,1.98.79.71,0,1.39-.25,1.93-.71,5.47-4.68,16.82-17.47,3.95-35-.46-.63-1.21-1-2-1h0Z"></path></g><g><path class="cls-5" d="m74.48,54.04c-.7,0-1.34-.3-1.75-.82-5.37-6.74-7.37-13.18-5.92-19.13,2.32-9.55,12.88-14.93,16.06-16.36.24-.11.5-.16.77-.16.68,0,1.29.35,1.6.92,10.75,19.68-3.05,31.16-9.48,35.18-.38.24-.82.36-1.27.36h0Z"></path><path class="cls-2" d="m83.63,18.33c.39,0,.76.2.94.53,11.13,20.39-4.64,31.32-9.22,34.18-.27.17-.57.25-.87.25-.45,0-.89-.18-1.17-.54-16.68-20.92,4.98-32.15,9.86-34.33.15-.07.31-.1.46-.1m0-1.5c-.37,0-.73.08-1.07.23-3.26,1.46-14.08,6.98-16.48,16.86-1.5,6.19.53,12.84,6.06,19.77.56.7,1.41,1.1,2.34,1.1.59,0,1.17-.16,1.66-.48,6.61-4.13,20.8-15.93,9.74-36.18-.44-.81-1.31-1.31-2.26-1.31h0Z"></path></g><g><path class="cls-5" d="m98.97,46.36c-2.37,0-4.88-.52-7.45-1.54-.8-.32-1.26-1.2-1.05-2.01,2.44-9.04,7.83-10.94,11.92-10.94s8.25,2,9.77,2.86c.65.37.91,1.17.61,1.82-3.78,8.1-9.59,9.8-13.79,9.8h0Z"></path><path class="cls-2" d="m102.39,32.63c4.12,0,8.01,1.97,9.4,2.76.31.17.43.56.3.85-3.51,7.51-8.74,9.37-13.11,9.37-3.16,0-5.88-.97-7.18-1.49-.45-.18-.72-.67-.6-1.11,2.2-8.17,6.83-10.38,11.2-10.38m0-1.5c-4.36,0-10.08,1.99-12.65,11.49-.32,1.19.32,2.43,1.49,2.9,2.66,1.06,5.26,1.59,7.73,1.59,4.42,0,10.52-1.78,14.47-10.24.47-1.01.07-2.23-.91-2.79-1.57-.89-5.69-2.95-10.14-2.95h0Z"></path></g><g><path class="cls-5" d="m156.56,76.83c-3.82,0-7.7-1.76-11.23-5.1-.62-.58-.72-1.55-.25-2.21,3.09-4.24,6.57-6.39,10.34-6.39,5.86,0,10.59,5.31,11.9,6.94.46.57.42,1.39-.09,1.88-3.37,3.24-6.96,4.88-10.66,4.88h0Z"></path><path class="cls-2" d="m155.42,63.88c5.52,0,10.02,5.05,11.31,6.66.21.27.2.66-.03.87-3.63,3.48-7.09,4.67-10.14,4.67-5.23,0-9.24-3.49-10.72-4.89-.34-.32-.41-.86-.15-1.22,3.31-4.54,6.67-6.09,9.73-6.09m0-1.5c-4.02,0-7.7,2.26-10.94,6.7-.71.97-.56,2.34.34,3.19,3.67,3.47,7.73,5.3,11.75,5.3s7.67-1.71,11.18-5.09c.79-.76.85-2.03.16-2.89-1.36-1.69-6.29-7.22-12.48-7.22h0Z"></path></g><g><path class="cls-5" d="m128.25,72.04c-10.72,0-13.79-8.44-14.66-13.46-.14-.83.35-1.67,1.12-1.91,2.03-.62,3.92-.94,5.63-.94,8.35,0,11.6,7.59,11.85,14.69.02.73-.5,1.37-1.2,1.45-.94.12-1.87.18-2.75.18h0Z"></path><path class="cls-2" d="m120.35,56.47c9.99,0,11,11.21,11.1,13.97.01.34-.23.64-.54.68-.94.12-1.82.17-2.66.17-11.22,0-13.4-9.88-13.92-12.84-.08-.47.19-.94.61-1.07,2.05-.63,3.84-.91,5.41-.91m0-1.5c-1.79,0-3.75.33-5.85.97-1.15.35-1.85,1.54-1.64,2.76,1.55,8.95,7.16,14.09,15.39,14.09.91,0,1.86-.06,2.84-.18,1.08-.13,1.9-1.11,1.86-2.22-.26-7.45-3.71-15.41-12.6-15.41h0Z"></path></g><g><path class="cls-5" d="m163.9,95.4c-6.29,0-10.57-3.93-11.76-10.79-.13-.75.3-1.47,1-1.69,1.62-.5,3.14-.75,4.51-.75,6.73,0,9.34,6.09,9.54,11.78.02.66-.45,1.23-1.09,1.31-.75.09-1.49.14-2.19.14h0Z"></path><path class="cls-2" d="m157.64,82.91c7.91,0,8.71,8.88,8.79,11.06,0,.27-.19.51-.43.54-.74.09-1.44.14-2.1.14-8.89,0-10.62-7.83-11.02-10.17-.06-.37.15-.74.48-.85,1.62-.5,3.04-.72,4.29-.72m0-1.5c-1.45,0-3.04.26-4.73.79-1.06.33-1.71,1.42-1.52,2.53,1.26,7.25,5.81,11.42,12.5,11.42.73,0,1.5-.05,2.29-.15,1.02-.13,1.78-1.04,1.75-2.08-.21-6.05-3.03-12.51-10.29-12.51h0Z"></path></g><g><path class="cls-5" d="m131.73,118.11c-.18,0-.36-.04-.52-.12-8.54-4.38-6.3-11.83-4.94-14.82.23-.51.74-.84,1.29-.84.13,0,.26.02.38.06,3.51,1.08,5.75,2.88,6.67,5.36,1.49,4.01-1.04,8.51-1.85,9.8-.22.35-.62.57-1.03.57h0Z"></path><path class="cls-2" d="m127.56,103.07c.06,0,.11,0,.16.02,10.53,3.24,5.6,12.15,4.41,14.04-.09.14-.25.22-.4.22-.06,0-.13-.01-.18-.04-8.49-4.36-5.53-11.79-4.6-13.84.11-.25.36-.4.61-.4m0-1.5c-.84,0-1.62.5-1.97,1.28-3.06,6.75-1.14,12.51,5.28,15.8.27.14.57.21.87.21.67,0,1.31-.35,1.67-.92.86-1.36,3.52-6.13,1.91-10.46-1.01-2.71-3.41-4.67-7.15-5.82-.2-.06-.4-.09-.6-.09h0Z"></path></g><g><path class="cls-5" d="m62.79,117.06c-.31,0-.6-.11-.82-.3-8.43-7.41-3.77-15.21-1.37-18.22.3-.37.75-.59,1.22-.59.27,0,.52.07.75.21,3.67,2.22,5.7,4.9,6.03,7.97.54,4.96-3.61,9.35-4.9,10.58-.25.24-.57.37-.91.37h0Z"></path><path class="cls-2" d="m61.82,98.69c.12,0,.25.03.36.1,11.14,6.75,2.92,15.54,1.01,17.36-.11.1-.25.16-.39.16-.12,0-.24-.04-.33-.12-8.48-7.44-2.94-15.1-1.28-17.19.16-.2.4-.31.64-.31m0-1.5c-.7,0-1.37.33-1.81.87-2.53,3.18-7.46,11.42,1.46,19.25.36.32.83.49,1.32.49.53,0,1.04-.2,1.43-.57,1.35-1.29,5.7-5.9,5.12-11.21-.36-3.31-2.51-6.18-6.39-8.53-.34-.21-.73-.31-1.13-.31h0Z"></path></g><g><path class="cls-5" d="m59.74,86.88c-15.47-1.55-16.5-14.1-16.22-19.43.05-.92.77-1.7,1.65-1.77.73-.06,1.45-.08,2.14-.08,5.05,0,8.86,1.51,11.33,4.49,4.27,5.16,3.15,13.2,2.71,15.54-.13.71-.77,1.25-1.47,1.25,0,0-.11,0-.13,0Z"></path><path class="cls-2" d="m47.31,66.35c16.03,0,13.96,15.64,13.3,19.15-.07.37-.39.64-.73.64-.02,0-.04,0-.06,0-15.81-1.58-15.74-14.89-15.55-18.64.03-.55.45-1.02.96-1.06.73-.06,1.42-.08,2.08-.08m0-1.5c-.71,0-1.44.03-2.19.09-1.27.1-2.28,1.16-2.35,2.47-.29,5.54.79,18.6,16.9,20.21.07,0,.14.01.21.01,1.07,0,2-.78,2.2-1.86.46-2.42,1.61-10.75-2.87-16.16-2.62-3.16-6.62-4.76-11.9-4.76h0Z"></path></g><g><path class="cls-5" d="m42.32,101.3c-1.81,0-3.65-.24-5.62-.75-.85-.21-1.44-1.04-1.34-1.88,1.29-10.59,7.53-12.82,12.54-12.82,3.72,0,7.18,1.24,8.49,1.77.7.28,1.08,1.05.86,1.75-3.02,9.86-9.79,11.92-14.94,11.92h0Z"></path><path class="cls-2" d="m47.91,86.61c3.58,0,6.89,1.18,8.21,1.71.34.14.53.51.43.83-2.9,9.46-9.32,11.4-14.22,11.4-2.35,0-4.35-.45-5.43-.72-.49-.12-.84-.59-.78-1.06,1.2-9.81,6.76-12.16,11.8-12.16m0-1.5c-4.35,0-11.85,1.75-13.29,13.48-.15,1.22.67,2.38,1.9,2.69,2.03.52,3.93.77,5.8.77,5.4,0,12.5-2.16,15.66-12.46.33-1.06-.25-2.23-1.3-2.66-1.35-.55-4.92-1.82-8.77-1.82h0Z"></path></g><g><path class="cls-5" d="m139.63,104.88c-3.14,0-6.56-1.15-9.9-3.33-.72-.47-1.02-1.38-.69-2.12,2.46-5.53,6-8.33,10.51-8.33,5,0,9.63,3.5,11.38,5,.55.48.68,1.29.29,1.87-3.14,4.59-7.04,6.91-11.6,6.91h0Z"></path><path class="cls-2" d="m139.56,91.85c4.85,0,9.45,3.58,10.89,4.82.27.23.33.62.16.87-3.46,5.05-7.42,6.59-10.98,6.59-4.28,0-7.98-2.22-9.49-3.21-.41-.26-.59-.79-.41-1.19,2.67-6.01,6.31-7.89,9.83-7.89m0-1.5c-3.33,0-7.97,1.52-11.2,8.78-.48,1.07-.06,2.38.96,3.05,3.46,2.26,7.03,3.45,10.31,3.45,4.82,0,8.93-2.44,12.22-7.24.6-.88.42-2.14-.42-2.86-1.82-1.56-6.61-5.18-11.87-5.18h0Z"></path></g><g><path class="cls-2" d="m18.35,178.14c-1.33,0-2.55-.67-3.26-1.79-1.14-1.8-.6-4.18,1.19-5.32.32-.21,32.78-20.57,70.79-20.57,17.3,0,33.01,4.27,46.72,12.69,3.38-1.78,11.21-5.25,20.67-5.25,10.7,0,20.34,4.29,28.66,12.76,1.49,1.52,1.47,3.96-.05,5.46-.73.71-1.69,1.1-2.71,1.1s-2.02-.41-2.75-1.15c-6.8-6.92-14.65-10.43-23.32-10.43-10.3,0-18.18,5.04-18.51,5.25-.63.41-1.35.62-2.1.62s-1.48-.22-2.11-.63c-12.93-8.45-27.94-12.73-44.61-12.73-35.62,0-66.26,19.2-66.56,19.39-.62.39-1.33.6-2.06.6Z"></path><path class="cls-1" d="m87.07,151.46c15.32,0,31.49,3.37,46.69,12.84,3.27-1.79,11.1-5.4,20.7-5.4,8.55,0,18.52,2.87,27.95,12.46,1.11,1.13,1.09,2.94-.04,4.04-.56.54-1.28.82-2,.82s-1.48-.28-2.04-.85c-8.12-8.26-16.69-10.73-24.04-10.73-10.51,0-18.49,5.05-19.05,5.41-.47.31-1.01.46-1.55.46s-1.09-.16-1.56-.47c-14.58-9.52-30.27-12.89-45.16-12.89-35.62,0-66.66,19.27-67.1,19.55-.47.3-1,.44-1.52.44-.95,0-1.87-.47-2.42-1.33-.84-1.33-.45-3.1.88-3.94.46-.29,32.81-20.41,70.26-20.41m0-2c-38.3,0-71,20.52-71.33,20.72-2.26,1.43-2.93,4.44-1.5,6.7.9,1.42,2.43,2.26,4.11,2.26.92,0,1.82-.26,2.59-.75.31-.19,30.86-19.24,66.03-19.24,16.47,0,31.3,4.23,44.06,12.56.79.52,1.71.79,2.66.79s1.86-.27,2.64-.78c.32-.21,7.94-5.09,17.96-5.09,8.4,0,16,3.41,22.61,10.14.92.94,2.15,1.45,3.46,1.45s2.49-.49,3.4-1.39c1.91-1.88,1.94-4.96.06-6.87-8.52-8.67-18.4-13.06-29.38-13.06-9.03,0-16.47,2.98-20.63,5.1-13.75-8.32-29.48-12.54-46.76-12.54h0Z"></path></g></g></g></svg>