<svg xmlns="http://www.w3.org/2000/svg" id="Layer_2" data-name="Layer 2" viewBox="0 0 200 222.03"><defs><style>      .cls-1 {        fill: #fff;      }      .cls-2, .cls-3 {        fill: #473204;      }      .cls-4 {        fill: none;        stroke: #fff;      }      .cls-4, .cls-3 {        stroke-linecap: round;        stroke-linejoin: round;        stroke-width: 2px;      }      .cls-3 {        stroke: #473204;      }      .cls-5 {        fill: #76c04e;      }    </style></defs><g id="Layer_1-2" data-name="Layer 1"><g><g><circle class="cls-5" cx="100" cy="120.77" r="100"></circle><g><path class="cls-2" d="m121.26,191.25c-.45,0-.9-.12-1.3-.34-4.71-2.6-14.9-6.95-30.2-6.95-9.49,0-19.51,1.7-29.77,5.04-.28.09-.56.13-.85.13-.57,0-1.11-.17-1.56-.5-2.59-1.87-10.97-10.13-10.34-37.96,0-4.4-.03-29.84-.03-29.84,0-3.6,2.93-6.53,6.53-6.53h20.72c.48,0,.92-.22,1.21-.59.29-.38.39-.86.27-1.32l-4.66-17.8c-.27-1.02-.05-2.09.6-2.93.65-.84,1.63-1.32,2.68-1.32h.99c.29,0,.57-.12.77-.33.2-.21.3-.49.28-.79l-4.65-75.16c-.21-3.42.96-6.68,3.31-9.18,2.35-2.5,5.53-3.87,8.96-3.87h14.78c3.31,0,6.39,1.32,8.67,3.73,2.28,2.4,3.44,5.55,3.26,8.85l-4.11,76.97c0,.06.02.11.05.13.02.03.07.06.13.06l.65.02c.66.02,1.27.32,1.69.82.42.5.59,1.16.49,1.81l-3.2,19.4c-.03.25.1.44.18.53.08.09.26.25.54.25h21.41c3.93,0,7.13,3.2,7.13,7.13v36.38c0,7.25-1.19,14.05-3.54,20.2-2.57,6.75-5.86,11.33-9.78,13.62-.39.23-.83.35-1.29.35Z"></path><path class="cls-1" d="m99,2c6.27,0,11.26,5.26,10.93,11.52l-4.11,76.97c-.04.66.48,1.23,1.15,1.24l.65.02c.77.02,1.34.71,1.21,1.47l-3.2,19.4c-.13,1.03.67,1.94,1.71,1.94h21.41c3.39,0,6.13,2.74,6.13,6.13v36.38c0,6.77-1.06,13.53-3.47,19.85-1.99,5.22-4.98,10.56-9.35,13.11-.24.14-.51.21-.79.21s-.57-.07-.82-.21c-3.21-1.77-13.75-7.07-30.68-7.07-8.47,0-18.53,1.33-30.08,5.09-.18.06-.36.09-.54.09-.35,0-.69-.11-.98-.31-2.55-1.84-10.55-9.82-9.92-37.13,0-4.42-.03-29.86-.03-29.86h0c0-3.05,2.48-5.53,5.53-5.53h20.72c1.66,0,2.86-1.57,2.45-3.17l-4.66-17.8c-.4-1.51.75-3,2.31-3h.98c1.18,0,2.12-1,2.05-2.18l-4.65-75.16c-.4-6.5,4.76-11.99,11.27-11.99h14.78m0-2h-14.78c-3.71,0-7.15,1.49-9.69,4.19-2.54,2.7-3.81,6.23-3.58,9.93l4.65,75.16-.05.06h-.98c-1.37,0-2.64.62-3.48,1.71-.84,1.09-1.12,2.47-.77,3.79l4.66,17.8c.05.21-.02.36-.09.46-.07.09-.2.21-.42.21h-20.72c-4.15,0-7.53,3.38-7.53,7.53,0,.13.03,25.45.03,29.86-.63,27.5,7.31,36.26,10.75,38.75.63.45,1.37.69,2.15.69.39,0,.78-.06,1.16-.18,10.16-3.31,20.07-4.99,29.46-4.99,15.08,0,25.09,4.28,29.72,6.83.55.3,1.16.46,1.78.46s1.26-.17,1.8-.48c4.12-2.41,7.55-7.16,10.21-14.13,2.39-6.27,3.61-13.19,3.61-20.56v-36.38c0-4.48-3.65-8.13-8.13-8.13h-21.08l3.14-19.02c.15-.93-.1-1.88-.71-2.61-.56-.68-1.37-1.1-2.24-1.17l4.07-76.13c.19-3.58-1.06-6.99-3.53-9.59-2.47-2.6-5.8-4.04-9.39-4.04h0Z"></path></g><path class="cls-4" d="m118.1,179.11s10.51-6.45,8.85-32.26c0-2.58.18-26.08.18-26.08h-29.49v36.04"></path><path class="cls-1" d="m100.4,88.79l-17.41-.07-3.04-78.12c-.1-2.59,1.97-4.75,4.57-4.75h13.36c2.7,0,4.86,2.23,4.79,4.93l-2.25,78.02Z"></path><line class="cls-3" x1="94.62" y1="88.79" x2="96.71" y2="16.47"></line></g><g><path class="cls-2" d="m26.48,221.03c-1.03,0-2-.4-2.73-1.13-.73-.73-1.13-1.7-1.13-2.73s.4-2,1.13-2.73c1.25-1.25,31.05-30.66,65.83-30.66.6,0,1.19,0,1.79.03,15.77.47,29.94,7.11,42.14,19.73,7.03-5.37,14.29-8.08,21.58-8.08,1.1,0,2.23.06,3.33.19,9.98,1.13,19.26,7.39,27.58,18.61,1.27,1.71.91,4.13-.8,5.4-.67.5-1.47.76-2.3.76-1.21,0-2.37-.58-3.1-1.56-7-9.44-14.49-14.67-22.26-15.55-.8-.09-1.62-.14-2.43-.14-6.24,0-12.62,2.74-18.95,8.14-.29.25-.51.43-.66.55-.69.53-1.5.81-2.37.81-1.1,0-2.16-.47-2.89-1.3-11.29-12.73-24.44-19.4-39.09-19.85-.54-.02-1.09-.03-1.63-.03-31.64,0-60.05,28.12-60.33,28.4-.73.73-1.7,1.13-2.73,1.13Z"></path><path class="cls-1" d="m89.58,184.79c.59,0,1.17,0,1.77.03,15.77.47,29.92,7.22,42.07,20.07,7.09-5.6,14.35-8.43,21.68-8.43,1.07,0,2.14.06,3.22.18,9.69,1.1,18.74,7.23,26.89,18.22.94,1.27.68,3.06-.59,4-.51.38-1.11.56-1.7.56-.87,0-1.73-.4-2.29-1.15-7.18-9.67-14.9-15.03-22.95-15.94-.85-.1-1.69-.14-2.54-.14-6.5,0-13.07,2.81-19.6,8.38-.28.24-.49.41-.63.52-.52.4-1.14.6-1.75.6-.79,0-1.58-.33-2.14-.96-11.48-12.94-24.87-19.73-39.81-20.19-.55-.02-1.11-.03-1.66-.03-31.97,0-60.75,28.4-61.04,28.69-.56.56-1.29.84-2.02.84s-1.46-.28-2.02-.84c-1.12-1.12-1.12-2.92,0-4.04,1.26-1.26,30.73-30.37,65.12-30.37m0-2c-35.18,0-65.27,29.69-66.54,30.95-.92.92-1.42,2.14-1.42,3.43s.51,2.52,1.42,3.43c.92.92,2.14,1.42,3.43,1.42s2.52-.5,3.43-1.42c.28-.28,28.54-28.11,59.63-28.11.53,0,1.07,0,1.6.02,14.37.44,27.28,7,38.37,19.51.92,1.04,2.24,1.64,3.64,1.64,1.07,0,2.13-.36,2.98-1.02.16-.12.39-.32.69-.58,6.15-5.24,12.31-7.9,18.31-7.9.77,0,1.55.04,2.32.13,7.48.85,14.74,5.95,21.57,15.15.91,1.23,2.37,1.96,3.9,1.96,1.05,0,2.05-.33,2.89-.95,1.05-.78,1.72-1.91,1.91-3.19.19-1.28-.13-2.56-.91-3.61-8.5-11.45-18.01-17.85-28.27-19.01-1.14-.13-2.3-.19-3.44-.19-7.27,0-14.48,2.61-21.47,7.76-12.25-12.41-26.44-18.93-42.22-19.4-.61-.02-1.22-.03-1.83-.03h0Z"></path></g></g></g></svg>