<svg xmlns="http://www.w3.org/2000/svg" id="Layer_2" data-name="Layer 2" viewBox="0 0 200 205.91"><defs><style>      .cls-1 {        fill: #9d9d9d;      }      .cls-2 {        fill: #fff;      }      .cls-3 {        stroke: #333;      }      .cls-3, .cls-4 {        fill: #333;      }      .cls-3, .cls-5 {        stroke-linecap: round;        stroke-linejoin: round;        stroke-width: 2px;      }      .cls-5 {        fill: none;        stroke: #fff;      }    </style></defs><g id="Layer_1-2" data-name="Layer 1"><circle class="cls-1" cx="100" cy="102.96" r="100"></circle><g><g><g><path class="cls-4" d="m59.53,204.91c-5.77,0-15.82-4.34-25.01-10.79-12.05-8.46-19.27-22.23-19.32-36.84l1-.1h-1s0-36.48,0-36.48c0-3.93,3.2-7.13,7.13-7.13h21.41c.29,0,.46-.15.54-.25.08-.09.21-.29.18-.57l-3.2-19.37c-.11-.65.07-1.31.49-1.81s1.03-.8,1.69-.82l.65-.02c.06,0,.11-.03.13-.06.02-.03.05-.07.05-.13l-4.11-76.97c-.18-3.31.98-6.45,3.26-8.85,2.28-2.4,5.35-3.73,8.67-3.73h14.78c3.43,0,6.61,1.38,8.96,3.87s3.53,5.76,3.31,9.18l-4.65,75.16c-.02.29.08.57.28.79.2.21.47.33.77.33h.98c1.06,0,2.04.48,2.68,1.32.65.84.86,1.91.6,2.93l-4.66,17.8c-.12.46-.02.94.27,1.32s.73.59,1.21.59h20.72c3.6,0,6.53,2.93,6.53,6.53,0,0-.03,31.7-.03,36.12.23,10.3-.86,14.73-2.08,17.98-.74,1.97-1.75,3.94-2.99,5.86-15.23,23.44-36.82,24.12-39.23,24.12h0Z"></path><path class="cls-2" d="m66.86,2c6.51,0,11.68,5.49,11.27,11.99l-4.65,75.16c-.07,1.18.87,2.18,2.05,2.18h.98c1.57,0,2.71,1.48,2.31,3l-4.66,17.8c-.42,1.6.79,3.17,2.45,3.17h20.72c3.05,0,5.53,2.48,5.53,5.53,0,0-.03,31.7-.03,36.12.22,9.64-.73,14.19-2.01,17.62-.75,1.99-1.74,3.88-2.9,5.67-12.99,20-31.01,23.67-38.39,23.67h0c-5.55,0-15.54-4.37-24.43-10.61-11.73-8.24-18.85-21.69-18.89-36.03,0-.07,0-.14,0-.2v-36.38c0-3.38,2.74-6.13,6.13-6.13h21.41c1.04,0,1.84-.91,1.71-1.94l-3.2-19.4c-.12-.76.45-1.45,1.21-1.47l.65-.02c.67-.02,1.19-.58,1.15-1.24l-4.11-76.97c-.33-6.26,4.65-11.52,10.93-11.52h14.78m0-2h-14.78c-3.59,0-6.92,1.43-9.39,4.04-2.47,2.6-3.72,6.01-3.53,9.59l4.07,76.13c-.87.07-1.68.49-2.24,1.17-.6.73-.86,1.68-.71,2.61l3.14,19.02h-21.08c-4.48,0-8.13,3.65-8.13,8.13v36.59c.05,14.93,7.43,29.01,19.75,37.66,9.35,6.56,19.63,10.97,25.58,10.97,2.6,0,9.53-.44,17.97-4.53,8.8-4.26,16.23-11.01,22.11-20.04,1.29-1.98,2.33-4.02,3.09-6.05,1.25-3.34,2.38-7.88,2.14-18.37,0-4.38.03-36.08.03-36.08,0-4.15-3.38-7.53-7.53-7.53h-20.72c-.21,0-.35-.11-.42-.21-.07-.09-.15-.25-.09-.46l4.66-17.8c.35-1.33.07-2.71-.77-3.79-.84-1.09-2.1-1.71-3.48-1.71h-.98l-.05-.06,4.65-75.16c.23-3.7-1.04-7.23-3.58-9.93-2.54-2.7-5.98-4.19-9.69-4.19h0Z"></path></g><path class="cls-5" d="m85.77,179.11s10.51-6.45,8.85-32.26c0-2.58.18-26.08.18-26.08h-29.49v36.04"></path><path class="cls-2" d="m67.09,88.78l-15.48-.06c-.54,0-.97-.43-1-.96l-3.01-77.17c-.1-2.59,1.97-4.75,4.57-4.75h13.36c2.7,0,4.86,2.23,4.79,4.93l-2.23,77.05c-.02.54-.46.97-1,.97Z"></path><line class="cls-3" x1="62.29" y1="88.79" x2="64.38" y2="16.47"></line></g><g><g><path class="cls-4" d="m136.57,204.91c-3.53,0-6.81-1.42-9.23-3.99s-3.63-5.94-3.42-9.46l4.81-77.67c.02-.31-.09-.61-.3-.84-.21-.23-.51-.35-.82-.35h-1.02c-1.08,0-2.08-.49-2.75-1.35-.66-.86-.88-1.95-.61-3l4.81-20.01c.13-.51.03-1.01-.28-1.41s-.77-.63-1.28-.63h-18.14c-3.7,0-6.71-3.01-6.71-6.71,0,0,.04-24.65.04-29.22-.29-12.69.05-33.3,2.18-37.97,1.58-4.46,6.67-9.55,12.91-10.04h.18c.58,0,1.12.21,1.52.62.41.4.63.95.63,1.53l-.03,53.68.28.57c1.47,2.98,4.34,4.76,7.67,4.76,3.52,0,6.54-2.02,7.86-5.26l.02-.05c-.1-5.85,0-51.37,0-51.83v-.32s.58-.8.58-.8c1.92-2.64,4.9-4.16,8.16-4.16s6.44,1.64,8.32,4.38l.17.26v.35c-.04,5.3-.01,20.98,0,33.57.02,8.33.03,15.58.02,18.48l.29.34c1.84,2.17,4.52,3.42,7.37,3.42h0c3.01,0,5.77-1.35,7.61-3.7-.04-11.83-.2-49.95-.2-49.95v-2.57c0-1.18.97-2.14,2.16-2.14h.11c9.7.48,14.36,6.61,15.49,12.19.2,1.29.16,8.77.07,19.2-.03,3.52-.05,6.75-.05,8.86v35.96c0,4.04-3.29,7.33-7.33,7.33h-17.21c-.31,0-.5.17-.59.27s-.23.31-.19.62l3.31,21.66c.11.65-.08,1.32-.5,1.83s-1.05.82-1.72.83l-.67.02c-.08,0-.13.04-.16.07-.03.03-.06.08-.06.16l4.25,79.53c.18,3.41-1.01,6.65-3.36,9.12-2.35,2.48-5.52,3.84-8.93,3.84h-15.27Z"></path><path class="cls-2" d="m143.64,2c2.85,0,5.69,1.32,7.49,3.95,0,.01.01.02.01.04-.09,8.87.05,45.94.01,52.41l.52.62c2.14,2.53,5.14,3.77,8.13,3.77,3.25,0,6.49-1.47,8.61-4.37h0c-.04-11.43-.2-50.29-.2-50.29v-2.57c0-.64.53-1.14,1.16-1.14.02,0,.04,0,.06,0,9.04.45,13.47,5.97,14.56,11.39.28,1.8,0,20.87,0,27.87v35.95c0,3.5-2.84,6.33-6.33,6.33h-17.21c-1.07,0-1.9.94-1.77,2.01l3.31,21.68c.13.78-.46,1.5-1.25,1.52l-.67.02c-.69.02-1.23.6-1.19,1.29l4.25,79.53c.35,6.47-4.81,11.91-11.29,11.91h-15.27c-6.73,0-12.07-5.68-11.65-12.39l4.81-77.67c.08-1.22-.9-2.25-2.12-2.25h-1.02c-1.62,0-2.8-1.53-2.39-3.1l4.81-20.03c.43-1.66-.82-3.27-2.53-3.27h-18.14c-3.16,0-5.71-2.56-5.71-5.71h0s.04-24.65.04-29.22c-.3-13.28.13-33.25,2.09-37.55,1.59-4.47,6.43-9.02,12.08-9.46.03,0,.07,0,.1,0,.64,0,1.15.5,1.15,1.16l-.03,53.92s.14.28.38.78c1.76,3.56,5.17,5.32,8.57,5.32,3.6,0,7.19-1.98,8.79-5.88.03-.08.07-.16.1-.24-.11-4.91,0-52.01,0-52.01,0,0,.14-.2.39-.54,1.82-2.5,4.59-3.74,7.35-3.74M143.64,0c-3.59,0-6.86,1.66-8.97,4.57l-.39.54-.38.52v.65c0,1.88-.1,45.03,0,51.64-1.42,3.32-4.47,4.5-6.88,4.5-2.94,0-5.47-1.57-6.77-4.2l-.18-.36.03-53.45c0-.85-.33-1.65-.92-2.24-.59-.59-1.38-.91-2.23-.91-.08,0-.17,0-.26.01-6.7.53-11.99,5.77-13.78,10.71-2.33,5.35-2.48,27.38-2.24,38.34,0,4.53-.04,29.17-.04,29.17,0,4.26,3.46,7.72,7.71,7.72h18.14c.26,0,.42.15.48.24s.17.28.11.53l-4.82,20.07c-.34,1.31-.06,2.72.8,3.82s2.14,1.74,3.54,1.74h1.02s.05,0,.09.04c.04.04.03.08.03.09l-4.81,77.67c-.24,3.81,1.07,7.43,3.68,10.21,2.61,2.78,6.15,4.31,9.96,4.31h15.27c3.69,0,7.12-1.47,9.66-4.15,2.54-2.68,3.83-6.18,3.63-9.86l-4.21-78.73c.91-.06,1.75-.49,2.33-1.19.61-.74.87-1.7.71-2.64l-3.26-21.37h16.96c4.59,0,8.33-3.74,8.33-8.33v-35.95c0-2.11.03-5.39.05-8.86.09-10.81.13-18-.08-19.32v-.04s-.02-.04-.02-.04c-1.2-5.94-6.15-12.48-16.43-12.99-.05,0-.11,0-.16,0-1.74,0-3.16,1.41-3.16,3.14v2.57s.16,37.38.2,49.6c-1.65,1.95-4.02,3.06-6.61,3.06s-4.96-1.12-6.6-3.07l-.05-.06c0-3.11,0-10.12-.02-18.12-.02-12.59-.05-28.25,0-33.54v-.63s-.36-.56-.36-.56C150.72,1.8,147.3,0,143.64,0h0Z"></path></g><path class="cls-2" d="m152.32,114.24l-16.06.07c-.54,0-.97.43-1,.96l-3.11,79.77c-.11,2.68,2.04,4.91,4.72,4.91h13.8c2.79,0,5.03-2.3,4.95-5.09l-2.3-79.64c-.02-.54-.46-.97-1-.97Z"></path><line class="cls-3" x1="144.23" y1="114.24" x2="144.32" y2="188.96"></line></g></g></g></svg>