<svg xmlns="http://www.w3.org/2000/svg" id="Layer_2" data-name="Layer 2" viewBox="0 0 200 205.5"><defs><style>      .cls-1 {        fill: #9d9d9d;      }      .cls-2, .cls-3, .cls-4 {        stroke-width: 3px;      }      .cls-2, .cls-3, .cls-4, .cls-5, .cls-6 {        stroke-linecap: round;        stroke-linejoin: round;      }      .cls-2, .cls-5, .cls-7 {        fill: none;      }      .cls-2, .cls-5, .cls-6 {        stroke: #333;      }      .cls-3, .cls-4, .cls-7 {        stroke: #fff;      }      .cls-3, .cls-8 {        fill: #333;      }      .cls-4 {        fill: #fff;      }      .cls-5 {        stroke-width: 2.5px;      }      .cls-7 {        stroke-miterlimit: 10;        stroke-width: 6px;      }      .cls-9, .cls-6 {        fill: #606060;      }      .cls-6 {        stroke-width: 1.5px;      }    </style></defs><g id="Layer_1-2" data-name="Layer 1"><circle class="cls-1" cx="100" cy="105.5" r="100"></circle><g><g><path class="cls-3" d="m97.61,82.4h.01s-2.97-11.22-2.97-11.22c-.02-.07-.05-.15-.07-.22-4.6-.23-17.64-1.83-26.35-12.28-7.87-9.45-9.94-23.42-6.14-41.5.21-1,1.12-1.69,2.14-1.63l.37.02c9.45.44,26.34,2.94,33.27,14.75,4.58,7.81,3.81,18.14-2.3,30.71.49,1.38,1.32,3.84,2.26,6.67.16.21.28.45.35.72l.42,1.59c.58,1.75,1.18,3.56,1.75,5.28,1.54-3.56,3.25-7.52,3.55-8.18.41-.91,4.68-11.45,5.65-11.19,14.39,3.74,22.62,11.89,30.88,4.4,16.22-14.71,15.86-46.3,15.46-54.46-24.12,2.77-39.47,9.98-45.64,21.45-6.76,12.57.24,26.23.31,26.37.53,1.01.14,2.25-.87,2.78-1.01.53-2.25.14-2.78-.86-.33-.63-8.1-15.68-.32-30.2,7.02-13.1,24.18-21.13,50.99-23.86,1.08-.11,2.07.65,2.24,1.73.06.39,3.8,41.58-16.63,60.11-9.01,8.18-21.19,10.53-36.23,7.02-1.18,2.7-3.48,8.06-4.67,10.81.26.79.49,1.48.67,2.04m-37.19-63.46c-3.05,15.94-1.16,28.14,5.63,36.29,6.77,8.12,16.81,10.16,21.76,10.67-.83-2.46-1.48-4.37-1.75-5.08-.2-.54-.17-1.14.08-1.65,5.8-11.61,6.75-20.89,2.82-27.59-5.79-9.88-20.97-12.14-28.54-12.65Z"></path><path class="cls-7" d="m99.45,85.56s-2.52-19.39-8.9-29.22"></path><path class="cls-7" d="m96.75,90.74s10.16-30.52,20.32-40.64"></path><path class="cls-6" d="m105.77,67.95s39.22,13.43,49-29.52c1.83-8.44,5.58-29.99,3.02-34.87-5.67.68-48.15,7.29-50.88,26.13-.76,2.43-4.28,19.53,2.11,24.24,3.2,2.42,2.63,2.31,2.63,2.31l-5.87,11.71Z"></path><g><path class="cls-9" d="m94.72,68.82c-10.46,0-18.55-3.38-24.05-10.05-12.25-14.86-7.35-41.06-7.3-41.32.07-.35.38-.61.74-.61h.02c14.09.3,23.89,4.38,29.13,12.13,8.35,12.35,2.08,29.35,1.81,30.07-.11.29-.39.48-.7.48h0s-.02.04-.08.16c-.18.39-.56,2.14,2.19,8.06.11.23.09.5-.04.71s-.37.35-.62.35c-.36,0-.72.01-1.08.01h0Z"></path><path class="cls-8" d="m64.11,17.59c45.43.96,30.25,41.18,30.25,41.18,0,0,0,0,0,0-.08,0-2.86.07,1.43,9.29-.36,0-.71.01-1.07.01-39.06,0-31.17-47.61-30.61-50.48m0-1.5c-.72,0-1.34.51-1.47,1.21-.05.27-5.02,26.82,7.46,41.95,5.65,6.85,13.94,10.32,24.63,10.32.36,0,.73,0,1.1-.01.51-.01.97-.28,1.24-.71.27-.43.3-.97.09-1.43-2.29-4.92-2.3-6.76-2.23-7.27.38-.15.69-.46.84-.86.28-.73,6.67-18.08-1.89-30.75-5.38-7.96-15.38-12.15-29.73-12.46-.01,0-.02,0-.03,0h0Z"></path></g><path class="cls-8" d="m97.61,82.4h.01s-2.97-11.22-2.97-11.22c-.02-.07-.05-.15-.07-.22-4.6-.23-17.64-1.83-26.35-12.28-7.87-9.45-9.94-23.42-6.14-41.5.21-1,1.12-1.69,2.14-1.63l.37.02c9.45.44,26.34,2.94,33.27,14.75,4.58,7.81,3.76,22.22-2.3,30.71.49,1.38,1.32,3.84,2.26,6.67.16.21.28.45.35.72l.42,1.59c.58,1.75,1.18,3.56,1.75,5.28,1.54-3.56,3.25-7.52,3.55-8.18.41-.91,1.42-1.39,2.39-1.14,14.39,3.74,25.88,1.83,34.14-5.66,16.22-14.71,15.86-46.3,15.46-54.46-24.12,2.77-39.47,9.98-45.64,21.45-6.76,12.57.98,26.83,1.05,26.97.53,1.01.14,2.25-.87,2.78-1.01.53-2.25.14-2.78-.86-.33-.63-8.84-16.28-1.06-30.8,7.02-13.1,24.18-21.13,50.99-23.86,1.08-.11,2.07.65,2.24,1.73.06.39,3.8,41.58-16.63,60.11-9.01,8.18-21.19,10.53-36.23,7.02-1.18,2.7-3.48,8.06-4.67,10.81.26.79.49,1.48.67,2.04m-37.19-63.46c-3.05,15.94-1.16,28.14,5.63,36.29,6.77,8.12,16.81,10.16,21.76,10.67-.83-2.46-1.48-4.37-1.75-5.08-.2-.54-.17-1.14.08-1.65,5.8-11.61,6.75-20.89,2.82-27.59-5.79-9.88-20.97-12.14-28.54-12.65Z"></path><path class="cls-2" d="m75.08,30.01s17.28,17.66,24.58,52.06c.32-.15,1.78-5.79,5.59-14,8.35-17.97,18.81-35.71,36.43-48.64"></path><path class="cls-5" d="m113.61,63.45s37.85,9.2,38.33-53.13"></path><path class="cls-5" d="m88.38,61.61s-25.22-3.87-19.87-37.56"></path></g><path class="cls-8" d="m160.22,79.65H39.78c-6.02,0-10.9,4.88-10.9,10.9l1.91,25.52c0,5.34,4.3,9.69,9.65,9.75l6.32.09c1.44.02,2.66,1.08,2.87,2.51l8.2,55.14c.45,3,3.02,5.21,6.05,5.21h72.25c3.03,0,5.6-2.22,6.05-5.21l8.2-55.14c.21-1.43,1.43-2.49,2.87-2.51l6.32-.09c5.34-.06,9.65-4.4,9.65-9.75l1.91-25.52c0-6.02-4.88-10.9-10.9-10.9Z"></path><line class="cls-4" x1="41.09" y1="87.78" x2="158.91" y2="87.78"></line></g></g></svg>