<svg xmlns="http://www.w3.org/2000/svg" id="Layer_2" data-name="Layer 2" viewBox="0 0 200 200"><defs><style>      .cls-1 {        fill: #9d9d9d;      }      .cls-2, .cls-3, .cls-4, .cls-5 {        fill: #333;      }      .cls-2, .cls-3, .cls-4, .cls-6, .cls-7 {        stroke: #fff;      }      .cls-2, .cls-3, .cls-8, .cls-9, .cls-10 {        stroke-linecap: round;        stroke-linejoin: round;      }      .cls-2, .cls-4 {        stroke-width: 2px;      }      .cls-3, .cls-8 {        stroke-width: 4px;      }      .cls-4, .cls-6, .cls-7 {        stroke-miterlimit: 10;      }      .cls-8, .cls-6, .cls-9, .cls-7 {        fill: none;      }      .cls-8, .cls-9, .cls-10 {        stroke: #333;      }      .cls-6 {        stroke-width: 10px;      }      .cls-9 {        stroke-width: 6px;      }      .cls-11, .cls-10 {        fill: #606060;      }      .cls-7 {        stroke-width: 9.5px;      }      .cls-10 {        stroke-width: 1.5px;      }    </style></defs><g id="Layer_1-2" data-name="Layer 1"><g><circle class="cls-1" cx="100" cy="100" r="100"></circle><g><path class="cls-3" d="m94.67,107.79h.01s-2.92-11.02-2.92-11.02c-.02-.07-.05-.14-.07-.22-4.52-.23-17.33-1.8-25.88-12.07-7.73-9.29-9.76-23-6.04-40.76.21-.98,1.1-1.66,2.1-1.6l.36.02c9.28.43,25.87,2.89,32.68,14.49,4.5,7.67,3.74,17.81-2.25,30.17.48,1.36,1.3,3.78,2.22,6.55.15.2.27.44.34.7l.41,1.56c.57,1.72,1.16,3.49,1.72,5.19,1.51-3.5,3.19-7.38,3.48-8.03.41-.89,4.59-11.24,5.55-10.99,14.14,3.67,22.22,11.68,30.33,4.32,15.93-14.45,15.58-45.48,15.19-53.49-23.69,2.72-38.77,9.8-44.83,21.07-6.64,12.34.24,25.77.31,25.9.52.99.14,2.21-.85,2.73-.99.52-2.21.14-2.73-.84-.33-.62-7.95-15.4-.31-29.66,6.9-12.87,23.75-20.76,50.08-23.44,1.07-.11,2.03.64,2.2,1.7.06.39,3.73,40.84-16.34,59.04-8.85,8.03-20.82,10.35-35.59,6.89-1.15,2.66-3.42,7.91-4.58,10.61.26.78.48,1.45.66,2m-36.53-62.33c-2.99,15.66-1.14,27.64,5.53,35.64,6.65,7.98,16.51,9.98,21.38,10.48-.81-2.41-1.45-4.29-1.72-4.99-.2-.53-.17-1.12.08-1.62,5.69-11.4,6.63-20.52,2.77-27.09-5.69-9.7-20.59-11.92-28.03-12.42Z"></path><path class="cls-7" d="m96.47,110.9s-2.48-19.04-8.74-28.7"></path><path class="cls-6" d="m93.82,115.99s9.98-29.98,19.96-39.91"></path><path class="cls-10" d="m102.68,93.6s38.53,13.2,48.13-28.99c1.8-8.29,5.48-29.45,2.97-34.25-5.56.67-47.3,7.16-49.98,25.67-.75,2.39-4.2,19.18,2.07,23.8s2.58,2.27,2.58,2.27l-5.77,11.5Z"></path><g><path class="cls-11" d="m91.83,94.47c-10.28,0-18.23-3.32-23.63-9.88-12.04-14.6-7.22-40.34-7.17-40.6.07-.35.38-.61.74-.61h.02c13.85.29,23.48,4.3,28.62,11.92,7.92,11.72,2.45,27.69,1.82,29.42,0,.75.08,4.77,1.37,8.76.07.23.03.47-.1.67-.14.19-.36.31-.59.32-.36,0-.71.01-1.06.01h0Z"></path><path class="cls-5" d="m61.76,44.14c44.63.95,29.71,40.45,29.71,40.45,0,0-.07,4.55,1.41,9.12-.35,0-.7.01-1.05.01-38.36,0-30.62-46.76-30.07-49.58m0-1.5c-.72,0-1.34.51-1.47,1.21-.05.26-4.93,26.35,7.33,41.22,5.55,6.73,13.7,10.15,24.21,10.15.36,0,.71,0,1.08-.01.47-.01.91-.24,1.19-.63.27-.39.35-.88.21-1.33-1.19-3.7-1.32-7.43-1.33-8.4.83-2.33,6-18.2-1.95-29.96-5.29-7.83-15.12-11.95-29.23-12.25-.01,0-.02,0-.03,0h0Z"></path></g><path class="cls-5" d="m94.67,107.79h.01s-2.92-11.02-2.92-11.02c-.02-.07-.05-.14-.07-.22-4.52-.23-17.33-1.8-25.88-12.07-7.73-9.29-9.76-23-6.04-40.76.21-.98,1.1-1.66,2.1-1.6l.36.02c9.28.43,25.87,2.89,32.68,14.49,4.5,7.67,3.74,17.81-2.25,30.17.48,1.36,1.3,3.78,2.22,6.55.15.2.27.44.34.7l.41,1.56c.57,1.72,1.16,3.49,1.72,5.19,1.51-3.5,3.19-7.38,3.48-8.03.41-.89,1.39-1.37,2.35-1.12,14.14,3.67,25.42,1.8,33.53-5.56,15.93-14.45,15.58-45.48,15.19-53.49-23.69,2.72-38.77,9.8-44.83,21.07-6.64,12.34.24,25.77.31,25.9.52.99.14,2.21-.85,2.73-.99.52-2.21.14-2.73-.84-.33-.62-7.95-15.4-.31-29.66,6.9-12.87,23.75-20.76,50.08-23.44,1.07-.11,2.03.64,2.2,1.7.06.39,3.73,40.84-16.34,59.04-8.85,8.03-20.82,10.35-35.59,6.89-1.15,2.66-3.42,7.91-4.58,10.61.26.78.48,1.45.66,2m-36.53-62.33c-2.99,15.66-1.14,27.64,5.53,35.64,6.65,7.98,16.51,9.98,21.38,10.48-.81-2.41-1.45-4.29-1.72-4.99-.2-.53-.17-1.12.08-1.62,5.69-11.4,6.63-20.52,2.77-27.09-5.69-9.7-20.59-11.92-28.03-12.42Z"></path><path class="cls-9" d="m72.54,56.34s16.98,17.34,24.15,51.14c.32-.15,2.28-5.8,6-13.87,6.39-13.89,17.97-34.96,35.28-47.65"></path><path class="cls-8" d="m110.38,89.18s37.18,9.03,37.65-52.18"></path><path class="cls-8" d="m85.04,88.23s-24.77-3.8-19.52-36.89"></path></g><path class="cls-2" d="m166.8,108.7c.78-.29,1.61.33,1.54,1.16-2.46,28.92-23,53.41-51.19,60.79-36.55,9.56-74.5-12.65-84.06-49.2-2.3-8.8-3.59-22.11-1.58-26.98,0,0,.95-10.52,77.64,15.21,27.25,8.72,51.24,1.34,57.65-.99Z"></path><path class="cls-4" d="m100.11,191.07c-19.93,0-39.22-6.73-55.23-19.41-18.74-14.85-30.55-35.97-33.27-59.46-.73-6.29-.78-11.68-.16-17.98.24-2.42,2.4-4.18,4.81-3.95,2.42.24,4.19,2.39,3.95,4.81-.56,5.68-.51,10.44.14,16.11,4.73,40.86,39.53,71.08,79.71,71.08,3.07,0,6.17-.18,9.29-.54,38.53-4.46,68.05-36.03,69.97-74.78.12-2.43,2.19-4.3,4.61-4.18,2.43.12,4.3,2.19,4.18,4.61-1.04,20.96-8.57,40-23.02,55.42-14.45,15.43-33.89,25.25-54.73,27.66-3.43.4-6.85.59-10.26.59Z"></path></g></g></svg>