<svg xmlns="http://www.w3.org/2000/svg" id="Layer_2" data-name="Layer 2" viewBox="0 0 200 200"><defs><style>      .cls-1, .cls-2 {        fill: #fff;      }      .cls-3 {        fill: #473204;      }      .cls-4 {        fill: #73bf44;      }      .cls-2 {        stroke: #fff;        stroke-miterlimit: 10;      }      .cls-2, .cls-5 {        stroke-width: 2px;      }      .cls-6 {        fill: #009355;      }      .cls-6, .cls-5, .cls-7 {        stroke: #473204;        stroke-linecap: round;        stroke-linejoin: round;      }      .cls-5, .cls-7 {        fill: none;      }      .cls-7 {        stroke-width: 3px;      }    </style></defs><g id="Layer_1-2" data-name="Layer 1"><circle class="cls-3" cx="100" cy="100" r="100"></circle><path class="cls-4" d="m168.13,66.44c-13.12.85-28.52,1.53-39.15,13.85-14.22-6.43-27.65-24.34-59.3-27.43C14.45,52.86,1.92,77.59,5.45,67.36,18.98,28.16,56.2,0,100,0s84.52,30.88,96.31,72.98c-3.13,3.84-11.51-6.23-28.17-6.54Z"></path><path class="cls-1" d="m127.36,81.91c-.43,0-.84-.17-1.14-.47-3.64-3.63-7.46-6.95-11.37-9.87-51.07-38.03-109.9-1.27-110.48-.9l.8-2.51.72-2.06c.09-.06.46-.25.77-.41,14.31-7.63,65.02-30.3,110.12,3.29,3.64,2.71,7.21,5.76,10.62,9.09,6.79-5.58,34.78-21.74,67.88-6.58.4.18.46.2.68.31l.45,1.54.69,2.63c-35.52-18.36-65.27,1.74-68.53,5.4-.3.33-.72.53-1.16.54-.02,0-.03,0-.05,0Z"></path><path class="cls-2" d="m115.66,76.23s.08,15.19,5.94,24.11c1.33,2.03,3.18,3.66,5.23,4.96,8.47,5.37,25.28,16.8,26.26,29.14.09,2.73,2.21,24.96-28.57,35.55-7.69,2.64-15.79,3.8-23.92,3.8-10.6,0-26.49-1.44-38.7-8.91-11.56-7.07-18.03-20.49-15.22-33.75,1.48-6.98,5.65-14.65,15.62-20.41,3.69-2,19.94-7.21,20.04-32.69.63-11.92.42-21.72.42-21.72l10.72,2.26,21.78,11.77.41,5.89Z"></path><path class="cls-6" d="m69.59,121.06l-2.74,1.2c-2.32,1.02-5.71,2.75-6.75,5.07l-1.78,7.5c-.21.48-.29,1-.22,1.52l.5,8.78c.28,2.06,3.83,7.23,5.37,8.63l6.66,5.44c.3.27.64.47,1.02.59,2.72.87,14.53,4.46,24.73,4.46,7.79,0,15.06-1.55,19.71-2.82,3.1-.85,6.86-2.01,9.28-4.17.21-.19.43-.34.69-.46l2.71-1.22c.38-.17.72-.42.99-.73,5.65-6.56,8.81-14.9,8.91-23.57h0c-1.58-3.2-3.73-8.05-6.83-9.81l-8.43-3.96c-2.76-.98-5.74-1.11-8.57-.37-.16.04-.32.1-.47.17l-6.17,1.34c-.22.1-5.64,3.74-5.87,3.78l-8.36,4.97c-1.79,1.04-2.29.56-4.2-.22-2.22-.9-5.22-2.23-5.48-2.32l-9.43-3.34c-1.36-.53-2.81-.77-4.27-.71-.34.01-.68.11-.99.24Z"></path><path class="cls-7" d="m98.47,72.17s-10.32,11.19-3.99,20.05c1.69,2.11,13.54,18.78,8.05,28.06-.37.86-3.56,3.47-7.25,5.66-2.65,1.57-5.36,2.47-7.04,1.28-1.7-1.23-20.2-14.34-28.18.86-1.89,3.6-2.64,7.71-2.28,11.75.66,7.2,4.76,19.47,26.14,23.56,1.98.44,19.12,2.56,33.54-2.07,9.7-3.12,17.4-10.84,20.26-20.61,1.91-6.53,1.66-14.19-7.36-19.79-1.37-.94-2.88-1.68-4.45-2.21-3.12-1.05-8.78-2.39-15.27-.86-3.02.71-5.7,2.4-7.95,4.53-2.65,2.52-7.49,6-13.45,5.28"></path><path class="cls-5" d="m67.17,140.73s3.71,15.65,28.6,15.91c4.74.05,9.48-.59,14.02-1.95,7.08-2.12,15.92-6.27,19.63-17.58"></path></g></svg>