<svg xmlns="http://www.w3.org/2000/svg" id="Layer_2" data-name="Layer 2" viewBox="0 0 200 200"><defs><style>      .cls-1 {        fill: #fff;      }      .cls-2 {        stroke: #fff;        stroke-width: 2px;      }      .cls-2, .cls-3, .cls-4, .cls-5 {        stroke-linecap: round;        stroke-linejoin: round;      }      .cls-2, .cls-6 {        fill: #473204;      }      .cls-3 {        stroke-width: 6px;      }      .cls-3, .cls-4, .cls-5 {        fill: none;        stroke: #473204;      }      .cls-4 {        stroke-width: 5px;      }      .cls-7 {        fill: #76c04e;      }      .cls-5 {        stroke-width: 3px;      }      .cls-8 {        fill: #009355;      }    </style></defs><g id="Layer_1-2" data-name="Layer 1"><g><circle class="cls-7" cx="100" cy="100" r="100"></circle><g><path class="cls-2" d="m153.2,119.26c4.77-9.51,17.3-34.78,21.5-45.99.09-.25-.11-.5-.37-.49-6.47.32-7.63-.82-12.92,16.89-3.6,11.73-7.11,23.4-8.88,29.31-.13.43.48.67.68.27Z"></path><path class="cls-6" d="m106.66,13.94h0,0m-1.31,1.88c24.61,7.25,27.76,17.66,29.48,23.33l.03.09c6.28,23.23-13.58,37.08-14.2,37.5-1.24.75-2.12,1.94-2.52,3.28-12.76-5.86-20.58-13.74-23.26-23.44-4.49-16.24,6.07-34.22,10.47-40.76m-1.37-6.23c-.75,0-1.47.36-1.93.99-6.14,8.44-35.66,53.67,15.93,75.61-.1,2.02-1.75,19.04-12.46,39.02-.33,1.93-.09,2.7.5,2.7,2.25,0,9.62-11.35,9.62-11.35,0,0,9.54-22.84,8-34.94,1.51-.89,24.03-17.17,16.72-43.96-1.97-6.49-5.77-19.83-35.76-27.99-.2-.06-.41-.08-.62-.08h0Z"></path><path class="cls-1" d="m106,129.35c-.59,0-1.11-.24-1.49-.69-.61-.72-.73-1.82-.42-3.68.03-.15.08-.3.15-.44,9.65-18,11.8-33.49,12.21-37.45-15.52-6.82-25.1-16.44-28.46-28.61-5.77-20.88,8.41-42.59,12.89-48.74.92-1.26,2.57-1.85,4.07-1.44,30.5,8.3,34.69,22.14,36.7,28.79l.05.17c7.03,25.79-12.38,41.92-16.58,45.05,1.06,12.49-7.8,33.89-8.19,34.82-.03.08-.07.16-.12.23-5.17,7.97-8.81,12.01-10.82,12.01Zm.87-3.67s0,.04,0,.06c1.79-1.73,4.96-5.97,7.48-9.84.73-1.77,9.27-22.95,7.85-34.1-.07-.57.2-1.12.69-1.41.24-.14,23.35-15.66,16.07-42.35l-.04-.13c-1.86-6.16-5.75-18.98-34.71-26.86-.37-.1-.79.05-1.02.37-3.06,4.2-18.02,26.15-12.45,46.3,3.19,11.53,12.53,20.67,27.78,27.16.55.23.9.79.87,1.38,0,.18-.99,17.82-12.52,39.42Zm8.74-9.11h0,0Z"></path><path class="cls-8" d="m120.04,84.65s25.25-30,18.8-41.25c-5.78-12.99-9.5-18.6-9.5-18.6l-23.44-12.71-6.39,5.79-5.83,15.08-3.95,5.78-16.16-1.82-17.34,8.48,13.42,28.66c.67,1.2,15.81,8.05,17.18,8.09l21.14-2.19,12.06,4.69Z"></path><path class="cls-5" d="m127.06,64.63s11.89-22.87-6.02-36.67"></path><path class="cls-3" d="m110.25,23.22s17.51,37.66,8.47,75.32"></path><path class="cls-4" d="m95.34,66.18s-5.31-14.8-28.87-16.66"></path><path class="cls-5" d="m94.6,75.33s-18.44,1.38-27.2-18.97"></path><g><path class="cls-6" d="m93.1,85.24c-5.14,0-11.11-.96-16.94-4.07-10.91-5.81-18.32-17.45-22.04-34.6-.19-.88.05-1.8.64-2.48.17-.19,18.48-18.46,37.78-6.7,1.35.82,1.77,2.58.95,3.93-.82,1.35-2.58,1.77-3.93.95-12.92-7.87-25.85,1.59-29.5,4.69,3.44,14.55,9.75,24.36,18.78,29.17,12.64,6.73,26.47,1.35,26.61,1.3,1.47-.58,3.13.13,3.71,1.6.58,1.47-.13,3.13-1.6,3.71-.4.16-6.43,2.5-14.46,2.5Z"></path><path class="cls-1" d="m93.09,86.67c-6.41,0-12.33-1.42-17.61-4.23-11.3-6.01-18.96-17.97-22.77-35.56-.29-1.32.07-2.71.96-3.72.18-.2,19.33-19.34,39.6-6.98,2.02,1.23.68,2.72-.54,4.74-1.23,2.02-1.2-.08-3.22-1.3-11.42-6.96-37.23,3.33-31.81,9.91,3.38,13.66,12.04,24.63,20.52,29.14,11.97,6.37,31.84,3.31,28.94-1.23-1.26-1.99,2.44-1.12,3.31,1.07.42,1.06.41,2.23-.04,3.28-.45,1.05-1.29,1.86-2.35,2.29-.67.27-6.78,2.6-14.99,2.6h0Zm-14.17-51.76c-12.84,0-23.01,10.03-23.14,10.16-.26.3-.38.76-.28,1.2,3.62,16.72,10.8,28.04,21.32,33.64,4.86,2.59,10.34,3.9,16.27,3.9h0c7.82,0,13.69-2.3,13.94-2.4.35-.14.63-.41.78-.76.15-.35.16-.74.01-1.09-.29-.73-1.12-1.09-1.86-.8-.15.06-14.61,5.66-27.81-1.37-9.41-5.01-15.97-15.13-19.5-30.1l-.2-.85.67-.57c3.84-3.25,17.43-13.2,31.17-4.82.67.41,1.55.2,1.96-.48.41-.67.2-1.55-.48-1.96-4.4-2.68-8.77-3.7-12.86-3.7Z"></path></g><path class="cls-6" d="m106.65,13.9h0,0m-1.31,1.88c24.61,7.25,27.76,17.66,29.48,23.33l.03.09c6.28,23.23-13.58,37.08-14.2,37.5-1.24.75-2.12,1.94-2.52,3.28-12.76-5.86-20.58-13.74-23.26-23.44-4.49-16.24,6.07-34.22,10.47-40.76m-1.37-6.23c-.75,0-1.47.36-1.93.99-6.14,8.44-35.66,53.67,15.93,75.61-.1,2.02-1.75,19.04-12.46,39.02-.33,1.93-.09,2.7.5,2.7,2.25,0,9.62-11.35,9.62-11.35,0,0,9.54-22.84,8-34.94,1.51-.89,24.03-17.17,16.72-43.96-1.97-6.49-5.77-19.83-35.76-27.99-.2-.06-.41-.08-.62-.08h0Z"></path><path class="cls-2" d="m48.43,172.77c7.67-3.24,84.14-35.71,95.92-47.35.06-.06.1-.12.13-.19,3.11-8.39,14.88-45.66,16.3-53.93.06-.36-.25-.68-.61-.63-13.52,1.86-17.42-1.57-22.82,18.04,0,0-5.22,18.91-14.39,21.64-6.68,1.99-20.53,6.44-27.55,8.71-.6.19-.99-.62-.46-.97,5.51-3.56,15.09-10.42,15.45-15.31.31-2.4,1.12-5.56,1.42-14,.01-.38-.35-.66-.71-.54-7.91,2.7-56.98,19.46-60.01,36.48-2.75,16.02-5.29,36.54-3.4,47.63.06.34.42.54.74.4Z"></path><path class="cls-6" d="m93.1,85.24c-5.14,0-11.11-.96-16.94-4.07-10.91-5.81-18.32-17.45-22.04-34.6-.19-.88.05-1.8.64-2.48.17-.19,18.48-18.46,37.78-6.7,1.35.82,1.77,2.58.95,3.93-.82,1.35-2.58,1.77-3.93.95-12.92-7.87-25.85,1.59-29.5,4.69,3.44,14.55,9.75,24.36,18.78,29.17,12.64,6.73,26.47,1.35,26.61,1.3,1.47-.58,3.13.13,3.71,1.6.58,1.47-.13,3.13-1.6,3.71-.4.16-6.43,2.5-14.46,2.5Z"></path></g></g></g></svg>