<svg xmlns="http://www.w3.org/2000/svg" id="Layer_2" data-name="Layer 2" viewBox="0 0 800 799.99"><defs><style>      .cls-1 {        fill: #fff;      }    </style></defs><g id="Layer_1-2" data-name="Layer 1"><path class="cls-1" d="m380.84,799.57c-33.36-1.66-66.38-7.41-98.33-17.13-3.7-1.39-7.43-2.68-11.2-3.87-106.77-35.13-197.3-119.8-240.87-225.27C12.57,510.27,2.42,464.43.44,417.87.17,412.57.04,341.54,0,224.67,0,23.67-.16,37.91,2.34,30.11,7.67,13.14,22.44,1.67,40.8.17c14.03-1.13,23.33,2.93,53.43,23.3,18.73,12.67,37.3,26,59.87,42.97,10.5,7.9,11.77,8.7,12.53,8.23l11.67-7.67c19.33-12.7,37-22.57,56.67-31.5,28.94-13.09,59.35-22.66,90.57-28.5,22.43-4.3,45.2-6.53,68.03-6.67,38-.53,69.23,3.03,105.07,12,118.33,29.6,217.93,113.7,267.6,226,16.4,37.1,28.17,81,31.5,117.4,1.1,12.2,1.3,14.33,1.77,20.37.27,3.5.5,13.53.5,22.3,0,26.1-2.17,52.33-5.63,68.8-.58,2.88-1.09,5.77-1.53,8.67-1.87,12.6-7.13,32.9-13.3,51.17-6.83,20.43-12.23,33.3-22.8,54.43-21.94,43.18-51.57,81.99-87.43,114.53-14.67,13.2-27.63,23.5-42,33.43-21.57,14.83-43.57,27.07-67.97,37.8-20,8.83-48,17.97-70.03,22.87-12.96,2.94-26.07,5.19-39.27,6.73-22.95,2.86-46.1,3.78-69.2,2.73h0Zm-20.33-197.33c9.8-2,22.6-6.97,28.8-11.23,4.8-3.3,14.27-12.53,68.8-67.1,19.45-19.63,39.05-39.11,58.8-58.43.57,0,56.23-55.67,56.23-56.3,0-.67,54.67-54.93,55.37-54.93.33,0,2.1-1.57,3.93-3.53,15.57-16.5,22.73-31.9,23.87-51.57.87-14.43-2-30.3-7.23-39.87-7.47-14.25-18.84-26.08-32.77-34.13-9.37-5.43-17.07-7.77-29.6-9-10.2-1.03-22.93,0-31.6,2.5-8.1,2.33-20.1,9.13-28.43,16.03-1.4,1.17-42.63,42.17-91.6,91.1l-89.03,89-36.43-36.33c-20-20-37.33-37.13-38.5-38.07-12.81-10.04-28.36-15.96-44.6-17-13.47-.43-30.33,3-40.8,8.33-8.14,4.74-15.54,10.65-21.97,17.53-3.6,4-9.57,11.9-9.67,12.83-.1,1-.3,1.47-2.17,5.33-4.53,9.5-7.07,19.82-7.47,30.33-.37,7.63-.33,8.83.63,16.37,1.5,11.77,8,26.03,17,37.17,1.67,2.1,32.33,33.07,68.13,68.8,50.23,50.17,66,65.67,69.13,67.97,10.9,8,22.77,12.93,36.7,15.2,6.07,1,16.67.53,24.47-1h0Z"></path></g></svg>