<svg xmlns="http://www.w3.org/2000/svg" id="Layer_2" data-name="Layer 2" viewBox="0 0 47.37 48.58"><defs><style>      .cls-1 {        fill: #fff;      }    </style></defs><g id="Layer_1-2" data-name="Layer 1"><path id="Path_37765" data-name="Path 37765" class="cls-1" d="m20.02,18.52c-.81.31-1.51.85-2.03,1.54-.93,1.19-1.31,2.71-1.04,4.2.15.91.71,1.71,1.52,2.17.17.1.24.19.08.36-1.09,1.14-1.74,2.64-1.83,4.22-.17,1.75.32,3.51,1.39,4.91.52.68,1.17,1.25,1.91,1.69.08-.47.14-.92.23-1.36.31-1.54,1.04-2.97,2.11-4.12,1.27-1.35,2.79-2.44,4.47-3.22,1.6-.79,3.24-1.5,4.85-2.27,1.42-.64,2.73-1.49,3.91-2.51,1.61-1.44,2.7-3.38,3.11-5.5.24-1.11.35-2.25.32-3.38.02-3.04-1.26-5.94-3.52-7.98-1.46-1.31-3.25-2.18-5.19-2.51-1.94-.33-3.92-.2-5.8.36-2.64.8-5.09,2.12-7.22,3.88-2.03,1.62-3.84,3.52-5.36,5.63-2.18,2.95-3.74,6.3-4.61,9.86-.53,2.16-.74,4.38-.61,6.59.1,2.34.75,4.62,1.9,6.66,1.13,1.91,2.75,3.48,4.71,4.54,1.52.84,3.16,1.43,4.86,1.75,1.38.28,2.78.41,4.18.4,2.3,0,4.58-.5,6.65-1.5,1.3-.66,2.52-1.47,3.63-2.41,3.08-2.62,5.78-5.65,8.03-9.02,1.09-1.67,2.29-3.26,3.57-4.79.86-.99,1.82-1.9,2.85-2.71.06-.04.13-.07.2-.1.03.08.06.16.07.24,0,3.82.04,7.64-.01,11.46-.04,2.53-.84,4.99-2.29,7.07-1.58,2.36-3.87,4.14-6.54,5.09-1.42.52-2.92.79-4.43.79-6.93,0-13.86.01-20.79,0-2.94.01-5.79-.97-8.09-2.8-2.67-2.04-4.46-5.03-5-8.35-.12-.7-.18-1.4-.18-2.11-.01-7.34-.05-14.68,0-22.01C0,9.03,2.05,5.01,5.55,2.55c1.53-1.14,3.3-1.92,5.18-2.27.8-.16,1.61-.25,2.42-.26C20.16,0,27.18-.01,34.2.02c3.21,0,6.3,1.2,8.66,3.37,2.25,1.97,3.76,4.66,4.28,7.61.13.71.2,1.43.21,2.16.03,2.37.01,4.74.02,7.11.02.18-.06.35-.22.44-2.14,1.39-4.1,3.05-5.83,4.94-1.56,1.65-3.09,3.32-4.7,4.93-1.4,1.41-3.03,2.57-4.82,3.43-1.31.64-2.72,1.05-4.16,1.23-1.49.19-3.01.05-4.45-.39-.37-.12-.37-.11-.56.22-.77,1.37-1.17,2.92-1.16,4.49,0,.22-.07.28-.29.22-2.28-.55-4.24-2-5.42-4.03-.73-1.19-1.03-2.58-.85-3.96-.01-.12-.07-.22-.17-.28-.8-.53-1.49-1.21-2.04-1.99-.83-1.2-1.2-2.67-1.06-4.12.29-2.53,1.55-4.85,3.5-6.49,2.07-1.92,4.52-3.38,7.19-4.29,1.23-.46,2.5-.78,3.8-.97.98-.13,1.97-.12,2.94.03,1.4.19,2.75.68,3.94,1.45.9.57,1.63,1.36,2.13,2.29.3.54.26,1.2-.1,1.7-.51.72-1.17,1.31-1.94,1.73-1.06.62-2.2,1.11-3.38,1.46-1.84.58-3.77.86-5.7.84-1,.04-1.98-.31-2.73-.97-.95-.84-1.42-2.09-1.26-3.35,0-.06.01-.12.01-.19,0-.04,0-.08-.01-.12Z"></path></g></svg>