<svg xmlns="http://www.w3.org/2000/svg" id="Layer_2" data-name="Layer 2" viewBox="0 0 495.37 543.02"><defs><style>      .cls-1 {        fill: #fff;      }      .cls-2 {        fill: #333;      }      .cls-3 {        fill: #e4e4e4;      }      .cls-4 {        fill: #afb0af;      }      .cls-5 {        fill: #f2f1f1;      }      .cls-6 {        fill: #717272;      }      .cls-7 {        fill: #474848;      }      .cls-8 {        fill: #8f908f;      }      .cls-9 {        fill: #3d3e3d;      }      .cls-10 {        fill: #4d4e4d;      }      .cls-11 {        fill: #515351;      }      .cls-12 {        fill: #999a98;      }      .cls-13 {        fill: #7b7c7c;      }    </style></defs><g id="Layer_1-2" data-name="Layer 1"><g><path class="cls-4" d="m246.07.02h1.76c.48,42.73-.25,128.44-.25,128.44-40.86-22.92-82-45.3-122.84-68.29,26.75-15.21,53.53-30.38,80.32-45.51C217.75,7.5,231.39,1.35,246.06.02h.01Z"></path><path class="cls-12" d="m247.73.02h3c15.89,1.43,30.27,9,43.94,16.68,25.49,14.38,50.95,28.82,76.38,43.32-41,22.73-82.45,45.82-123.51,68.48-.35-42.73.63-85.77.15-128.5l.04.02Z"></path><path class="cls-8" d="m124.77,60.13l122.84,68.29-123.69,72.26s-.06-45.85.08-68.71c-.11-23.74.77-71.84.77-71.84Z"></path><path class="cls-6" d="m371.19,60.02l.35.19c-.1,42.59,0,85.18,0,127.77-.07,4.17-.11,12.77-.11,12.77l-123.81-72.28s82.58-45.69,123.61-68.45h-.04Z"></path><path class="cls-11" d="m371.44,60.23c27.28,15.51,54.37,31.36,81.47,47.17,13.11,7.36,27,15.52,34.16,29.39-38.38,21.25-115.68,64-115.68,64,0,0-.06-8.61,0-12.78V60.24h.05Z"></path><path class="cls-6" d="m46.5,105.02c25.65-15,78.19-44.88,78.19-44.88l-.69,140.54s-77-42.45-115.29-63.66c8.34-14.87,23.4-23.88,37.79-32Z"></path><path class="cls-1" d="m247.5,128.46l123.81,72.3s-39.84,22-59.62,32.64c-21.14,12-64.09,35.82-64.09,35.82l-123.66-68.54,123.56-72.22Z"></path><path class="cls-10" d="m0,193.02c.11-18.83-.23-38.85,8.66-56,38.34,21.21,115.26,63.66,115.26,63.66-41.37,23.92-82.54,48.2-123.92,72.15v-79.81Z"></path><path class="cls-9" d="m487.07,136.79c7.54,14.1,8.64,30.5,8.22,46.19v90.11l-123.88-72.31s77.28-42.76,115.66-63.99Z"></path><path class="cls-3" d="m123.92,200.68c.19-.08,123.66,68.54,123.66,68.54,0,0,0,71.69.07,106.76.2,11.29-.07,34.11-.07,34.11-41.27-22.78-82.32-45.76-123.6-68.54l-.07-.31v-140.56h0Z"></path><path class="cls-9" d="m0,272.83c41.35-24,82.52-48.23,123.89-72.15-.04,46.86-.04,93.71,0,140.56-6.35-2.65-12.13-6.43-18.19-9.64-35.2-19.37-70.32-39.19-105.7-58.37v-.4Z"></path><path class="cls-5" d="m371.39,200.78v86.18c-.13,18.27.46,36.47,0,54.73-41.21,22.4-123.82,68.4-123.82,68.4,0,0,.27-22.82.07-34.11,0-35.07-.07-106.76-.07-106.76l123.82-68.44Z"></path><path class="cls-2" d="m371.39,200.78s123.88,72.14,123.88,72.31c-41.17,22.82-123.87,68.6-123.87,68.6h0c.46-18.26-.13-36.46,0-54.73v-86.18h-.01Z"></path><path class="cls-2" d="m0,273.23c35.36,19.21,70.43,39,105.7,58.4,6.06,3.21,11.84,7,18.19,9.64l.07.31c-37.97,22.15-75.96,44.32-113.96,66.49-4-6.05-6-13.19-7.47-20.25-2.39-11.8-2.53-23.8-2.53-35.8v-78.8h0Z"></path><path class="cls-7" d="m495.27,273.09c.06,27.65,0,55.3,0,82.95.4,17.73-.12,36.62-9.57,52.25-34.2-20-114.33-66.6-114.33-66.6,0,0,82.73-45.78,123.9-68.6Z"></path><path class="cls-6" d="m10,408.02c38-22.19,76-44.34,114-66.47-.25,46.83.08,93.67-.16,140.49-26.9-15.17-53.73-30.45-80.49-45.86-12.53-7.4-25.35-15.63-33.35-28.16Z"></path><path class="cls-8" d="m124,341.55c41.28,22.78,82.33,45.76,123.6,68.54-41.2,24-123.7,72-123.76,71.95.24-46.82-.09-93.66.16-140.49h0Z"></path><path class="cls-12" d="m371.2,341.78l.2-.09c.12,46.84-.25,93.69.19,140.53l-.31.15c-32.66-19.51-65.71-38.4-98.52-57.68-8.26-4.7-25.18-14.6-25.18-14.6,0,0,82.42-45.86,123.62-68.31Z"></path><path class="cls-6" d="m371.4,341.69h0c3.65,2.49,80.13,46.62,114.33,66.6-4.86,8.3-12.56,14.39-20.32,19.84-12.52,8.42-25.88,15.47-38.9,23.05-18.31,10.35-36.5,20.91-54.92,31-.44-46.84-.07-93.69-.19-140.53v.04Z"></path><path class="cls-13" d="m247.58,410.09v132.93c-10.25-1.51-21.42-3.87-30.5-9.08-31.08-17.26-62.27-34.42-93.26-51.92,41.18-24,82.56-47.88,123.76-71.93Z"></path><path class="cls-8" d="m247.58,410.09s16.92,9.9,25.18,14.6c32.81,19.28,65.86,38.17,98.52,57.68-31.86,17.63-63.72,35.29-95.57,53-7.96,4.4-16.79,7.01-25.87,7.65h-2.26v-132.93Z"></path></g></g></svg>