<svg xmlns="http://www.w3.org/2000/svg" id="Layer_2" data-name="Layer 2" viewBox="0 0 251.53 238.09"><defs><style>      .cls-1 {        fill: #9d9d9d;      }      .cls-2 {        stroke-width: 3px;      }      .cls-2, .cls-3 {        stroke: #333;      }      .cls-2, .cls-3, .cls-4 {        stroke-linecap: round;        stroke-linejoin: round;      }      .cls-2, .cls-4 {        fill: none;      }      .cls-5 {        fill: #fff;      }      .cls-6, .cls-3, .cls-7 {        fill: #333;      }      .cls-6, .cls-8 {        stroke-miterlimit: 10;        stroke-width: 4px;      }      .cls-6, .cls-8, .cls-4 {        stroke: #fff;      }      .cls-3, .cls-4 {        stroke-width: 2px;      }      .cls-8, .cls-9 {        fill: #606060;      }    </style></defs><g id="Layer_1-2" data-name="Layer 1"><circle class="cls-1" cx="115.48" cy="138.09" r="100"></circle><g><g><path class="cls-7" d="m105.39,221.09c-3.04,0-5.96-1.12-8.23-3.16l-11.35-10.22c-2.63-2.36-4.11-5.61-4.19-9.15-.08-3.53,1.27-6.84,3.79-9.32l55.54-54.5c.22-.22.34-.51.34-.83,0-.31-.14-.6-.37-.81l-.76-.68c-.81-.73-1.22-1.76-1.14-2.84.08-1.08.65-2.04,1.55-2.64l16.96-11.65c.44-.29.7-.73.74-1.24s-.15-.98-.53-1.32l-13.48-12.14c-2.75-2.48-2.97-6.73-.5-9.48,0,0,16.52-18.29,19.58-21.69,8.28-9.62,22.32-24.71,27.03-26.75,2.01-1.09,4.62-1.71,7.27-1.71,3.41,0,6.62,1.03,9.05,2.89.48.37.79.92.85,1.52.06.6-.14,1.18-.55,1.64l-35.94,39.87-.17.61c-.74,2.64-.25,5.29,1.39,7.45,1.63,2.16,4.17,3.44,6.8,3.44,1.26,0,2.5-.29,3.69-.86l.05-.02c3.84-4.41,34.37-38.17,34.69-38.51l.22-.24.97-.21c.7-.15,1.42-.22,2.12-.22,2.89,0,5.65,1.26,7.57,3.46,1.91,2.18,2.78,5.08,2.4,7.96l-.04.32-.24.27c-3.57,3.88-14.02,15.53-22.42,24.89-5.58,6.22-10.43,11.63-12.38,13.77v.44c-.1,2.64.87,5.12,2.7,7.01,1.82,1.87,4.34,2.95,6.92,2.95h0c.56,0,1.13-.05,1.69-.15,7.89-8.82,33.27-37.25,33.27-37.25l1.72-1.91c.4-.45.98-.71,1.59-.71s1.12.22,1.53.63c6.89,6.85,6.25,14.53,3.36,19.42-.71,1.09-5.75,6.63-12.81,14.33-2.37,2.59-4.54,4.96-5.96,6.54l-24.06,26.72c-1.39,1.54-3.38,2.43-5.45,2.43-1.81,0-3.56-.67-4.9-1.88l-12.79-11.52c-.19-.17-.39-.2-.52-.2-.26,0-.5.12-.64.34l-12.04,18.31c-.42.65-1.14,1.05-1.93,1.05-.55,0-1.08-.2-1.5-.55l-.51-.44s-.09-.05-.14-.05c-.04,0-.11.01-.17.08l-50.06,61.94c-2.35,2.9-5.84,4.57-9.58,4.57Z"></path><path class="cls-5" d="m197.65,41.96c2.95,0,6.01.82,8.44,2.68.55.42.62,1.18.16,1.69l-36.1,40.05s-.09.3-.24.84c-1.8,6.41,3.24,12.16,9.15,12.16,1.35,0,2.75-.3,4.13-.96.08-.04.16-.08.24-.11,3.2-3.72,34.81-38.65,34.81-38.65,0,0,.24-.05.65-.14.65-.14,1.29-.2,1.91-.2,5.33,0,9.72,4.72,8.98,10.29,0,.01,0,.03-.02.04-6,6.53-30.71,34.17-35.06,38.95l-.03.81c-.19,6.14,4.77,10.99,10.63,10.99.73,0,1.47-.07,2.21-.23,7.62-8.52,33.5-37.51,33.5-37.51l1.72-1.9c.23-.25.54-.38.85-.38s.6.11.82.34c6.42,6.38,6.01,13.45,3.2,18.21-1,1.53-13.97,15.51-18.65,20.71l-24.06,26.72c-1.25,1.39-2.98,2.1-4.71,2.1-1.51,0-3.03-.54-4.24-1.63l-12.79-11.52c-.34-.31-.77-.46-1.19-.46-.56,0-1.12.26-1.47.77l-12.05,18.33c-.25.39-.67.6-1.1.6-.3,0-.6-.1-.85-.31l-.51-.44c-.23-.2-.51-.29-.79-.29-.36,0-.71.15-.95.45l-50.06,61.94c-2.24,2.77-5.51,4.2-8.8,4.2-2.69,0-5.39-.95-7.56-2.9l-11.35-10.22c-5-4.5-5.17-12.29-.36-17.01l55.54-54.5c.87-.86.84-2.27-.07-3.09l-.76-.68c-1.2-1.08-1.06-3.01.3-3.9l16.98-11.66c1.43-.94,1.58-2.98.31-4.12l-13.48-12.14c-2.35-2.11-2.53-5.72-.42-8.07,0,0,16.52-18.29,19.58-21.69,8.66-10.07,22.34-24.62,26.68-26.5,1.92-1.04,4.36-1.63,6.87-1.63m0-2c-2.79,0-5.54.65-7.75,1.83-5.32,2.41-20.17,18.69-27.32,27-3.03,3.36-19.55,21.65-19.55,21.65-1.38,1.53-2.08,3.51-1.97,5.57.11,2.06,1.01,3.95,2.54,5.33l13.48,12.14c.19.18.21.39.2.5,0,.11-.06.32-.27.47l-17.01,11.69c-1.13.74-1.86,1.98-1.97,3.37-.11,1.39.43,2.73,1.47,3.66l.76.68s.04.04.04.09c0,.05-.03.08-.04.09l-55.54,54.5c-2.72,2.67-4.18,6.24-4.09,10.05.08,3.81,1.69,7.32,4.52,9.87l11.35,10.22c2.45,2.2,5.61,3.42,8.9,3.42,4.04,0,7.82-1.8,10.35-4.94l49.56-61.32c.58.46,1.3.71,2.05.71,1.13,0,2.17-.57,2.78-1.52l11.87-18.06,12.6,11.35c1.53,1.38,3.51,2.14,5.57,2.14,2.36,0,4.62-1,6.19-2.76l24.06-26.72c1.41-1.57,3.63-3.99,5.97-6.55,7.3-7.98,12.14-13.29,12.87-14.41l.02-.04.02-.04c3.08-5.22,3.78-13.39-3.51-20.64-.6-.6-1.39-.92-2.23-.92-.89,0-1.74.38-2.33,1.04l-1.72,1.9s-24.89,27.88-33.04,37c-.39.05-.79.08-1.18.08-2.31,0-4.57-.96-6.2-2.64-1.64-1.69-2.5-3.92-2.43-6.29v-.07c2.09-2.31,6.77-7.52,12.12-13.48,8.4-9.37,18.86-21.03,22.44-24.92l.43-.46.1-.66c.42-3.17-.54-6.36-2.64-8.75-2.11-2.41-5.15-3.8-8.32-3.8-.78,0-1.56.08-2.33.25l-.65.14-.63.13-.43.48c-1.26,1.39-30.21,33.4-34.56,38.37-1.01.47-2.06.7-3.12.7-2.31,0-4.55-1.14-6-3.05-1.44-1.9-1.88-4.24-1.22-6.57l.11-.39,35.79-39.7c.59-.66.89-1.53.81-2.4-.08-.87-.53-1.68-1.23-2.22-2.6-2-6.03-3.09-9.66-3.09h0Z"></path></g><path class="cls-5" d="m158.19,150.86l-11.98-10.7c-.4-.36-1.01-.34-1.38.05l-55.69,57.2c-1.87,1.92-1.77,5.01.22,6.81l10.26,9.23c2.07,1.87,5.28,1.65,7.08-.47l51.59-60.72c.35-.41.31-1.03-.1-1.39Z"></path><line class="cls-3" x1="152.17" y1="145.44" x2="102.24" y2="201.04"></line></g><g><g><path class="cls-7" d="m132.43,221.09c-3.94,0-7.67-1.9-9.97-5.09l-44.14-61.02c-.2-.28-.51-.44-.86-.44-.17,0-.43.04-.67.24l-.76.63c-.61.5-1.37.77-2.15.77-1.32,0-2.53-.77-3.08-1.97l-7.71-16.71c-.25-.55-.79-.89-1.39-.89-.25,0-.62.06-.97.35l-16.01,13.16c-1.17.96-2.64,1.49-4.14,1.49h0c-1.96,0-3.8-.87-5.05-2.38,0,0-20.1-24.51-22.91-27.93-6.73-7.81-8.69-11.93-9.81-15.21-.68-1.99-1.15-4.15-1.41-6.43-3.12-27.78,13.12-42.02,14.98-43.55,4.45-3.66,14.97-6.7,26.18-7.55,1.14-.09,2.31-.13,3.45-.13,13.58,0,26.29,5.95,34.87,16.32l23.23,28.26c2.5,3.04,2.06,7.54-.98,10.03l-16.54,13.59c-.22.18-.26.41-.26.54,0,.12.02.36.23.55l14.77,12.93c.49.43.77,1.05.77,1.71s-.29,1.28-.78,1.7l-.49.43s-.06.09-.06.13c0,.03,0,.09.05.13l52.06,56.85c2.24,2.44,3.34,5.61,3.11,8.91-.23,3.3-1.77,6.28-4.33,8.38l-11.42,9.39c-2.2,1.8-4.96,2.8-7.8,2.8Z"></path><path class="cls-5" d="m46.02,49.44c13.1,0,25.68,5.79,34.1,15.96.04.05.09.1.13.16l23.1,28.1c2.15,2.61,1.77,6.48-.84,8.63l-16.54,13.59c-.8.66-.84,1.87-.09,2.59l14.8,12.95c.58.5.57,1.4,0,1.9l-.49.43c-.5.44-.55,1.2-.1,1.69l52.06,56.84c4.24,4.63,3.72,11.86-1.12,15.84l-11.42,9.39c-2.11,1.73-4.65,2.57-7.16,2.57-3.49,0-6.94-1.61-9.16-4.68l-44.14-61.02c-.4-.56-1.03-.85-1.67-.85-.46,0-.92.15-1.3.47l-.76.63c-.45.37-.99.54-1.51.54-.89,0-1.76-.5-2.18-1.39l-7.71-16.71c-.44-.94-1.36-1.47-2.3-1.47-.56,0-1.12.18-1.6.58l-16.01,13.16c-1.03.85-2.27,1.26-3.51,1.26-1.6,0-3.18-.69-4.27-2.02,0,0-20.1-24.51-22.91-27.93-6.29-7.31-8.45-11.43-9.64-14.89-.69-2.01-1.12-4.1-1.36-6.22-2.66-23.7,8.93-37.98,14.63-42.66,4.28-3.53,14.78-6.5,25.62-7.33,1.13-.09,2.25-.13,3.38-.13m0-2c-1.17,0-2.36.05-3.53.13-11.39.87-22.14,3.99-26.74,7.78-2,1.64-7.07,6.38-11,14.91C.67,79.14-.8,89.07.41,99.78c.26,2.35.75,4.58,1.46,6.64,1.15,3.38,3.16,7.6,10.01,15.55,2.78,3.38,22.88,27.89,22.88,27.89,1.44,1.75,3.56,2.75,5.82,2.75,1.74,0,3.43-.61,4.78-1.71l16.01-13.16c.1-.08.21-.12.33-.12.08,0,.35.02.48.31l7.71,16.71c.72,1.55,2.28,2.55,3.99,2.55,1.01,0,2-.35,2.78-1l.76-.63s.03,0,.04,0c.03,0,.04,0,.04.02l44.14,61.02c2.49,3.45,6.52,5.5,10.78,5.5,3.07,0,6.06-1.07,8.43-3.03l11.42-9.39c2.77-2.28,4.44-5.5,4.69-9.08.25-3.58-.94-7.01-3.36-9.65l-51.49-56.23c.63-.61.98-1.45.99-2.33,0-.94-.4-1.84-1.11-2.46l-14.5-12.7,16.28-13.39c1.68-1.38,2.72-3.33,2.93-5.49s-.43-4.28-1.81-5.95l-23.1-28.1-.13-.16c-8.77-10.6-21.76-16.68-35.64-16.68h0Z"></path></g><path class="cls-4" d="m12.51,92.71s-4.02,11.66,13.65,30.54c1.64,1.99,16.43,20.26,16.43,20.26l22.78-18.73-22.89-27.84"></path><path class="cls-5" d="m84.3,150.63l12-9.78c.42-.34,1.02-.29,1.38.11l51.33,57.7c1.73,1.94,1.5,4.92-.51,6.57l-10.32,8.48c-2.08,1.71-5.17,1.37-6.83-.77l-47.21-60.93c-.33-.43-.26-1.04.16-1.39Z"></path><line class="cls-3" x1="88" y1="147.58" x2="132.32" y2="204.77"></line></g><g><g><g><path class="cls-8" d="m123.16,113.39s14.08-62.52-18.31-108.3c-.03-.04-.09-.04-.12,0-1.69,3.06-34.55,58.32,19.75,83.02.03.02.08,0,.1-.04,1.39-2.79,1.58-3.81,1.6-3.97,0-.02,0-.03.02-.04,1.23-.94,55.86-43.05-13.58-75.75,0,0,0,0-.01,0-.39-.02-5.25-2.59-6.4-3.2-.06-.03-.13.04-.09.1,2.28,3.42,29.16,45.44,17.05,108.17Z"></path><path class="cls-6" d="m123.16,116.39c-.36,0-.73-.06-1.1-.21-1.39-.54-2.09-2.09-1.81-3.55.42-2.21.8-4.39,1.12-6.54.55-3.8,1.16-9.07,1.5-15.35,0-.03-.01-.06-.04-.07-15.64-7.21-25.76-17.62-30.1-30.93-7.37-22.62,3.99-46.57,9.22-55.82l.15-.27c.49-.87,1.34-1.52,2.34-1.62.3-.03.6-.02.89.03.67-.15,1.4-.06,2.04.28,2.39,1.27,5.29,2.76,6.05,3.09.16.04.32.1.47.18,22.82,10.74,35.18,23.79,36.73,38.78,2.08,20.18-16.18,36.81-21.34,41.06-.02.01-.02.03-.02.05-.1,3.49-.3,7.07-.63,10.75-.88,10.26-2.35,16.98-2.53,17.8-.31,1.39-1.55,2.34-2.92,2.34ZM105.15,10.93s-.1-.05-.12,0c-4.74,9.57-12.39,29.15-6.59,46.94,3.59,11.02,11.87,19.83,24.62,26.24.02-.06.04-.11.06-.16.09-5.35-.05-11.22-.57-17.4-1.53-16.09-5.31-29.48-9.1-39.48-2.25-5.5-4.99-10.92-8.29-16.15Zm24.02,63.12c.04,1.04.08,2.08.1,3.14,0,.06.07.1.12.05,6.45-6.32,16.67-18.65,15.26-32.25-1.28-12.25-11.68-23.28-30.94-32.8-.06-.03-.13.03-.1.09,2.12,4.17,4.62,9.71,7,16.49,5.82,15.65,8.05,31.53,8.56,45.28ZM112.61,5.33h0,0Z"></path></g><g><path class="cls-9" d="m123.16,113.39s14.1-62.61-18.38-108.39c-.78,1.57-35.41,58.11,19.76,83.15,1.57-3.13,1.63-4.06,1.63-4.06,0,0,56.67-42.7-13.57-75.77-.39,0-6.65-3.33-6.65-3.33,0,0,29.84,42.91,17.2,108.39Z"></path><path class="cls-7" d="m123.16,116.39c-.2,0-.41-.02-.62-.06-1.6-.34-2.64-1.9-2.33-3.5.44-2.27.82-4.52,1.16-6.73.55-3.81,1.16-9.1,1.5-15.4-15.66-7.21-25.8-17.62-30.15-30.95-7.37-22.62,3.99-46.57,9.22-55.82l.17-.3c.49-.92,1.43-1.53,2.47-1.6.25-.01.5,0,.74.04.67-.15,1.4-.06,2.04.28,2.39,1.27,5.29,2.76,6.05,3.09.16.04.32.1.47.18,22.82,10.74,35.18,23.79,36.73,38.78,2.09,20.21-16.24,36.86-21.36,41.08-.09,3.5-.3,7.09-.63,10.78-.88,10.26-2.35,16.98-2.53,17.8-.31,1.39-1.55,2.34-2.92,2.34ZM105.08,10.83c-4.74,9.53-12.47,29.2-6.65,47.05,3.59,11.02,11.87,19.83,24.62,26.24.02-.06.04-.11.06-.16.09-5.35-.05-11.22-.57-17.4-1.53-16.09-5.31-29.48-9.1-39.48-2.27-5.54-5.02-11-8.36-16.25Zm24.09,63.22c.05,1.09.08,2.19.1,3.3,6.45-6.29,16.79-18.68,15.37-32.36-1.28-12.29-11.75-23.35-31.13-32.9,2.14,4.19,4.68,9.79,7.09,16.68,5.82,15.65,8.05,31.53,8.56,45.28ZM112.61,5.33h0,0Zm0,0h0,0Z"></path></g></g><path class="cls-2" d="m127.21,68.78s25.36-16.24,0-43.43"></path></g><g><g><g><path class="cls-8" d="m80.2,194.34s-41.77,10.54-73.09-10.44c-.03-.02-.03-.06,0-.08,2.03-1.19,38.6-24.22,56.13,11.85.01.02,0,.05-.02.06-1.85.98-2.53,1.12-2.64,1.14-.01,0-.02,0-.03.02-.61.84-27.97,38.28-51.14-7.82,0,0,0,0,0,0-.02-.26-1.83-3.48-2.26-4.25-.02-.04.02-.09.06-.06,2.33,1.47,31.03,18.81,72.98,9.6Z"></path><path class="cls-6" d="m82.21,194.29c0-.24-.06-.49-.16-.73-.38-.92-1.44-1.37-2.42-1.16-1.48.32-2.94.61-4.38.87-2.55.43-6.08.94-10.29,1.27-.02,0-.04,0-.05-.03-5.11-10.38-12.28-17.01-21.31-19.7-15.33-4.56-31.23,3.48-37.35,7.16l-.18.1c-.58.34-1,.93-1.05,1.6-.01.2,0,.4.04.6-.09.46-.02.94.23,1.37.89,1.58,1.95,3.51,2.18,4.01.03.11.08.21.13.31,7.61,15.15,16.59,23.23,26.69,24.01,13.6,1.05,24.46-11.51,27.23-15.05,0-.01.02-.02.03-.02,2.35-.12,4.75-.32,7.21-.61,6.88-.77,11.37-1.87,11.92-2.01.93-.23,1.55-1.08,1.52-2.01Zm-71.18-10.29s-.03-.07,0-.08c6.35-3.35,19.38-8.83,31.43-5.24,7.47,2.22,13.53,7.64,18.06,16.1-.04.02-.08.03-.11.04-3.6.15-7.54.16-11.7-.08-10.84-.75-19.9-3.06-26.69-5.44-3.73-1.42-7.43-3.16-10.99-5.3Zm42.83,15.06c.7.01,1.4.02,2.11.01.04,0,.07.05.04.08-4.14,4.45-12.25,11.52-21.41,10.81-8.25-.65-15.84-7.45-22.58-20.23-.02-.04.02-.09.06-.07,2.84,1.35,6.6,2.94,11.2,4.42,10.62,3.64,21.33,4.87,30.58,4.98Z"></path></g><g><path class="cls-9" d="m80.2,194.34s-41.83,10.55-73.16-10.49c1.04-.55,38.44-24.8,56.22,11.85-2.08,1.11-2.7,1.17-2.7,1.17,0,0-27.72,38.82-51.15-7.81,0-.26-2.35-4.41-2.35-4.41,0,0,29.35,19.32,73.14,9.7Z"></path><path class="cls-7" d="m82.21,194.29c0-.14-.02-.27-.05-.41-.25-1.07-1.32-1.74-2.4-1.51-1.52.33-3.02.63-4.5.9-2.55.44-6.09.94-10.32,1.27-5.12-10.4-12.29-17.04-21.32-19.73-15.33-4.56-31.23,3.48-37.35,7.16l-.2.12c-.61.35-1.01.99-1.03,1.69,0,.17,0,.34.04.5-.09.46-.02.94.23,1.37.89,1.58,1.95,3.51,2.18,4.01.03.11.08.21.13.31,7.61,15.15,16.59,23.23,26.69,24.01,13.62,1.05,24.49-11.55,27.24-15.06,2.35-.12,4.76-.32,7.23-.61,6.88-.77,11.37-1.87,11.92-2.01.93-.23,1.55-1.08,1.52-2.01Zm-71.25-10.34c6.32-3.35,19.41-8.88,31.5-5.28,7.47,2.22,13.53,7.64,18.06,16.1-.04.02-.08.03-.11.04-3.6.15-7.54.16-11.7-.08-10.84-.75-19.9-3.06-26.69-5.44-3.76-1.43-7.48-3.19-11.07-5.34Zm42.9,15.1c.73.01,1.47.02,2.22.01-4.11,4.44-12.27,11.61-21.48,10.88-8.28-.65-15.89-7.49-22.64-20.35,2.85,1.36,6.66,2.98,11.33,4.48,10.62,3.64,21.33,4.87,30.58,4.98Zm-46.47-9.95h0s0,0,0,0Zm0,0h0s0,0,0,0Z"></path></g></g><path class="cls-2" d="m50.29,197.82s-10.48,17.32-29.19.75"></path></g><g><g><g><path class="cls-8" d="m154.06,188.51s41.77-10.54,73.09,10.44c.03.02.03.06,0,.08-2.03,1.19-38.6,24.22-56.13-11.85-.01-.02,0-.05.02-.06,1.85-.98,2.53-1.12,2.64-1.14.01,0,.02,0,.03-.02.61-.84,27.97-38.28,51.14,7.82,0,0,0,0,0,0,.02.26,1.83,3.48,2.26,4.25.02.04-.02.09-.06.06-2.33-1.47-31.03-18.81-72.98-9.6Z"></path><path class="cls-6" d="m152.05,188.56c0,.24.06.49.16.73.38.92,1.44,1.37,2.42,1.16,1.48-.32,2.94-.61,4.38-.87,2.55-.43,6.08-.94,10.29-1.27.02,0,.04,0,.05.03,5.11,10.38,12.28,17.01,21.31,19.7,15.33,4.56,31.23-3.48,37.35-7.16l.18-.1c.58-.34,1-.93,1.05-1.6.01-.2,0-.4-.04-.6.09-.46.02-.94-.23-1.37-.89-1.58-1.95-3.51-2.18-4.01-.03-.11-.08-.21-.13-.31-7.61-15.15-16.59-23.23-26.69-24.01-13.6-1.05-24.46,11.51-27.23,15.05,0,.01-.02.02-.03.02-2.35.12-4.75.32-7.21.61-6.88.77-11.37,1.87-11.92,2.01-.93.23-1.55,1.08-1.52,2.01Zm71.18,10.29s.03.07,0,.08c-6.35,3.35-19.38,8.83-31.43,5.24-7.47-2.22-13.53-7.64-18.06-16.1.04-.02.08-.03.11-.04,3.6-.15,7.54-.16,11.7.08,10.84.75,19.9,3.06,26.69,5.44,3.73,1.42,7.43,3.16,10.99,5.3Zm-42.83-15.06c-.7-.01-1.4-.02-2.11-.01-.04,0-.07-.05-.04-.08,4.14-4.45,12.25-11.52,21.41-10.81,8.25.65,15.84,7.45,22.58,20.23.02.04-.02.09-.06.07-2.84-1.35-6.6-2.94-11.2-4.42-10.62-3.64-21.33-4.87-30.58-4.98Z"></path></g><g><path class="cls-9" d="m154.06,188.51s41.83-10.55,73.16,10.49c-1.04.55-38.44,24.8-56.22-11.85,2.08-1.11,2.7-1.17,2.7-1.17,0,0,27.72-38.82,51.15,7.81,0,.26,2.35,4.41,2.35,4.41,0,0-29.35-19.32-73.14-9.7Z"></path><path class="cls-7" d="m152.05,188.56c0,.14.02.27.05.41.25,1.07,1.32,1.74,2.4,1.51,1.52-.33,3.02-.63,4.5-.9,2.55-.44,6.09-.94,10.32-1.27,5.12,10.4,12.29,17.04,21.32,19.73,15.33,4.56,31.23-3.48,37.35-7.16l.2-.12c.61-.35,1.01-.99,1.03-1.69,0-.17,0-.34-.04-.5.09-.46.02-.94-.23-1.37-.89-1.58-1.95-3.51-2.18-4.01-.03-.11-.08-.21-.13-.31-7.61-15.15-16.59-23.23-26.69-24.01-13.62-1.05-24.49,11.55-27.24,15.06-2.35.12-4.76.32-7.23.61-6.88.77-11.37,1.87-11.92,2.01-.93.23-1.55,1.08-1.52,2.01Zm71.25,10.34c-6.32,3.35-19.41,8.88-31.5,5.28-7.47-2.22-13.53-7.64-18.06-16.1.04-.02.08-.03.11-.04,3.6-.15,7.54-.16,11.7.08,10.84.75,19.9,3.06,26.69,5.44,3.76,1.43,7.48,3.19,11.07,5.34Zm-42.9-15.1c-.73-.01-1.47-.02-2.22-.01,4.11-4.44,12.27-11.61,21.48-10.88,8.28.65,15.89,7.49,22.64,20.35-2.85-1.36-6.66-2.98-11.33-4.48-10.62-3.64-21.33-4.87-30.58-4.98Zm46.47,9.95h0s0,0,0,0Zm0,0h0s0,0,0,0Z"></path></g></g><path class="cls-2" d="m183.97,185.02s10.48-17.32,29.19-.75"></path></g></g></svg>