<svg xmlns="http://www.w3.org/2000/svg" id="Layer_2" data-name="Layer 2" viewBox="0 0 200 200"><defs><style>      .cls-1 {        fill: #9d9d9d;      }      .cls-2 {        fill: #fff;      }      .cls-3, .cls-4, .cls-5 {        fill: #333;      }      .cls-3, .cls-4, .cls-6 {        stroke: #fff;        stroke-miterlimit: 10;      }      .cls-3, .cls-6 {        stroke-width: 4px;      }      .cls-7 {        stroke: #333;        stroke-linecap: round;        stroke-linejoin: round;        stroke-width: 6px;      }      .cls-7, .cls-6 {        fill: #606060;      }      .cls-4 {        stroke-width: 5px;      }    </style></defs><g id="Layer_1-2" data-name="Layer 1"><g><circle class="cls-1" cx="100" cy="100" r="100"></circle><path class="cls-4" d="m106.65,138.06c-1.22,0-2.33-.74-2.78-1.88-.19-.47-.23-.87-.32-1.61-1.72-14.8-11.31-33.62-27.01-52.99-1.04-1.29-.85-3.18.44-4.22,1.29-1.04,3.18-.85,4.22.44,13.13,16.21,22,31.7,26.08,45.45,6.97-16.85,19.23-29.56,19.86-30.2,1.16-1.19,3.05-1.21,4.24-.05,1.19,1.16,1.21,3.05.06,4.24-.17.18-17.4,18.06-21.85,38.46-.28,1.29-1.37,2.24-2.68,2.35-.08,0-.17.01-.25.01Z"></path><path class="cls-5" d="m1.84,101.41c74.5-3.68,94.04,22.95,105.07,30.52,29.79-11.63,32.93-15.91,64.84-13.13,7.87,1,10.82,2.34,24.83,7.21-11.45,42.62-50.35,73.99-96.58,73.99C45.87,200,1.79,157,.05,103.29c-.04-1.09,1.79-.78,1.79-1.88Z"></path><g><path class="cls-6" d="m113.11,116.08s39.13,9,33.07-40.5c-.2,0-42.46-3.72-33.07,40.5Z"></path><path class="cls-3" d="m119.87,119.73c-4.18,0-7.16-.66-7.44-.72-1.14-.26-2.02-1.16-2.26-2.3-3.06-14.39-1.2-25.6,5.51-33.32,10.09-11.6,27.3-11.03,30.65-10.79h0c1.44.08,2.64,1.18,2.82,2.63,2.14,17.49-.94,30.12-9.16,37.52-6.38,5.75-14.38,6.99-20.12,6.99Zm-4.23-6.27c4.01.5,13.62.9,20.36-5.2,6.28-5.69,8.79-15.69,7.47-29.75-5.1.03-16.5,1.04-23.26,8.81-5.12,5.89-6.65,14.68-4.57,26.14Z"></path></g><g><path class="cls-6" d="m108.41,125.28s19.17-67.7-45.78-65.74c-.39,1.37-21.52,55.17,36.98,53.22.98,1.96,8.8,12.52,8.8,12.52Z"></path><path class="cls-3" d="m108.41,128.28c-.94,0-1.84-.44-2.41-1.21-1.1-1.48-5.82-7.88-8.04-11.27-17.22.28-29.41-4.31-36.25-13.62-10.51-14.31-4.93-35.02-2.04-43.26l.09-.27c.36-1.26,1.47-2.07,2.78-2.11,19.3-.58,33.44,4.74,42.09,15.82,15.88,20.35,7.06,52.38,6.67,53.73-.31,1.1-1.22,1.93-2.35,2.13-.18.03-.36.05-.54.05Zm-8.8-18.52c1.13,0,2.17.64,2.68,1.66.35.7,2.25,3.43,4.57,6.65,1.64-9.9,3.1-29.13-6.98-42.03-7.1-9.09-18.94-13.66-35.08-13.54-2.3,7.17-6.61,24.75,1.75,36.13,5.82,7.92,16.91,11.66,32.96,11.13.03,0,.07,0,.1,0Z"></path></g><path class="cls-2" d="m196.77,125.3c-37.72-17.45-72.14-4.37-89.54,5.19-22.17-20.34-49.97-27.09-69.54-29.17-19.74-2.09-34.83-.03-37.67.41.02,1.35.07,2.69.15,4.02.02,0,.04,0,.05,0,.64-.11,64.1-10.3,105.31,28.63.38.36.87.55,1.37.55.25,0,.5-.05.74-.14.26-.1.58-.28,1.27-.67,16.75-9.25,50.21-22.12,86.74-4.93.39-1.29.76-2.58,1.1-3.89Z"></path><path class="cls-2" d="m91.36.38c-5.17,7.22-12.01,19.75-1.05,24.11,3.36,1.33,7.15,1.33,10.5,0,11.15-4.43,3.89-17.32-1.31-24.48-2.74.01-5.46.14-8.14.37Z"></path><path class="cls-2" d="m113.27,16.87s-26,28.65-6.5,36.41c4.15,1.65,8.85,1.65,13,0,19.5-7.76-6.5-36.41-6.5-36.41Z"></path><path class="cls-2" d="m125.68,24.77c2.38.95,5.08.95,7.46,0,9.8-3.9-.41-16.98-3.11-20.18-.33-.1-.65-.2-.98-.3-2.21,2.57-13.51,16.45-3.37,20.48Z"></path><path class="cls-7" d="m113.11,116.08s39.13,9,33.07-40.5c-.2,0-42.46-3.72-33.07,40.5Z"></path><path class="cls-7" d="m108.41,125.28s19.17-67.7-45.78-65.74c-.39,1.37-21.52,55.17,36.98,53.22.98,1.96,8.8,12.52,8.8,12.52Z"></path><path class="cls-5" d="m106.65,138.06c-1.22,0-2.33-.74-2.78-1.88-.19-.47-.23-.87-.32-1.61-1.72-14.8-11.31-33.62-27.01-52.99-1.04-1.29-.85-3.18.44-4.22,1.29-1.04,3.18-.85,4.22.44,13.13,16.21,22,31.7,26.08,45.45,6.97-16.85,19.23-29.56,19.86-30.2,1.16-1.19,3.05-1.21,4.24-.05,1.19,1.16,1.21,3.05.06,4.24-.17.18-17.4,18.06-21.85,38.46-.28,1.29-1.37,2.24-2.68,2.35-.08,0-.17.01-.25.01Z"></path></g></g></svg>